<svg width="40" height="40" viewBox="0 0 40 40" fill="none" xmlns="http://www.w3.org/2000/svg">
<g clip-path="url(#clip0)">
<path d="M27.6281 22.4514L28.7255 19.517C28.9092 19.0248 28.5556 18.4998 28.0367 18.4998H25.3505C25.8556 17.6139 26.1679 16.5967 26.1679 15.4998V15.4857C27.9679 15.1201 29.1066 14.5904 29.1066 13.9998C29.1066 13.3764 27.8531 12.8232 25.8878 12.4529C25.4653 10.9154 24.648 9.36856 24.0235 8.57168C23.5872 8.01387 22.8342 7.84043 22.2097 8.15918L20.9423 8.80606C20.5291 9.01699 20.0423 9.01699 19.6291 8.80606L18.3617 8.15918C17.7372 7.84043 16.9842 8.01387 16.548 8.57168C15.9281 9.36856 15.1061 10.9154 14.6837 12.4529C12.723 12.8232 11.4694 13.3764 11.4694 13.9998C11.4694 14.5904 12.6082 15.1201 14.4082 15.4857V15.4998C14.4082 16.5967 14.7204 17.6139 15.2255 18.4998H12.5852C12.0571 18.4998 11.7036 19.0482 11.9102 19.5451L13.0949 22.367C11.2536 23.4592 10 25.4701 10 27.7998V29.8998C10 31.0576 10.923 31.9998 12.0571 31.9998H28.5143C29.6485 31.9998 30.5714 31.0576 30.5714 29.8998V27.7998C30.5714 25.5311 29.3867 23.5623 27.6281 22.4514ZM18.0816 30.4998L16.1714 21.4998L18.449 22.9998L19.551 24.8748L18.0816 30.4998ZM22.4898 30.4998L21.0204 24.8748L22.1224 22.9998L24.4 21.4998L22.4898 30.4998ZM24.4046 16.5076C24.2255 17.0654 24.0832 17.6607 23.6469 18.0732C23.1832 18.5092 21.4429 19.1232 20.7082 16.9014C20.5796 16.5076 20.001 16.5076 19.8679 16.9014C19.0872 19.2545 17.2964 18.4201 16.9291 18.0732C16.4929 17.6607 16.3459 17.0654 16.1714 16.5076C16.1347 16.3904 15.8821 16.2404 15.8821 16.2357V15.7295C17.1816 15.8982 18.6832 16.0014 20.2903 16.0014C21.8974 16.0014 23.399 15.9029 24.6985 15.7295V16.2357C24.6939 16.2404 24.4413 16.3857 24.4046 16.5076Z" fill="#E0E0E0"/>
</g>
<circle cx="20" cy="20" r="19.5" stroke="#E0E0E0"/>
<defs>
<clipPath id="clip0">
<rect width="20.5714" height="24" fill="white" transform="translate(10 8)"/>
</clipPath>
</defs>
</svg>
