<svg width="13" height="14" viewBox="0 0 13 14" fill="none" xmlns="http://www.w3.org/2000/svg">
<path d="M6.12504 14C7.09082 14 7.87422 13.2166 7.87422 12.25H4.37585C4.37585 13.2166 5.15925 14 6.12504 14ZM12.0146 9.90637C11.4863 9.33871 10.4979 8.48477 10.4979 5.6875C10.4979 3.56289 9.00817 1.86211 6.99949 1.44484V0.875C6.99949 0.391836 6.60793 0 6.12504 0C5.64214 0 5.25058 0.391836 5.25058 0.875V1.44484C3.2419 1.86211 1.75221 3.56289 1.75221 5.6875C1.75221 8.48477 0.763732 9.33871 0.235449 9.90637C0.0713863 10.0827 -0.00134829 10.2936 1.89052e-05 10.5C0.00302673 10.9484 0.354942 11.375 0.877756 11.375H11.3723C11.8951 11.375 12.2473 10.9484 12.2501 10.5C12.2514 10.2936 12.1787 10.0825 12.0146 9.90637Z" fill="#BDBDBD"/>
</svg>
