<svg width="24" height="24" viewBox="0 0 24 24" fill="none" xmlns="http://www.w3.org/2000/svg">
<g clip-path="url(#clip0)">
<path d="M5.63251 12.0125C3.37885 12.0125 1.54541 13.8459 1.54541 16.0995C1.54541 18.3532 3.37885 20.1866 5.63251 20.1866C7.88599 20.1866 9.71942 18.3532 9.71942 16.0995C9.71942 13.8459 7.88599 12.0125 5.63251 12.0125ZM5.63251 12.7251C7.20959 12.7251 8.53693 13.8127 8.90515 15.2772C8.72864 15.9814 8.32269 16.619 7.75433 17.0795C7.15668 17.5637 6.4032 17.8303 5.63269 17.8303C4.862 17.8303 4.10852 17.5637 3.51068 17.0795C2.94232 16.619 2.53619 15.9814 2.35968 15.2772C2.72791 13.8127 4.05524 12.7251 5.63251 12.7251ZM5.63251 19.474C4.04517 19.474 2.71124 18.3723 2.35309 16.8935C2.5567 17.1674 2.79474 17.4166 3.06226 17.6332C3.78644 18.2199 4.69922 18.5429 5.63269 18.5429C6.56598 18.5429 7.47876 18.2199 8.20294 17.6332C8.47028 17.4164 8.70813 17.1674 8.91174 16.8937C8.55341 18.3723 7.21967 19.474 5.63251 19.474Z" fill="#B41529"/>
<path d="M23.6338 14.1024C23.6334 14.1002 23.5651 13.9294 23.5375 13.8653L20.5018 6.50592C20.1277 5.59918 19.4539 4.88452 18.6218 4.45624L18.3364 3.76392C18.1509 3.31458 17.8394 2.9339 17.4348 2.6629C17.0301 2.39282 16.5595 2.25 16.0739 2.25C14.7244 2.25 13.6265 3.3479 13.6265 4.69739V5.51898C13.0695 6.21112 12.735 7.08948 12.735 8.04492V8.31683H11.2648V8.04492C11.2648 7.08948 10.9303 6.21112 10.3733 5.51898V4.69739C10.3733 3.3479 9.27539 2.25 7.9259 2.25C7.44031 2.25 6.96973 2.39282 6.5647 2.66327C6.16058 2.9339 5.84894 3.31458 5.66345 3.76392L5.37799 4.45624C4.54614 4.88452 3.87213 5.59918 3.49823 6.50592L2.71893 8.39502C2.64386 8.57703 2.73047 8.78522 2.91248 8.86029C3.09448 8.93536 3.30267 8.84875 3.37756 8.66675L4.15686 6.77765C4.67212 5.52869 5.87805 4.72174 7.229 4.72174C9.06134 4.72174 10.5522 6.2124 10.5522 8.04492V13.3603C9.58813 11.6358 7.74426 10.467 5.63232 10.467C4.30957 10.467 3.0921 10.9257 2.12988 11.6918L2.89893 9.82745C2.974 9.64563 2.88721 9.43726 2.70538 9.36218C2.52356 9.28711 2.31519 9.3739 2.24011 9.55573L0.462524 13.8651C0.434692 13.9292 0.358704 14.1189 0.355225 14.131C0.125793 14.744 0 15.4074 0 16.0995C0 19.2052 2.52667 21.7319 5.63251 21.7319C8.73816 21.7319 11.2648 19.2052 11.2648 16.0995V15.8703H12.7352V16.0995C12.7352 19.2052 15.2618 21.7319 18.3675 21.7319C21.4733 21.7319 24 19.2052 24 16.0995C24 15.3966 23.8702 14.7235 23.6338 14.1024ZM7.229 4.00909C6.90674 4.00909 6.59143 4.04755 6.28766 4.11969L6.32227 4.03564C6.45374 3.71704 6.67474 3.44714 6.96075 3.25562C7.24786 3.0639 7.58167 2.96246 7.9259 2.96246C8.88245 2.96246 9.66083 3.74084 9.66083 4.69739V4.82648C8.98407 4.31396 8.1416 4.00909 7.229 4.00909ZM16.0741 2.96246C16.4183 2.96246 16.752 3.0639 17.0387 3.25525C17.3253 3.44714 17.5463 3.71704 17.6777 4.03564L17.7123 4.11969C17.4086 4.04736 17.0933 4.00909 16.7708 4.00909C15.8584 4.00909 15.0159 4.31396 14.3392 4.82648V4.69739C14.3392 3.74084 15.1174 2.96246 16.0741 2.96246ZM13.4478 8.04492C13.4478 6.2124 14.9385 4.72174 16.771 4.72174C18.1219 4.72174 19.3279 5.52869 19.843 6.77765L21.8701 11.6918C20.9079 10.9257 19.6902 10.467 18.3675 10.467C16.2556 10.467 14.4117 11.6358 13.4478 13.3601V8.04492ZM12.7352 9.02948V12.4499H11.2648V9.02948H12.7352ZM5.63251 21.0194C2.91962 21.0194 0.712646 18.8124 0.712646 16.0995C0.712646 13.3867 2.91962 11.1797 5.63251 11.1797C8.34521 11.1797 10.5522 13.3867 10.5522 16.0995C10.5522 18.8124 8.34521 21.0194 5.63251 21.0194ZM11.2648 15.1577V13.1624H12.7352V15.1577H11.2648ZM18.3675 21.0194C15.6548 21.0194 13.4478 18.8124 13.4478 16.0995C13.4478 13.3867 15.6548 11.1797 18.3675 11.1797C21.0804 11.1797 23.2874 13.3867 23.2874 16.0995C23.2874 18.8124 21.0804 21.0194 18.3675 21.0194Z" fill="#B41529"/>
<path d="M21.135 13.5725C20.9777 13.6908 20.9464 13.9142 21.0647 14.0715C21.3386 14.4351 21.5323 14.842 21.6407 15.2743C21.4646 15.9796 21.0583 16.6185 20.489 17.0795C19.8915 17.5637 19.1381 17.8303 18.3674 17.8303C17.5969 17.8303 16.8432 17.5637 16.2455 17.0795C15.6772 16.6192 15.2711 15.9816 15.0945 15.2776C15.4626 13.8129 16.7901 12.7251 18.3674 12.7251C19.0436 12.7251 19.696 12.9243 20.2537 13.3011C20.4169 13.4114 20.6384 13.3685 20.7485 13.2054C20.8587 13.0422 20.8159 12.8209 20.6527 12.7106C19.9767 12.254 19.1864 12.0125 18.3674 12.0125C16.1137 12.0125 14.2803 13.8459 14.2803 16.0995C14.2803 18.3532 16.1137 20.1866 18.3674 20.1866C20.621 20.1866 22.4545 18.3532 22.4545 16.0995C22.4545 15.2051 22.1707 14.3555 21.6338 13.6428C21.5157 13.4855 21.2923 13.454 21.135 13.5725ZM18.3674 19.474C16.7804 19.474 15.4465 18.3724 15.0883 16.8939C15.2917 17.1674 15.5296 17.4166 15.7971 17.6332C16.5213 18.2199 17.4341 18.5429 18.3676 18.5429C19.3008 18.5429 20.2136 18.2199 20.9378 17.6332C21.2053 17.4164 21.4434 17.1672 21.6468 16.8933C21.2886 18.3723 19.9547 19.474 18.3674 19.474Z" fill="#B41529"/>
</g>
<defs>
<clipPath id="clip0">
<rect width="24" height="24" fill="white"/>
</clipPath>
</defs>
</svg>
