<svg width="21" height="20" viewBox="0 0 21 20" fill="none" xmlns="http://www.w3.org/2000/svg">
<path d="M0.75 4.1875H20.25C20.6642 4.1875 21 3.85173 21 3.4375V1.5625C21 1.14827 20.6642 0.8125 20.25 0.8125H0.75C0.335766 0.8125 0 1.14827 0 1.5625V3.4375C0 3.85173 0.335766 4.1875 0.75 4.1875ZM0.75 11.6875H20.25C20.6642 11.6875 21 11.3517 21 10.9375V9.0625C21 8.64827 20.6642 8.3125 20.25 8.3125H0.75C0.335766 8.3125 0 8.64827 0 9.0625V10.9375C0 11.3517 0.335766 11.6875 0.75 11.6875ZM0.75 19.1875H20.25C20.6642 19.1875 21 18.8517 21 18.4375V16.5625C21 16.1483 20.6642 15.8125 20.25 15.8125H0.75C0.335766 15.8125 0 16.1483 0 16.5625V18.4375C0 18.8517 0.335766 19.1875 0.75 19.1875Z" fill="#4F4F4F"/>
</svg>
