<svg width="17" height="17" viewBox="0 0 17 17" fill="none" xmlns="http://www.w3.org/2000/svg">
<g clip-path="url(#clip0)">
<path d="M7.26933 9.00757H0.723108C0.326789 9.00757 0 9.33436 0 9.73068V16.2769C0 16.6732 0.326789 17 0.723108 17H7.26933C7.66565 17 7.95767 16.6732 7.99243 16.2769V9.73068C7.99243 9.33088 7.66912 9.00757 7.26933 9.00757ZM6.54622 15.5885H1.41145V10.4538H6.54622V15.5885Z" fill="#B41529"/>
<path d="M7.26933 0H0.723108C0.326789 0 0 0.326789 0 0.723108V7.23456C0 7.63088 0.326789 7.95767 0.723108 7.95767H7.26933C7.66565 7.95767 7.95767 7.66912 7.99243 7.26932V0.723108C7.99243 0.326789 7.66912 0 7.26933 0ZM6.54622 6.54622H1.41145V1.41145H6.54622V6.54622Z" fill="#B41529"/>
<path d="M16.2766 0H9.73043C9.33411 0 9.00732 0.326789 9.00732 0.723108V7.23456C9.00732 7.63088 9.33411 7.95767 9.73043 7.95767H16.2766C16.6729 7.95767 16.9997 7.66912 16.9997 7.26932V0.723108C16.9997 0.326789 16.6729 0 16.2766 0ZM15.5883 6.54622H10.4535V1.41145H15.5883V6.54622Z" fill="#B41529"/>
<path d="M16.2766 9.00757H9.73043C9.33411 9.00757 9.00732 9.33436 9.00732 9.73068V16.2769C9.00732 16.6732 9.33411 17 9.73043 17H16.2766C16.6729 17 16.9997 16.6732 16.9997 16.2769V9.73068C16.9997 9.33088 16.6729 9.00757 16.2766 9.00757ZM15.5883 15.5885H10.4535V10.4538H15.5883V15.5885Z" fill="#B41529"/>
</g>
<defs>
<clipPath id="clip0">
<rect width="17" height="17" fill="white"/>
</clipPath>
</defs>
</svg>
