<svg width="24" height="24" viewBox="0 0 24 24" fill="none" xmlns="http://www.w3.org/2000/svg">
<path d="M22.8479 14.7984L20.8511 13.6453C21.0526 12.5578 21.0526 11.4422 20.8511 10.3547L22.8479 9.20156C23.0776 9.07031 23.1808 8.79843 23.1058 8.54531C22.5854 6.87656 21.6995 5.36718 20.5417 4.11093C20.3636 3.91874 20.0729 3.87187 19.8479 4.00312L17.8511 5.15624C17.012 4.43437 16.0464 3.87656 15.0011 3.51093V1.20937C15.0011 0.94687 14.8183 0.717183 14.5604 0.660933C12.8401 0.276558 11.0776 0.295308 9.44169 0.660933C9.18388 0.717183 9.00107 0.94687 9.00107 1.20937V3.51562C7.96044 3.88593 6.99482 4.44374 6.15107 5.16093L4.15888 4.00781C3.92919 3.87656 3.64326 3.91875 3.46513 4.11562C2.30732 5.36718 1.42138 6.87656 0.901068 8.54999C0.821381 8.80312 0.929193 9.07499 1.15888 9.20624L3.15576 10.3594C2.95419 11.4469 2.95419 12.5625 3.15576 13.65L1.15888 14.8031C0.929193 14.9344 0.826068 15.2062 0.901068 15.4594C1.42138 17.1281 2.30732 18.6375 3.46513 19.8937C3.64326 20.0859 3.93388 20.1328 4.15888 20.0016L6.15576 18.8484C6.99482 19.5703 7.96044 20.1281 9.00576 20.4937V22.8C9.00576 23.0625 9.18857 23.2922 9.44638 23.3484C11.1667 23.7328 12.9292 23.7141 14.5651 23.3484C14.8229 23.2922 15.0058 23.0625 15.0058 22.8V20.4937C16.0464 20.1234 17.012 19.5656 17.8558 18.8484L19.8526 20.0016C20.0823 20.1328 20.3683 20.0906 20.5464 19.8937C21.7042 18.6422 22.5901 17.1328 23.1104 15.4594C23.1808 15.2016 23.0776 14.9297 22.8479 14.7984ZM12.0011 15.75C9.93388 15.75 8.25107 14.0672 8.25107 12C8.25107 9.93281 9.93388 8.24999 12.0011 8.24999C14.0683 8.24999 15.7511 9.93281 15.7511 12C15.7511 14.0672 14.0683 15.75 12.0011 15.75Z" fill="#4F4F4F"/>
</svg>
