<svg width="17" height="18" viewBox="0 0 17 18" fill="none" xmlns="http://www.w3.org/2000/svg">
<path d="M11.3775 9L16.0683 4.30922C16.6439 3.73359 16.6439 2.80031 16.0683 2.22422L15.0258 1.18172C14.4502 0.606094 13.5169 0.606094 12.9408 1.18172L8.25 5.8725L3.55922 1.18172C2.98359 0.606094 2.05031 0.606094 1.47422 1.18172L0.431719 2.22422C-0.143906 2.79984 -0.143906 3.73312 0.431719 4.30922L5.1225 9L0.431719 13.6908C-0.143906 14.2664 -0.143906 15.1997 0.431719 15.7758L1.47422 16.8183C2.04984 17.3939 2.98359 17.3939 3.55922 16.8183L8.25 12.1275L12.9408 16.8183C13.5164 17.3939 14.4502 17.3939 15.0258 16.8183L16.0683 15.7758C16.6439 15.2002 16.6439 14.2669 16.0683 13.6908L11.3775 9Z" fill="#F2F2F2"/>
</svg>
