<svg width="100" height="80" viewBox="0 0 100 80" fill="none" xmlns="http://www.w3.org/2000/svg">
<path d="M95 0H25C23.6739 0 22.4021 0.526784 21.4645 1.46447C20.5268 2.40215 20 3.67392 20 5V20H45V10H75V60H95C96.3261 60 97.5979 59.4732 98.5355 58.5355C99.4732 57.5979 100 56.3261 100 55V5C100 3.67392 99.4732 2.40215 98.5355 1.46447C97.5979 0.526784 96.3261 0 95 0V0ZM36.25 16.0938C36.25 16.4667 36.1018 16.8244 35.8381 17.0881C35.5744 17.3518 35.2167 17.5 34.8438 17.5H30.1562C29.7833 17.5 29.4256 17.3518 29.1619 17.0881C28.8982 16.8244 28.75 16.4667 28.75 16.0938V11.4062C28.75 11.0333 28.8982 10.6756 29.1619 10.4119C29.4256 10.1482 29.7833 10 30.1562 10H34.8438C35.2167 10 35.5744 10.1482 35.8381 10.4119C36.1018 10.6756 36.25 11.0333 36.25 11.4062V16.0938ZM91.25 48.5938C91.25 48.9667 91.1018 49.3244 90.8381 49.5881C90.5744 49.8518 90.2167 50 89.8438 50H85.1562C84.7833 50 84.4256 49.8518 84.1619 49.5881C83.8982 49.3244 83.75 48.9667 83.75 48.5938V43.9062C83.75 43.5333 83.8982 43.1756 84.1619 42.9119C84.4256 42.6482 84.7833 42.5 85.1562 42.5H89.8438C90.2167 42.5 90.5744 42.6482 90.8381 42.9119C91.1018 43.1756 91.25 43.5333 91.25 43.9062V48.5938ZM91.25 32.3438C91.25 32.7167 91.1018 33.0744 90.8381 33.3381C90.5744 33.6018 90.2167 33.75 89.8438 33.75H85.1562C84.7833 33.75 84.4256 33.6018 84.1619 33.3381C83.8982 33.0744 83.75 32.7167 83.75 32.3438V27.6562C83.75 27.2833 83.8982 26.9256 84.1619 26.6619C84.4256 26.3982 84.7833 26.25 85.1562 26.25H89.8438C90.2167 26.25 90.5744 26.3982 90.8381 26.6619C91.1018 26.9256 91.25 27.2833 91.25 27.6562V32.3438ZM91.25 16.0938C91.25 16.4667 91.1018 16.8244 90.8381 17.0881C90.5744 17.3518 90.2167 17.5 89.8438 17.5H85.1562C84.7833 17.5 84.4256 17.3518 84.1619 17.0881C83.8982 16.8244 83.75 16.4667 83.75 16.0938V11.4062C83.75 11.0333 83.8982 10.6756 84.1619 10.4119C84.4256 10.1482 84.7833 10 85.1562 10H89.8438C90.2167 10 90.5744 10.1482 90.8381 10.4119C91.1018 10.6756 91.25 11.0333 91.25 11.4062V16.0938ZM65 25H5C3.67392 25 2.40215 25.5268 1.46447 26.4645C0.526784 27.4021 0 28.6739 0 30L0 75C0 76.3261 0.526784 77.5979 1.46447 78.5355C2.40215 79.4732 3.67392 80 5 80H65C66.3261 80 67.5979 79.4732 68.5355 78.5355C69.4732 77.5979 70 76.3261 70 75V30C70 28.6739 69.4732 27.4021 68.5355 26.4645C67.5979 25.5268 66.3261 25 65 25ZM15 35C15.9889 35 16.9556 35.2932 17.7779 35.8427C18.6001 36.3921 19.241 37.173 19.6194 38.0866C19.9978 39.0002 20.0969 40.0055 19.9039 40.9755C19.711 41.9454 19.2348 42.8363 18.5355 43.5355C17.8363 44.2348 16.9454 44.711 15.9755 44.9039C15.0055 45.0969 14.0002 44.9978 13.0866 44.6194C12.173 44.241 11.3921 43.6001 10.8427 42.7779C10.2932 41.9556 10 40.9889 10 40C10 38.6739 10.5268 37.4021 11.4645 36.4645C12.4021 35.5268 13.6739 35 15 35ZM60 70H10V65L20 55L25 60L45 40L60 55V70Z" fill="#E0E0E0"/>
</svg>
