<svg width="50" height="36" viewBox="0 0 50 36" fill="none" xmlns="http://www.w3.org/2000/svg">
<path d="M33.6148 19.027L29.3587 17.1354C29.0581 17.0018 28.8639 16.7028 28.8639 16.3739V15.2052C30.2936 14.066 31.2126 12.3118 31.2126 10.346V8.70079C31.6835 8.44054 31.9954 7.93761 31.9954 7.37433V7.21466C31.9954 3.78926 29.2085 1.00244 25.7831 1.00244H24.2175C20.7921 1.00244 18.0053 3.78926 18.0053 7.21466V8.66339C18.0053 9.15851 18.2184 9.60704 18.5898 9.89406C18.6528 9.94269 18.7191 9.98546 18.7881 10.0225V10.3459C18.7881 12.3117 19.707 14.0659 21.1366 15.205V16.3738C21.1366 16.7027 20.9423 17.0017 20.6417 17.1353L16.3857 19.0269C14.9918 19.6463 14.0911 21.0322 14.0911 22.5575V32.265C14.0911 32.6695 14.4191 32.9974 14.8236 32.9974C15.228 32.9974 15.556 32.6695 15.556 32.265V22.5576C15.556 22.4728 15.562 22.3889 15.5708 22.3057L17.532 24.2668C17.8371 24.5721 18.0053 24.9779 18.0053 25.4096V32.2651C18.0053 32.6696 18.3332 32.9975 18.7377 32.9975C19.1422 32.9975 19.4701 32.6696 19.4701 32.2651V25.4096C19.4701 24.5866 19.1497 23.813 18.5678 23.2311L16.2298 20.893C16.4405 20.6744 16.6932 20.4933 16.9807 20.3654L21.165 18.5058L24.268 21.6088V32.265C24.268 32.6695 24.5959 32.9974 25.0004 32.9974C25.4049 32.9974 25.7329 32.6695 25.7329 32.265V21.6089L28.8359 18.5059L33.0201 20.3654C33.3076 20.4933 33.5603 20.6744 33.771 20.8931L31.433 23.2311C30.851 23.813 30.5306 24.5866 30.5306 25.4096V32.2651C30.5306 32.6696 30.8585 32.9975 31.263 32.9975C31.6675 32.9975 31.9955 32.6696 31.9955 32.2651V25.4096C31.9955 24.978 32.1635 24.5721 32.4688 24.2668L34.4298 22.3058C34.4386 22.389 34.4447 22.4727 34.4447 22.5575V32.265C34.4447 32.6695 34.7726 32.9974 35.1771 32.9974C35.5816 32.9974 35.9095 32.6695 35.9095 32.265V22.5576C35.9092 21.0323 35.0087 19.6464 33.6148 19.027ZM25.0001 20.2697L22.2774 17.5469C22.4844 17.1985 22.6013 16.7955 22.6013 16.3739V16.0759C23.3399 16.3862 24.1503 16.5582 25.0002 16.5582C25.8501 16.5582 26.6605 16.3863 27.399 16.076V16.3739C27.399 16.7956 27.5159 17.1985 27.723 17.547L25.0001 20.2697ZM25.0002 15.0933C22.3826 15.0934 20.2529 12.9637 20.2529 10.346V10.0166C20.7099 9.83546 21.156 9.54718 21.583 9.15314C21.8802 8.87882 21.8989 8.41544 21.6244 8.11817C21.3501 7.82101 20.8868 7.80235 20.5895 8.07667C20.2232 8.41485 19.8572 8.63331 19.5019 8.72609C19.4933 8.72833 19.4869 8.72931 19.4825 8.7297C19.4772 8.71945 19.47 8.69796 19.47 8.66349V7.21476C19.47 4.59708 21.5997 2.46738 24.2174 2.46738H25.783C28.4008 2.46738 30.5304 4.59708 30.5304 7.21476V7.37442C30.5304 7.39815 30.5162 7.41876 30.4974 7.42247C26.1116 8.28868 23.9118 6.65616 23.1696 5.91397C22.8835 5.62794 22.4198 5.62794 22.1338 5.91397C21.8478 6.20001 21.8478 6.66378 22.1338 6.94972C24.4082 9.22413 27.7271 9.26515 29.7476 9.02238V10.3459C29.7476 12.9636 27.6179 15.0933 25.0002 15.0933Z" fill="#4F4F4F"/>
<path d="M13.2073 15.0431V13.4772C13.2073 11.5664 12.2143 9.88438 10.7181 8.91641C10.8105 8.62003 10.8587 8.30958 10.8587 7.99737C10.8587 6.29854 9.47668 4.9165 7.77785 4.9165C6.07902 4.9165 4.69698 6.29864 4.69698 7.99737C4.69698 8.31348 4.74483 8.62091 4.83741 8.91661C3.34132 9.88448 2.34844 11.5665 2.34844 13.4772V15.0428C2.34844 16.8931 3.2794 18.5292 4.69688 19.5099V21.1205C4.69688 21.4382 4.52042 21.7238 4.23634 21.8659L1.70303 23.1325C0.65254 23.6578 0 24.7137 0 25.8882V32.2651C0 32.6696 0.32793 32.9975 0.732423 32.9975C1.13692 32.9975 1.46485 32.6696 1.46485 32.2651V26.205L2.65801 27.3982C2.96319 27.7035 3.13135 28.1092 3.13135 28.541V32.2651C3.13135 32.6696 3.45928 32.9975 3.86378 32.9975C4.26827 32.9975 4.5962 32.6696 4.5962 32.2651V28.541C4.5962 27.718 4.27569 26.9444 3.69385 26.3624L2.03321 24.7018C2.0252 24.6938 2.01661 24.6869 2.0084 24.6793C2.1126 24.5873 2.2295 24.5073 2.35821 24.4428L4.89151 23.1762C5.0213 23.1113 5.1421 23.0346 5.2547 22.9494L7.04542 24.7403V32.2652C7.04542 32.6697 7.37335 32.9976 7.77785 32.9976C8.18234 32.9976 8.51027 32.6697 8.51027 32.2652V24.7402L10.3011 22.9494C10.4138 23.0346 10.5345 23.1113 10.6643 23.1761L11.3628 23.5254C11.468 23.5781 11.5797 23.603 11.6899 23.603C11.9585 23.603 12.2172 23.4545 12.3455 23.198C12.5265 22.8362 12.3798 22.3962 12.018 22.2154L11.3195 21.866C11.0353 21.724 10.8588 21.4384 10.8588 21.1208V19.5102C12.2763 18.5295 13.2073 16.8933 13.2073 15.0431ZM7.77785 6.38135C8.66896 6.38135 9.39387 7.10635 9.39387 7.99737C9.39387 8.09551 9.38508 8.19171 9.36828 8.28594C8.86496 8.13145 8.33107 8.04776 7.77785 8.04776C7.2254 8.04776 6.6922 8.13116 6.18966 8.28526C6.17277 8.19102 6.16183 8.09532 6.16183 7.99737C6.16183 7.10625 6.88673 6.38135 7.77785 6.38135ZM7.77785 9.5127C9.96389 9.5127 11.7424 11.2912 11.7424 13.4773V13.7427C8.69308 14.6763 6.87579 12.3567 6.79816 12.255C6.67072 12.0852 6.47589 11.9789 6.26417 11.9639C6.05245 11.949 5.84444 12.0265 5.69435 12.1766C4.99522 12.8757 4.31046 13.2129 3.81593 13.3757C3.87012 11.2364 5.62589 9.5127 7.77785 9.5127ZM7.77785 23.4009L6.08536 21.7084C6.13478 21.5196 6.16183 21.3227 6.16183 21.1206V20.2266C6.67247 20.3862 7.21535 20.4722 7.77785 20.4722C8.34035 20.4722 8.88322 20.3862 9.39387 20.2266V21.1206C9.39387 21.3227 9.42092 21.5197 9.47033 21.7084L7.77785 23.4009ZM7.77785 19.0073C5.59181 19.0073 3.81329 17.2288 3.81329 15.0428V14.891C4.39737 14.7569 5.26339 14.445 6.16681 13.7185C6.48644 14.02 6.94327 14.39 7.52501 14.7072C8.2131 15.0825 9.1634 15.4297 10.3241 15.4297C10.7653 15.4297 11.2372 15.3784 11.7362 15.2607C11.6226 17.3458 9.89074 19.0073 7.77785 19.0073Z" fill="#4F4F4F"/>
<path d="M48.297 21.5671L44.1981 19.5176C43.914 19.3755 43.7375 19.0899 43.7375 18.7724V17.7344C44.697 16.8825 45.3032 15.6411 45.3032 14.2602V13.4266C45.3201 13.4266 45.3367 13.427 45.3535 13.427C45.758 13.427 46.086 13.0991 46.086 12.6946V11.129C46.086 8.5669 44.0015 6.48242 41.4394 6.48242H39.8738C37.3116 6.48242 35.2272 8.5669 35.2272 11.129V12.6946C35.2272 13.0991 35.5551 13.427 35.9596 13.427C35.9656 13.427 35.9832 13.4268 36.01 13.4258V14.2602C36.01 15.6412 36.6162 16.8826 37.5757 17.7345V18.7725C37.5757 19.0901 37.3992 19.3757 37.1151 19.5177C36.7532 19.6985 36.6066 20.1385 36.7875 20.5003C36.9158 20.7569 37.1745 20.9054 37.4432 20.9054C37.5532 20.9054 37.665 20.8805 37.7701 20.8279C37.8999 20.763 38.0207 20.6863 38.1333 20.6012L39.9241 22.392V32.2654C39.9241 32.6699 40.2521 32.9978 40.6566 32.9978C41.0611 32.9978 41.389 32.6699 41.389 32.2654V22.3918L43.1797 20.601C43.2924 20.6862 43.4131 20.7629 43.5429 20.8277L47.5092 22.8109L46.3062 24.014C45.7243 24.5959 45.4038 25.3695 45.4038 26.1925V32.2652C45.4038 32.6697 45.7318 32.9976 46.1363 32.9976C46.5408 32.9976 46.8687 32.6697 46.8687 32.2652V26.1925C46.8687 25.7609 47.0368 25.355 47.342 25.0497L48.4816 23.9102C48.5162 24.0427 48.5351 24.1809 48.5351 24.3227V32.2652C48.5351 32.6697 48.863 32.9976 49.2675 32.9976C49.672 32.9976 49.9999 32.6697 49.9999 32.2652V24.3227C50 23.1483 49.3475 22.0924 48.297 21.5671ZM36.6919 11.8115V11.1289H36.692C36.692 9.37452 38.1194 7.94717 39.8738 7.94717H41.4394C43.1938 7.94717 44.6211 9.37452 44.6211 11.1289V11.9425C41.4372 11.7707 39.5158 10.5317 39.4972 10.5195C39.3733 10.4369 39.2319 10.3965 39.0911 10.3965C38.9021 10.3965 38.7146 10.4695 38.573 10.611C37.8722 11.3118 37.1856 11.6491 36.6919 11.8115ZM40.6566 21.0526L38.9641 19.3602C39.0135 19.1713 39.0405 18.9744 39.0405 18.7724V18.6164C39.5441 18.8038 40.0885 18.9067 40.6566 18.9067C41.2246 18.9067 41.7691 18.8038 42.2726 18.6164V18.7724C42.2726 18.9744 42.2995 19.1713 42.3491 19.3602L40.6566 21.0526ZM40.6566 17.442C38.9022 17.442 37.4748 16.0147 37.4748 14.2602V13.0795C37.9878 12.8745 38.5855 12.5486 39.1937 12.0305C39.9628 12.4307 41.572 13.1224 43.8383 13.3509V14.2602C43.8383 16.0146 42.411 17.442 40.6566 17.442Z" fill="#4F4F4F"/>
</svg>
