<svg width="36" height="36" viewBox="0 0 36 36" fill="none" xmlns="http://www.w3.org/2000/svg">
<path d="M8.70863 5.03708H7.42922C7.62166 3.61233 8.40945 3.54076 8.77198 3.50778C9.13416 3.4748 9.4114 3.17119 9.4114 2.80754V0.703435C9.4114 0.510146 9.3318 0.325294 9.19132 0.192474C9.05084 0.0596537 8.8617 -0.00918225 8.66883 0.00143494C6.44625 0.126451 3.79688 1.24864 3.79688 5.8849V9.54397C3.79688 10.1548 4.29377 10.6517 4.90458 10.6517H8.7087C9.3195 10.6517 9.8164 10.1547 9.81633 9.5439V6.14478C9.81633 5.53397 9.31943 5.03708 8.70863 5.03708ZM8.41015 9.24535H5.20312V5.8849C5.20312 2.64983 6.64179 1.74631 8.00515 1.49129V2.23055C7.06359 2.51715 5.97994 3.36357 5.97994 5.7402C5.97994 6.12854 6.29473 6.44333 6.68306 6.44333H8.41015V9.24535Z" fill="#4F4F4F"/>
<path d="M15.897 5.03708H14.6176C14.81 3.61233 15.5978 3.54076 15.9603 3.50778C16.3225 3.4748 16.5998 3.17119 16.5998 2.80754V0.703435C16.5998 0.510146 16.5202 0.325294 16.3797 0.192474C16.2392 0.0596537 16.0499 -0.00918225 15.8572 0.00143494C13.6346 0.126451 10.9852 1.24864 10.9852 5.8849V9.54397C10.9852 10.1548 11.4821 10.6517 12.0929 10.6517H15.897C16.5079 10.6517 17.0048 10.1547 17.0048 9.54383V6.14478C17.0048 5.53397 16.5079 5.03708 15.897 5.03708ZM15.5985 9.24542H12.3915V5.8849C12.3915 2.64983 13.8301 1.74631 15.1935 1.49129V2.23055C14.2519 2.51715 13.1683 3.36357 13.1683 5.7402C13.1683 6.12854 13.4831 6.44333 13.8714 6.44333H15.5985V9.24542Z" fill="#4F4F4F"/>
<path d="M20.044 5.68087C19.9132 5.55009 19.7318 5.47485 19.5469 5.47485C19.362 5.47485 19.1805 5.55009 19.0498 5.68087C18.919 5.81165 18.8438 5.99306 18.8438 6.17798C18.8438 6.3629 18.919 6.54431 19.0498 6.67509C19.1805 6.80587 19.362 6.8811 19.5469 6.8811C19.7318 6.8811 19.9132 6.80587 20.044 6.67509C20.1748 6.54431 20.25 6.3629 20.25 6.17798C20.25 5.99306 20.1748 5.81165 20.044 5.68087Z" fill="#4F4F4F"/>
<path d="M23.5031 5.47485H22.6171C22.2288 5.47485 21.914 5.78964 21.914 6.17798C21.914 6.56631 22.2288 6.8811 22.6171 6.8811H23.5031C29.6185 6.8811 34.5938 11.8563 34.5938 17.9717C34.5938 23.1911 30.8919 27.7558 25.7915 28.8255C25.4659 28.8938 25.2328 29.181 25.2328 29.5136V33.5991L20.9019 29.2683C20.7701 29.1364 20.5912 29.0623 20.4048 29.0623H12.4969C6.38149 29.0623 1.40625 24.0871 1.40625 17.9717C1.40625 16.087 1.8874 14.2259 2.79773 12.5894C2.98659 12.2501 2.86446 11.822 2.52513 11.6332C2.18573 11.4443 1.7576 11.5664 1.56888 11.9058C0.542461 13.7507 0 15.8483 0 17.9717C0 24.8625 5.60602 30.4686 12.4969 30.4686H20.1135L25.4387 35.7937C25.5732 35.9283 25.753 35.9997 25.936 35.9997C26.0266 35.9997 26.118 35.9822 26.205 35.9461C26.4677 35.8373 26.639 35.581 26.639 35.2966V30.0709C29.1831 29.4116 31.4835 27.9447 33.1645 25.8983C34.993 23.6724 36 20.8574 36 17.9717C36 11.0809 30.394 5.47492 23.5031 5.47485Z" fill="#4F4F4F"/>
<path d="M26.6529 12.4799H9.34711C8.95877 12.4799 8.64398 12.7946 8.64398 13.183C8.64398 13.5713 8.95877 13.8861 9.34711 13.8861H26.6528C27.0412 13.8861 27.356 13.5713 27.356 13.183C27.356 12.7946 27.0413 12.4799 26.6529 12.4799Z" fill="#4F4F4F"/>
<path d="M26.6529 16.2299H9.34711C8.95877 16.2299 8.64398 16.5446 8.64398 16.933C8.64398 17.3213 8.95877 17.6361 9.34711 17.6361H26.6528C27.0412 17.6361 27.356 17.3213 27.356 16.933C27.356 16.5446 27.0413 16.2299 26.6529 16.2299Z" fill="#4F4F4F"/>
<path d="M26.6529 19.9799H9.34711C8.95877 19.9799 8.64398 20.2947 8.64398 20.683C8.64398 21.0712 8.95877 21.3861 9.34711 21.3861H26.6528C27.0412 21.3861 27.356 21.0712 27.356 20.683C27.356 20.2947 27.0413 19.9799 26.6529 19.9799Z" fill="#4F4F4F"/>
<path d="M26.6529 23.7299H17.4285C17.0401 23.7299 16.7253 24.0447 16.7253 24.433C16.7253 24.8212 17.0401 25.1361 17.4285 25.1361H26.6529C27.0412 25.1361 27.356 24.8212 27.356 24.433C27.356 24.0447 27.0412 23.7299 26.6529 23.7299Z" fill="#4F4F4F"/>
<path d="M13.4724 23.7299H13.4611C13.0727 23.7299 12.7579 24.0447 12.7579 24.433C12.7579 24.8212 13.0727 25.1361 13.4611 25.1361H13.4724C13.8607 25.1361 14.1755 24.8212 14.1755 24.433C14.1755 24.0447 13.8607 23.7299 13.4724 23.7299Z" fill="#4F4F4F"/>
</svg>
