<svg width="65" height="36" viewBox="0 0 65 36" fill="none" xmlns="http://www.w3.org/2000/svg">
<g clip-path="url(#clip0)">
<path d="M42.3621 24.8491C42.1326 24.3054 42.246 23.6769 42.6508 23.2476L47.1162 18.5141C47.9531 17.6268 48.2471 16.3987 47.9025 15.2289C47.558 14.059 46.6455 13.1862 45.4615 12.894L39.0259 11.306C38.58 11.1959 38.2156 10.893 38.0261 10.4748L35.5286 4.96378C34.9718 3.73526 33.7881 2.97217 32.4394 2.97217C31.0907 2.97217 29.9069 3.73538 29.3503 4.96378L26.8528 10.4747C26.6632 10.893 26.2988 11.1959 25.8531 11.306L19.4173 12.894C18.2333 13.1862 17.3207 14.0591 16.9763 15.2289C16.6318 16.3987 16.9258 17.6268 17.7627 18.5141L22.228 23.2476C22.6329 23.6769 22.7462 24.3054 22.5166 24.849L20.6328 29.3097C20.0958 30.5813 20.3572 31.9888 21.3151 32.9827C21.9738 33.6663 22.84 34.0279 23.7364 34.0277C24.1435 34.0277 24.5571 33.9532 24.9601 33.8002L25.6337 33.5448C26.1248 33.3585 26.372 32.8093 26.1858 32.3182C25.9997 31.827 25.4504 31.5797 24.9592 31.766L24.2855 32.0215C23.71 32.2395 23.1119 32.1055 22.6849 31.6625C22.2579 31.2195 22.1459 30.6166 22.3852 30.0497L24.2691 25.5889C24.7918 24.3511 24.5337 22.9196 23.6117 21.9421L19.1465 17.2086C18.7791 16.819 18.6498 16.2797 18.8011 15.766C18.9524 15.2522 19.3532 14.869 19.873 14.7406L26.3089 13.1527C27.3239 12.902 28.1537 12.2122 28.5853 11.2599L31.0828 5.74881C31.331 5.20132 31.8382 4.87425 32.4393 4.87425C33.0405 4.87425 33.5476 5.20119 33.7958 5.74881L36.2933 11.26C36.7249 12.2122 37.5547 12.9021 38.5699 13.1527L45.0056 14.7406C45.5256 14.869 45.9263 15.2522 46.0775 15.766C46.2287 16.2797 46.0997 16.819 45.732 17.2086L41.2666 21.9422C40.3446 22.9196 40.0867 24.3509 40.6093 25.589L42.4931 30.0497C42.7326 30.6166 42.6206 31.2195 42.1936 31.6625C41.7667 32.1057 41.1681 32.2399 40.593 32.0214L33.6421 29.3844C32.8663 29.0902 32.0119 29.0902 31.236 29.3844L28.7582 30.3244C28.267 30.5108 28.0199 31.06 28.2062 31.5511C28.3925 32.0422 28.9417 32.2895 29.4329 32.1032L31.9106 31.1632C32.2512 31.0338 32.6266 31.0338 32.9674 31.1632L39.918 33.8001C41.2086 34.29 42.6052 33.9766 43.5634 32.9827C44.5213 31.9887 44.7825 30.5812 44.2456 29.3097L42.3621 24.8491Z" fill="#4F4F4F"/>
<path d="M16.5342 20.1761L12.9339 19.2877C12.8099 19.2571 12.7087 19.1729 12.656 19.0566L11.2588 15.9736C10.8785 15.1345 10.07 14.6133 9.14894 14.6133C8.22783 14.6133 7.41934 15.1344 7.03913 15.9736L5.64193 19.0566C5.58917 19.1729 5.48797 19.2571 5.36393 19.2877L1.76358 20.1761C0.954963 20.3755 0.331633 20.9716 0.0963774 21.7707C-0.138877 22.5698 0.0620086 23.4086 0.633469 24.0145L3.13136 26.6625C3.24398 26.7818 3.27555 26.9566 3.21164 27.1078L2.15787 29.6032C1.7911 30.4719 1.96967 31.433 2.62382 32.1118C3.07365 32.5786 3.66528 32.8255 4.27758 32.8255C4.5557 32.8255 4.83813 32.7747 5.11333 32.6702L9.0017 31.195L9.00183 31.1949C9.09644 31.159 9.20068 31.1589 9.29555 31.195L13.1839 32.6702C14.0652 33.0042 15.0193 32.7905 15.6736 32.1118C16.3277 31.4329 16.5063 30.4716 16.1395 29.6032L15.0856 27.1079C15.0218 26.9567 15.0534 26.7818 15.1659 26.6625L17.664 24.0145C18.2355 23.4085 18.4364 22.5696 18.201 21.7707C17.9661 20.9716 17.3428 20.3755 16.5342 20.1761ZM16.2805 22.7091L13.7824 25.3572C13.1528 26.0248 12.9766 27.0025 13.3336 27.8479L14.3875 30.3434C14.4799 30.5624 14.3749 30.7183 14.3041 30.7917C14.2332 30.8651 14.0814 30.976 13.859 30.8915L9.97062 29.4164C9.70569 29.3159 9.42731 29.2657 9.14894 29.2657C8.87056 29.2657 8.59206 29.3159 8.32726 29.4164L8.32739 29.4163L4.43889 30.8915C4.21695 30.9761 4.06477 30.8653 3.99387 30.7917C3.92311 30.7183 3.8181 30.5623 3.91055 30.3434L4.96432 27.8479C5.32132 27.0025 5.14516 26.0248 4.51537 25.3571L2.01735 22.7091C1.87531 22.5585 1.89624 22.3932 1.92135 22.3079C1.94646 22.2227 2.01849 22.0726 2.21938 22.0228L5.81973 21.1345C6.51307 20.9634 7.07984 20.4922 7.37457 19.8418L8.77177 16.7587C8.86765 16.5472 9.04926 16.5156 9.14894 16.5156C9.24862 16.5156 9.43023 16.5472 9.52611 16.7587L10.9233 19.8418C11.218 20.4922 11.7848 20.9635 12.4781 21.1345L16.0785 22.0228C16.2793 22.0726 16.3514 22.2227 16.3765 22.3079C16.4016 22.3932 16.4224 22.5587 16.2805 22.7091Z" fill="#4F4F4F"/>
<path d="M64.3718 24.0144C65.2055 23.1305 65.21 21.7393 64.3818 20.8466C64.0243 20.4616 63.4227 20.4391 63.0375 20.7964C62.6525 21.1536 62.6299 21.7555 62.9873 22.1407C63.1164 22.2798 63.1605 22.5261 62.9881 22.7089L60.4903 25.3569C59.8604 26.0245 59.6842 27.0022 60.0412 27.8477L61.0951 30.3432C61.1876 30.5622 61.0825 30.718 61.0119 30.7915C60.9413 30.8649 60.7895 30.976 60.5668 30.8913L56.6783 29.416C56.1485 29.2152 55.5651 29.215 55.0352 29.416L51.1468 30.8913C50.9246 30.9756 50.7725 30.8649 50.7016 30.7915C50.6307 30.718 50.5259 30.5621 50.6183 30.3432L51.6722 27.8477C52.0292 27.0023 51.8531 26.0246 51.2234 25.357L48.7251 22.7089C48.5831 22.5583 48.604 22.3931 48.629 22.3078C48.6541 22.2226 48.7263 22.0725 48.9271 22.0227L52.527 21.1344C53.2206 20.9634 53.7873 20.4923 54.0823 19.8415L55.4795 16.7585C55.5754 16.5469 55.757 16.5154 55.8568 16.5154C55.9566 16.5154 56.1381 16.5469 56.234 16.7585L57.6313 19.8415C57.9262 20.4924 58.4931 20.9635 59.1859 21.1342L59.4756 21.2058C59.9852 21.3321 60.5011 21.0205 60.6271 20.5105C60.7531 20.0006 60.4418 19.485 59.9319 19.359L59.6417 19.2873C59.5179 19.2569 59.4169 19.1727 59.3641 19.0564L57.9668 15.9733C57.5867 15.1344 56.7782 14.613 55.8571 14.613C55.857 14.613 55.857 14.613 55.857 14.613C54.9357 14.613 54.1272 15.1341 53.747 15.9733L52.3498 19.0564C52.2971 19.1727 52.1959 19.2569 52.0718 19.2874L48.4716 20.176C47.6629 20.3755 47.0396 20.9715 46.8044 21.7706C46.5693 22.5696 46.77 23.4084 47.3415 24.0142L49.8396 26.6624C49.9521 26.7816 49.9836 26.9564 49.9198 27.1075L48.8659 29.6032C48.4991 30.4716 48.6778 31.4328 49.332 32.1116C49.9862 32.7904 50.9402 33.0041 51.8216 32.67L55.7098 31.1946C55.8047 31.1588 55.9091 31.1588 56.0037 31.1946L59.8921 32.67C60.1674 32.7743 60.4497 32.8253 60.7278 32.8253C61.3401 32.8253 61.9317 32.5784 62.3817 32.1116C63.0359 31.4327 63.2143 30.4715 62.8477 29.603L61.7938 27.1075C61.73 26.9565 61.7614 26.7819 61.8742 26.6624L64.3718 24.0144Z" fill="#4F4F4F"/>
</g>
<defs>
<clipPath id="clip0">
<rect width="65" height="36" fill="white"/>
</clipPath>
</defs>
</svg>
