<svg width="36" height="36" viewBox="0 0 36 36" fill="none" xmlns="http://www.w3.org/2000/svg">
<path d="M34.8 18.042H34.3704C34.3554 17.979 34.3422 17.9166 34.326 17.8524C34.1061 17.0293 33.7621 16.2446 33.306 15.525C33.186 15.3192 33.0618 15.1008 32.9286 14.8566C31.7965 12.78 31.2023 10.4531 31.2 8.088V6.999C31.9325 6.6527 32.3997 5.91507 32.3997 5.1048C32.3997 4.29453 31.9325 3.5569 31.2 3.2106V1.2C31.2 0.537258 30.6627 0 30 0H27.6C26.9373 0 26.4 0.537258 26.4 1.2V3.2112C25.6614 3.54775 25.1908 4.28837 25.2 5.1C25.2018 5.91087 25.6683 6.64891 26.4 6.9984V8.088C26.399 9.26639 26.2521 10.4401 25.9626 11.5824C25.671 12.7235 25.2378 13.8236 24.6732 14.8572L24.456 15.2532C24.043 15.954 23.6936 16.6903 23.412 17.4534C23.1864 16.7771 22.8817 16.1298 22.5042 15.525C22.3842 15.3192 22.26 15.1008 22.1268 14.8566C20.9953 12.7799 20.4017 10.453 20.4 8.088V6.999C21.1325 6.6527 21.5997 5.91507 21.5997 5.1048C21.5997 4.29453 21.1325 3.5569 20.4 3.2106V1.2C20.4 0.537258 19.8627 0 19.2 0H16.8C16.1373 0 15.6 0.537258 15.6 1.2V3.2112C14.8614 3.54775 14.3908 4.28837 14.4 5.1C14.4018 5.91087 14.8683 6.64891 15.6 6.9984V8.088C15.599 9.26639 15.4521 10.4401 15.1626 11.5824C14.871 12.7235 14.4378 13.8236 13.8732 14.8572L13.656 15.2532C13.243 15.954 12.8936 16.6903 12.612 17.4534C12.3864 16.7771 12.0817 16.1298 11.7042 15.525C11.5842 15.3192 11.46 15.1008 11.3268 14.8566C10.1953 12.7799 9.60171 10.453 9.6 8.088V6.999C10.3325 6.6527 10.7997 5.91507 10.7997 5.1048C10.7997 4.29453 10.3325 3.5569 9.6 3.2106V1.2C9.6 0.537258 9.06274 0 8.4 0H6C5.33726 0 4.8 0.537258 4.8 1.2V3.2112C4.06137 3.54775 3.59084 4.28837 3.6 5.1C3.60179 5.91087 4.06831 6.64891 4.8 6.9984V8.088C4.79878 9.26558 4.65187 10.4385 4.3626 11.58C4.07099 12.7211 3.63783 13.8212 3.0732 14.8548L2.856 15.2508C2.32635 16.123 1.91457 17.0616 1.6314 18.042H1.2C0.537258 18.042 0 18.5793 0 19.242V24.042C0 24.7047 0.537258 25.242 1.2 25.242V28.8C0.537258 28.8 0 29.3373 0 30V34.8C0 35.4627 0.537258 36 1.2 36H34.8C35.4627 36 36 35.4627 36 34.8V30C36 29.3373 35.4627 28.8 34.8 28.8V25.242C35.4627 25.242 36 24.7047 36 24.042V19.242C36 18.5793 35.4627 18.042 34.8 18.042ZM30 1.2V3H27.6V1.2H30ZM26.6628 4.4622C26.8323 4.29413 27.0613 4.19987 27.3 4.2H30.3C30.7624 4.19954 31.1499 4.54951 31.1963 5.00955C31.2428 5.46959 30.9331 5.88999 30.48 5.982C30.4632 5.9856 30.4506 5.9952 30.4344 6H27.1656C27.1504 5.99312 27.1347 5.98711 27.1188 5.982C26.7936 5.916 26.5311 5.67644 26.4358 5.35863C26.3404 5.04081 26.4277 4.69631 26.6628 4.4622ZM25.5072 15.8316L25.7268 15.4314C26.3394 14.3093 26.8094 13.115 27.126 11.8764C27.4396 10.638 27.5988 9.36551 27.6 8.088V7.2H30V8.088C30.0021 10.6537 30.646 13.1782 31.8732 15.4314C32.0112 15.684 32.1408 15.9114 32.2644 16.1244C32.6431 16.7198 32.9347 17.3664 33.1302 18.0444H24.48C24.7427 17.2724 25.0871 16.5306 25.5072 15.8316ZM19.2 1.2V3H16.8V1.2H19.2ZM15.8628 4.4622C16.0323 4.29413 16.2613 4.19987 16.5 4.2H19.5C19.9624 4.19954 20.3499 4.54951 20.3963 5.00955C20.4428 5.46959 20.1331 5.88999 19.68 5.982C19.6632 5.9856 19.6506 5.9952 19.6344 6H16.3656C16.3504 5.99312 16.3347 5.98711 16.3188 5.982C15.9936 5.916 15.7311 5.67644 15.6358 5.35863C15.5404 5.04081 15.6277 4.69631 15.8628 4.4622ZM14.7072 15.8316L14.9268 15.4314C15.5394 14.3093 16.0094 13.115 16.326 11.8764C16.6396 10.638 16.7988 9.36551 16.8 8.088V7.2H19.2V8.088C19.2021 10.6537 19.846 13.1782 21.0732 15.4314C21.2112 15.684 21.3408 15.9114 21.4644 16.1244C21.8431 16.7198 22.1347 17.3664 22.3302 18.0444H13.68C13.9427 17.2724 14.2871 16.5306 14.7072 15.8316ZM8.4 1.2V3H6V1.2H8.4ZM5.0628 4.4622C5.23227 4.29413 5.46132 4.19987 5.7 4.2H8.7C9.16238 4.19954 9.54988 4.54951 9.59635 5.00955C9.64282 5.46959 9.33313 5.88999 8.88 5.982C8.8632 5.9856 8.8506 5.9952 8.8344 6H5.5656C5.55074 5.99316 5.53552 5.98715 5.52 5.982C5.19482 5.916 4.93233 5.67644 4.83697 5.35863C4.74162 5.04081 4.82886 4.69631 5.064 4.4622H5.0628ZM3.9072 15.8316L4.1268 15.4314C4.7394 14.3093 5.20944 13.115 5.526 11.8764C5.83958 10.638 5.99879 9.36551 6 8.088V7.2H8.4V8.088C8.4021 10.6537 9.04605 13.1782 10.2732 15.4314C10.4112 15.684 10.5408 15.9114 10.6644 16.1244C11.0431 16.7198 11.3347 17.3664 11.5302 18.0444H2.88C3.14275 17.2724 3.48709 16.5306 3.9072 15.8316ZM2.4 25.242H12V28.8H2.4V25.242ZM22.8 25.242V28.8H13.2V25.242H22.8ZM34.8 34.8H1.2V30H34.8V34.8ZM33.6 28.8H24V25.242H33.6V28.8ZM1.2 24.042V19.242H34.8V24.042H1.2Z" fill="#4F4F4F"/>
<path d="M3.00002 22.242C3.3314 22.242 3.60002 21.9734 3.60002 21.642C3.60002 21.3106 3.3314 21.042 3.00002 21.042C2.66865 21.042 2.40002 21.3106 2.40002 21.642C2.40002 21.9734 2.66865 22.242 3.00002 22.242Z" fill="#4F4F4F"/>
<path d="M3.00002 33C3.3314 33 3.60002 32.7314 3.60002 32.4C3.60002 32.0687 3.3314 31.8 3.00002 31.8C2.66865 31.8 2.40002 32.0687 2.40002 32.4C2.40002 32.7314 2.66865 33 3.00002 33Z" fill="#4F4F4F"/>
<path d="M33.6 22.242C33.9314 22.242 34.2 21.9734 34.2 21.642C34.2 21.3106 33.9314 21.042 33.6 21.042C33.2686 21.042 33 21.3106 33 21.642C33 21.9734 33.2686 22.242 33.6 22.242Z" fill="#4F4F4F"/>
<path d="M33.6 33C33.9314 33 34.2 32.7314 34.2 32.4C34.2 32.0687 33.9314 31.8 33.6 31.8C33.2686 31.8 33 32.0687 33 32.4C33 32.7314 33.2686 33 33.6 33Z" fill="#4F4F4F"/>
<path d="M8.3999 26.4H5.9999C5.66853 26.4 5.3999 26.6687 5.3999 27C5.3999 27.3314 5.66853 27.6 5.9999 27.6H8.3999C8.73127 27.6 8.9999 27.3314 8.9999 27C8.9999 26.6687 8.73127 26.4 8.3999 26.4Z" fill="#4F4F4F"/>
<path d="M16.8 27.6H19.1999C19.5313 27.6 19.7999 27.3314 19.7999 27C19.7999 26.6687 19.5313 26.4 19.1999 26.4H16.8C16.4686 26.4 16.2 26.6687 16.2 27C16.2 27.3314 16.4686 27.6 16.8 27.6Z" fill="#4F4F4F"/>
<path d="M28.8 27.6H31.1999C31.5313 27.6 31.7999 27.3314 31.7999 27C31.7999 26.6687 31.5313 26.4 31.1999 26.4H28.8C28.4686 26.4 28.2 26.6687 28.2 27C28.2 27.3314 28.4686 27.6 28.8 27.6Z" fill="#4F4F4F"/>
</svg>
