<svg width="36" height="36" viewBox="0 0 36 36" fill="none" xmlns="http://www.w3.org/2000/svg">
<path d="M19.2 25.2H16.8C16.4686 25.2 16.2 25.4686 16.2 25.7999C16.2 26.1313 16.4686 26.3999 16.8 26.3999H19.2C19.5314 26.3999 19.8 26.1313 19.8 25.7999C19.8 25.4686 19.5314 25.2 19.2 25.2Z" fill="#4F4F4F"/>
<path d="M19.2 27.6H16.8C16.4686 27.6 16.2 27.8686 16.2 28.2C16.2 28.5313 16.4686 28.8 16.8 28.8H19.2C19.5314 28.8 19.8 28.5313 19.8 28.2C19.8 27.8686 19.5314 27.6 19.2 27.6Z" fill="#4F4F4F"/>
<path d="M33 31.8V25.2C32.9963 25.1626 32.9888 25.1256 32.9778 25.0896C32.8784 22.7658 32.2451 20.4961 31.1268 18.4566C29.9954 16.3799 29.4017 14.053 29.4 11.688V11.199C30.2364 10.8036 30.7144 9.90637 30.5761 8.99162C30.4378 8.07687 29.7159 7.36111 28.8 7.2306V5.4C28.8 4.73726 28.2628 4.2 27.6 4.2H25.8C25.1373 4.2 24.6 4.73726 24.6 5.4V7.2294C23.5647 7.36879 22.794 8.25537 22.8 9.3C22.8018 10.1109 23.2683 10.8489 24 11.1984V11.688C23.9987 12.8664 23.8518 14.0401 23.5626 15.1824C23.4282 15.7075 23.2627 16.2243 23.067 16.7298C22.9578 16.5042 22.8474 16.2786 22.7268 16.0566C21.5954 13.9799 21.0017 11.653 21 9.288V6.999C21.8364 6.60356 22.3144 5.70637 22.1761 4.79162C22.0378 3.87687 21.3159 3.16111 20.4 3.0306V1.2C20.4 0.537258 19.8628 0 19.2 0H16.8C16.1373 0 15.6 0.537258 15.6 1.2V3.0294C14.5645 3.16829 13.7935 4.05518 13.8 5.1C13.8019 5.9107 14.2684 6.64851 15 6.9978V9.288C14.9987 10.4664 14.8518 11.6401 14.5626 12.7824C14.2707 13.9232 13.8376 15.0231 13.2732 16.0566C13.1532 16.2756 13.0446 16.4994 12.936 16.7238C12.3216 15.1158 12.0044 13.4094 12 11.688V11.199C12.8364 10.8036 13.3144 9.90637 13.1761 8.99162C13.0378 8.07687 12.3159 7.36111 11.4 7.2306V5.4C11.4 4.73726 10.8628 4.2 10.2 4.2H8.40003C7.73729 4.2 7.20003 4.73726 7.20003 5.4V7.2294C6.16473 7.36879 5.39401 8.25537 5.40003 9.3C5.40182 10.1109 5.86834 10.8489 6.60003 11.1984V11.688C6.59871 12.8664 6.4518 14.0401 6.16263 15.1824C5.8707 16.3232 5.43756 17.4231 4.87323 18.4566C3.7627 20.499 3.12982 22.7667 3.02223 25.089C3.01116 25.1252 3.00372 25.1624 3.00003 25.2V33C3.00201 34.656 4.344 35.998 6.00003 36H30C31.6561 35.998 32.998 34.656 33 33V31.8ZM31.8 31.2H24.6V25.8H31.8V31.2ZM4.20003 25.8H11.4V31.2H4.20003V25.8ZM12.6 24H23.4V30H12.6V24ZM25.8 5.4H27.6V7.2H25.8V5.4ZM24.726 15.4764C25.0396 14.238 25.1988 12.9655 25.2 11.688V11.4H25.8C26.1314 11.4 26.4 11.1314 26.4 10.8C26.4 10.4686 26.1314 10.2 25.8 10.2H24.765C24.75 10.1931 24.7346 10.1871 24.7188 10.182C24.2655 10.0899 23.9557 9.66919 24.0025 9.20895C24.0493 8.74871 24.4374 8.39891 24.9 8.4H28.5C28.9624 8.39954 29.3499 8.74951 29.3964 9.20955C29.4428 9.66959 29.1332 10.09 28.68 10.182C28.6632 10.1856 28.6506 10.1952 28.6344 10.2H27.6C27.2687 10.2 27 10.4686 27 10.8C27 11.1314 27.2687 11.4 27.6 11.4H28.2V11.688C28.2021 14.2537 28.8461 16.7782 30.0732 19.0314C30.6378 20.0646 31.071 21.1643 31.3626 22.305C31.55 23.0586 31.6762 23.8261 31.74 24.6H24.6V23.4C24.5989 22.1221 24.4394 20.8492 24.1254 19.6104C24.0108 19.158 23.8668 18.7104 23.709 18.2688C24.1385 17.3735 24.4791 16.4382 24.726 15.4764ZM16.8 1.2H19.2V3H16.8V1.2ZM15.726 13.0764C16.0396 11.838 16.1988 10.5655 16.2 9.288V7.2H16.8C17.1314 7.2 17.4 6.93137 17.4 6.6C17.4 6.26863 17.1314 6 16.8 6H15.7644C15.7488 5.9952 15.7356 5.9856 15.7188 5.982C15.2655 5.88995 14.9557 5.46919 15.0025 5.00895C15.0493 4.54871 15.4374 4.19891 15.9 4.2H20.1C20.5971 4.2 21 4.60294 21 5.1C20.9997 5.33876 20.9055 5.56782 20.7378 5.7378C20.6127 5.86258 20.4534 5.94754 20.28 5.982C20.2632 5.9856 20.2506 5.9952 20.2344 6H19.2C18.8687 6 18.6 6.26863 18.6 6.6C18.6 6.93137 18.8687 7.2 19.2 7.2H19.8V9.288C19.802 11.8535 20.446 14.3778 21.6732 16.6308C22.2375 17.6644 22.6706 18.7642 22.9626 19.905C23.2007 20.8532 23.3415 21.8232 23.3826 22.8H12.6192C12.7105 20.6403 13.2946 18.5301 14.3268 16.6308C14.9396 15.509 15.4097 14.3149 15.726 13.0764ZM8.40003 5.4H10.2V7.2H8.40003V5.4ZM5.92683 19.0308C6.53964 17.909 7.00969 16.7149 7.32603 15.4764C7.63961 14.238 7.79882 12.9655 7.80003 11.688V11.4H8.40003C8.7314 11.4 9.00003 11.1314 9.00003 10.8C9.00003 10.4686 8.7314 10.2 8.40003 10.2H7.36503C7.34999 10.1931 7.33456 10.1871 7.31883 10.182C6.86547 10.0899 6.55573 9.66919 6.60253 9.20895C6.64933 8.74871 7.03742 8.39891 7.50003 8.4H11.1C11.5624 8.39954 11.9499 8.74951 11.9964 9.20955C12.0428 9.66959 11.7332 10.09 11.28 10.182C11.2632 10.1856 11.2506 10.1952 11.2344 10.2H10.2C9.86866 10.2 9.60003 10.4686 9.60003 10.8C9.60003 11.1314 9.86866 11.4 10.2 11.4H10.8V11.688C10.8057 13.9655 11.3155 16.2135 12.2928 18.2706C11.7055 19.9171 11.4036 21.6519 11.4 23.4V24.6H4.26003C4.425 22.6484 4.99253 20.7521 5.92683 19.0308ZM4.20003 33V32.4H11.4V33C11.4022 33.6513 11.6185 34.2838 12.0156 34.8H6.00003C5.00592 34.8 4.20003 33.9941 4.20003 33ZM20.4 34.8H14.4C13.4059 34.8 12.6 33.9941 12.6 33V31.2H23.4V33C23.4 33.9941 22.5941 34.8 21.6 34.8H20.4ZM30 34.8H23.9844C24.3815 34.2838 24.5978 33.6513 24.6 33V32.4H31.8V33C31.8 33.9941 30.9941 34.8 30 34.8Z" fill="#4F4F4F"/>
<path d="M25.8 28.2H27.6C27.9314 28.2 28.2 27.9314 28.2 27.6C28.2 27.2686 27.9314 27 27.6 27H25.8C25.4686 27 25.2 27.2686 25.2 27.6C25.2 27.9314 25.4686 28.2 25.8 28.2Z" fill="#4F4F4F"/>
<path d="M8.39999 28.2H10.2C10.5314 28.2 10.8 27.9314 10.8 27.6C10.8 27.2686 10.5314 27 10.2 27H8.39999C8.06862 27 7.79999 27.2686 7.79999 27.6C7.79999 27.9314 8.06862 28.2 8.39999 28.2Z" fill="#4F4F4F"/>
<path d="M27.6 28.8H25.8C25.4686 28.8 25.2 29.0687 25.2 29.4C25.2 29.7314 25.4686 30 25.8 30H27.6C27.9314 30 28.2 29.7314 28.2 29.4C28.2 29.0687 27.9314 28.8 27.6 28.8Z" fill="#4F4F4F"/>
<path d="M10.2 28.8H8.39999C8.06862 28.8 7.79999 29.0687 7.79999 29.4C7.79999 29.7314 8.06862 30 8.39999 30H10.2C10.5314 30 10.8 29.7314 10.8 29.4C10.8 29.0687 10.5314 28.8 10.2 28.8Z" fill="#4F4F4F"/>
</svg>
