<svg width="36" height="36" viewBox="0 0 36 36" fill="none" xmlns="http://www.w3.org/2000/svg">
<g clip-path="url(#clip0)">
<path d="M11.3268 16.0572C10.1955 13.9802 9.60186 11.6531 9.6 9.288V6.9984C9.81743 6.89592 10.0155 6.75668 10.1856 6.5868C10.7471 6.02562 10.9432 5.1953 10.6921 4.44219C10.4411 3.68909 9.78592 3.14257 9 3.0306V1.2C9 0.537258 8.46274 0 7.8 0H5.4C4.73726 0 4.2 0.537258 4.2 1.2V3.03C3.28395 3.16008 2.56177 3.87578 2.42343 4.79062C2.28509 5.70546 2.76337 6.60268 3.6 6.9978V9.288C3.59882 10.4656 3.4519 11.6385 3.1626 12.78C2.87114 13.9209 2.43797 15.0209 1.8732 16.0542C0.645585 18.3081 0.00161849 20.8335 0 23.4V33C0.00198367 34.656 1.34397 35.998 3 36H10.2C11.856 35.998 13.198 34.656 13.2 33V23.4C13.1987 22.1221 13.0395 20.8493 12.726 19.6104C12.4094 18.3723 11.9394 17.1787 11.3268 16.0572ZM1.2 24H12V30H1.2V24ZM5.4 1.2H7.8V3H5.4V1.2ZM2.9268 16.6314C3.53937 15.5105 4.00941 14.3175 4.326 13.08C4.63986 11.8404 4.79907 10.5667 4.8 9.288V7.2H5.4C5.73137 7.2 6 6.93137 6 6.6C6 6.26863 5.73137 6 5.4 6H4.3656C4.35074 5.99316 4.33552 5.98715 4.32 5.982C3.86687 5.88999 3.55718 5.46959 3.60365 5.00955C3.65012 4.54951 4.03762 4.19954 4.5 4.2H8.7C9.16354 4.19798 9.5528 4.54837 9.59937 5.00957C9.64594 5.47077 9.33459 5.89191 8.88 5.9826C8.86483 5.98741 8.85 5.99323 8.8356 6H7.8C7.46863 6 7.2 6.26863 7.2 6.6C7.2 6.93137 7.46863 7.2 7.8 7.2H8.4V9.288C8.4021 11.8537 9.04605 14.3782 10.2732 16.6314C10.8378 17.6646 11.271 18.7643 11.5626 19.905C11.8007 20.8532 11.9414 21.8232 11.9826 22.8H1.2186C1.31032 20.6405 1.89461 18.5305 2.9268 16.6314ZM10.2 34.8H3C2.00589 34.8 1.2 33.9941 1.2 33V31.2H12V33C12 33.9941 11.1941 34.8 10.2 34.8Z" fill="#4F4F4F"/>
<path d="M7.80011 25.2H5.40011C5.06874 25.2 4.80011 25.4686 4.80011 25.7999C4.80011 26.1313 5.06874 26.3999 5.40011 26.3999H7.80011C8.13148 26.3999 8.40011 26.1313 8.40011 25.7999C8.40011 25.4686 8.13148 25.2 7.80011 25.2Z" fill="#4F4F4F"/>
<path d="M7.80011 27.6H5.40011C5.06874 27.6 4.80011 27.8686 4.80011 28.2C4.80011 28.5313 5.06874 28.8 5.40011 28.8H7.80011C8.13148 28.8 8.40011 28.5313 8.40011 28.2C8.40011 27.8686 8.13148 27.6 7.80011 27.6Z" fill="#4F4F4F"/>
<path d="M18.9599 16.4046C18.4416 16.2254 17.9584 15.9574 17.5319 15.6126C17.0281 15.1394 16.7942 14.4457 16.9085 13.764C16.9508 13.4351 16.7184 13.1342 16.3895 13.092C16.0607 13.0497 15.7598 13.2821 15.7175 13.611C15.5528 14.6973 15.944 15.7939 16.7591 16.5306C17.2931 16.9683 17.9005 17.3078 18.5531 17.5332C18.6183 17.557 18.6872 17.5689 18.7565 17.5686C19.0476 17.568 19.2962 17.3586 19.3463 17.0719C19.3964 16.7852 19.2335 16.5039 18.9599 16.4046Z" fill="#4F4F4F"/>
<path d="M33.9857 18.369C35.4354 17.1112 36.143 15.2007 35.8625 13.302L34.2599 1.11604C34.1844 0.517017 33.6757 0.0673424 33.0719 0.06604H16.1261C15.525 0.067852 15.018 0.514075 14.9399 1.11004L13.3367 13.3032C13.0558 15.2003 13.7628 17.1096 15.2117 18.366C16.5323 19.4218 18.1213 20.0881 19.7999 20.2902L19.7879 31.3134C16.9901 31.6578 14.8001 32.7936 14.0729 34.2738C13.8888 34.6443 13.9095 35.0837 14.1276 35.4352C14.3457 35.7868 14.7302 36.0005 15.1439 36H34.6559C35.069 36.0004 35.4529 35.7873 35.6711 35.4366C35.8893 35.0858 35.9109 34.6473 35.7281 34.2768C34.9961 32.7924 32.8067 31.6572 29.9999 31.314V20.1882C31.4599 19.9253 32.8304 19.2997 33.9857 18.369ZM33.2129 17.451C31.6967 18.6294 29.8196 19.2474 27.8999 19.2C27.3871 19.1991 26.8751 19.1578 26.3687 19.0764C26.7276 18.868 27.0688 18.6304 27.3887 18.366C28.8372 17.1093 29.544 15.2002 29.2631 13.3032L28.7273 9.21904C29.4621 8.9554 30.2395 8.83029 31.0199 8.85004C32.1164 8.81268 33.2029 9.07045 34.1657 9.59644L34.6727 13.4556C34.8998 14.9493 34.3494 16.4556 33.2129 17.451ZM24.9035 31.5864C24.408 31.4663 23.906 31.3751 23.3999 31.3134V20.1876C23.809 20.109 24.2129 20.0056 24.6095 19.878C25.1926 20.0692 25.7919 20.207 26.3999 20.2896L26.3879 31.3122C25.8879 31.3725 25.3921 31.4641 24.9035 31.5864ZM33.9809 8.18644C33.0412 7.80595 32.0334 7.62217 31.0199 7.64644C30.1888 7.63243 29.3609 7.75195 28.5677 8.00044L27.6839 1.26604H33.0713L33.9809 8.18644ZM16.1261 1.26604H26.4737L27.3815 8.18824C26.4415 7.80798 25.4336 7.62421 24.4199 7.64824C23.0144 7.61467 21.6276 7.97551 20.4167 8.68984C19.3723 9.31429 18.1723 9.62989 16.9559 9.60004C16.3173 9.60959 15.6806 9.52879 15.0647 9.36004L16.1261 1.26604ZM14.5265 13.458L14.9069 10.5582C15.5768 10.7255 16.2655 10.8062 16.9559 10.7982C18.3661 10.8324 19.7578 10.4707 20.9729 9.75424C22.0134 9.13329 23.2086 8.81979 24.4199 8.85004C25.517 8.81367 26.6036 9.0727 27.5663 9.60004L28.0727 13.4598C28.2891 14.9507 27.7418 16.4506 26.6159 17.4516C25.0982 18.6293 23.2204 19.2469 21.2999 19.2C19.3793 19.2459 17.5017 18.6272 15.9845 17.4486C14.8585 16.4482 14.3107 14.9488 14.5265 13.458ZM19.9349 32.5044C20.5393 32.4325 20.9957 31.9221 20.9999 31.3134V20.388C21.1001 20.391 21.1991 20.4 21.2999 20.4C21.5999 20.4 21.8999 20.3862 22.1999 20.3616V31.3134C22.2041 31.9221 22.6605 32.4325 23.2649 32.5044C25.5923 32.7906 27.5159 33.7158 28.0559 34.8H21.7439C21.7385 34.8 21.7337 34.803 21.7283 34.803L15.1481 34.8066C15.6839 33.7158 17.6075 32.7906 19.9349 32.5044ZM29.8667 32.5044C32.1905 32.7906 34.1135 33.717 34.6559 34.8012H29.2475C29.2486 34.6203 29.2075 34.4416 29.1275 34.2792C28.6418 33.425 27.8965 32.7476 26.9999 32.3454C27.3697 32.1334 27.5983 31.7403 27.5999 31.314V20.388C27.7001 20.388 27.7991 20.4 27.8999 20.4C28.1999 20.4 28.4999 20.3862 28.7999 20.3622V31.314C28.8016 31.9239 29.2606 32.4355 29.8667 32.5032V32.5044Z" fill="#4F4F4F"/>
</g>
<defs>
<clipPath id="clip0">
<rect width="36" height="36" fill="white"/>
</clipPath>
</defs>
</svg>
