<svg width="21" height="24" viewBox="0 0 21 24" fill="none" xmlns="http://www.w3.org/2000/svg">
<path d="M18.75 1.5H2.25C1.00734 1.5 0 2.50734 0 3.75V20.25C0 21.4927 1.00734 22.5 2.25 22.5H18.75C19.9927 22.5 21 21.4927 21 20.25V3.75C21 2.50734 19.9927 1.5 18.75 1.5ZM8.34923 12.2861C4.09823 9.20095 4.14155 9.19317 3 8.3047V7.125C3 6.50367 3.50367 6 4.125 6H16.875C17.4963 6 18 6.50367 18 7.125V8.3047C16.8576 9.19388 16.9015 9.20114 12.6508 12.2862C12.1586 12.645 11.1793 13.5105 10.5 13.5C9.82017 13.5102 8.84217 12.6456 8.34923 12.2861ZM18 10.2082V16.875C18 17.4963 17.4963 18 16.875 18H4.125C3.50367 18 3 17.4963 3 16.875V10.2082C3.65428 10.7142 4.5623 11.3911 7.46733 13.4995C8.13117 13.9842 9.24741 15.0063 10.4999 15C11.7602 15.0062 12.8922 13.9668 13.5336 13.4988C16.4379 11.391 17.3457 10.7141 18 10.2082Z" fill="#828282"/>
</svg>
