<svg width="21" height="24" viewBox="0 0 21 24" fill="none" xmlns="http://www.w3.org/2000/svg">
<g clip-path="url(#clip0)">
<path d="M18.75 1.5H2.25C1.65326 1.5 1.08097 1.73705 0.65901 2.15901C0.237053 2.58097 0 3.15326 0 3.75L0 20.25C0 20.8467 0.237053 21.419 0.65901 21.841C1.08097 22.2629 1.65326 22.5 2.25 22.5H18.75C19.3467 22.5 19.919 22.2629 20.341 21.841C20.7629 21.419 21 20.8467 21 20.25V3.75C21 3.15326 20.7629 2.58097 20.341 2.15901C19.919 1.73705 19.3467 1.5 18.75 1.5ZM17.9817 15.908L17.2786 18.9548C17.2429 19.1097 17.1557 19.248 17.0313 19.347C16.907 19.446 16.7527 19.4999 16.5938 19.5C9.09375 19.5 3 13.4198 3 5.90625C3.00558 5.74878 3.06156 5.59725 3.15969 5.47397C3.25783 5.35068 3.39294 5.26216 3.54516 5.22141L6.59203 4.51828C6.644 4.50729 6.69689 4.50117 6.75 4.5C6.88597 4.50686 7.01762 4.55 7.13129 4.62492C7.24496 4.69985 7.3365 4.80384 7.39641 4.92609L8.80266 8.20734C8.8371 8.29581 8.85628 8.38949 8.85938 8.48438C8.84793 8.69252 8.75537 8.88789 8.60156 9.02859L6.82547 10.4817C7.90163 12.7626 9.73738 14.5984 12.0183 15.6745L13.4714 13.8984C13.6121 13.7446 13.8075 13.6521 14.0156 13.6406C14.1105 13.6437 14.2042 13.6629 14.2927 13.6973L17.5739 15.1036C17.6962 15.1634 17.8003 15.2549 17.8752 15.3686C17.9501 15.4823 17.9932 15.614 18 15.75C17.9991 15.8031 17.9929 15.856 17.9817 15.908Z" fill="#828282"/>
</g>
<defs>
<clipPath id="clip0">
<rect width="21" height="24" fill="white"/>
</clipPath>
</defs>
</svg>
