<svg width="137" height="45" viewBox="0 0 137 45" fill="none" xmlns="http://www.w3.org/2000/svg">
<g clip-path="url(#clip0)">
<path fill-rule="evenodd" clip-rule="evenodd" d="M76.3433 7.37064C76.3433 7.37064 77.7537 8.90112 79.6811 8.58058C79.6811 8.58058 78.3341 10.4614 76.1234 10.8237C76.1234 10.8237 76.423 11.529 77.555 11.6403C77.555 11.6403 76.1961 12.948 73.597 13.0631L73.5529 30.4358C73.5323 37.9184 67.4018 44.005 59.8844 44.005C59.4487 44.005 58.7397 44.0204 58.304 44.0486C58.121 44.0615 57.8813 44.0717 57.5951 44.0717C55.0687 44.0717 48.8531 43.3404 41.0985 37.2461C31.6084 29.7876 20.895 30.073 20.6707 30.0791H20.6679L20.6576 30.0689H7.76242V30.3357C7.76242 30.9952 7.22362 31.5289 6.56365 31.5289H4.43165C3.7691 31.5289 3.23288 30.9926 3.23288 30.3357V30.0689H2.21199C1.16533 30.0689 0.312012 29.2221 0.312012 28.1777V21.6446C0.312012 20.6028 1.16275 19.7534 2.21199 19.7534H3.23288V19.4865C3.23288 18.8271 3.77168 18.2933 4.43165 18.2933H6.56365C7.2262 18.2933 7.76242 18.8296 7.76242 19.4865V19.7534H23.4805C27.2392 19.3249 34.5246 17.8212 41.1965 12.5761C49.825 5.79409 56.5484 5.65039 58.4046 5.77099C58.8377 5.79922 59.5466 5.81462 59.9823 5.81462H66.4332C66.4758 3.2661 67.6217 1.87855 67.6217 1.87855C67.7877 3.03465 68.4861 3.3086 68.4861 3.3086C68.7256 1.02249 70.4892 -0.452881 70.4892 -0.452881C70.2708 1.54019 71.8292 2.91284 71.8292 2.91284C72.7942 1.42882 74.2773 0.85295 74.2773 0.85295L74.1518 1.78814C76.175 0.281134 78.2647 0.655468 78.2647 0.655468C78.3196 0.950742 78.5802 2.94943 77.3209 4.93087L78.2253 4.75728C78.2253 4.75728 77.739 6.30899 76.3433 7.37064ZM65.6745 38.4572C61.7276 40.7898 55.3471 40.564 47.2058 37.8055C47.3785 37.4462 47.5641 36.7893 47.247 35.9631C46.5355 34.1129 43.2821 31.5341 32.0317 29.5223C36.1178 29.1169 46.4246 28.6422 52.0756 33.3021C58.4716 38.5779 67.0744 35.1394 69.2528 34.1309C68.9486 35.0624 68.0515 37.0511 65.6745 38.4572Z" fill="#B41529"/>
<path d="M116.959 9.4456C115.451 10.6824 113.46 10.0589 113.46 10.0589C114.136 8.44484 113.777 6.85903 113.777 6.85903L113.081 7.45949C113.177 5.11669 111.947 3.51549 111.751 3.28711C111.751 3.28711 109.753 4.00303 108.758 6.31503L108.397 5.44258C108.397 5.44258 107.402 6.67941 107.312 8.44484C107.312 8.44484 105.273 8.03171 104.461 6.197C104.461 6.197 103.674 8.35247 104.615 10.4515C104.615 10.4515 103.873 10.5618 103.148 9.64319C103.148 9.64319 102.653 12.6121 105.641 15.6965C105.979 15.3296 106.399 15.0268 106.889 14.8266C108.74 14.0671 110.88 14.9934 111.669 16.8974C111.728 17.0411 111.777 17.1874 111.818 17.3362C115.822 16.0506 116.654 13.1535 116.654 13.1535C115.618 13.6205 115.005 13.1587 115.005 13.1587C116.737 11.7448 116.959 9.4456 116.959 9.4456Z" fill="#B41529"/>
<path d="M82.6532 29.0603C82.8801 29.4914 83.4679 29.748 84.4166 29.8301C84.4372 28.6806 84.6022 27.4181 84.9116 26.0427C85.2416 24.6673 85.6334 23.1892 86.0871 21.6086C86.1696 21.3622 86.2831 20.9722 86.4274 20.4384C86.5718 19.9047 86.7368 19.3402 86.9224 18.7449C87.108 18.1495 87.2627 17.6363 87.3864 17.2052C88.5414 17.1847 89.4592 17.1642 90.1397 17.1437C90.841 17.1026 91.3875 17.0513 91.7794 16.9897C92.1712 16.9281 92.4703 16.8357 92.6765 16.7126C92.9034 16.5689 93.0993 16.3738 93.2643 16.1275C92.5218 16.107 91.6865 16.0351 90.7585 15.912C89.851 15.7888 88.8817 15.6964 87.8505 15.6348L88.9023 12.4324C89.2529 11.3444 89.5932 10.3282 89.9232 9.38388C90.2532 8.41905 90.5522 7.59792 90.8203 6.92049C91.769 7.0026 92.6146 7.1155 93.3571 7.2592C94.1202 7.38237 94.7389 7.44396 95.2132 7.44396C95.7495 7.44396 96.2754 7.30026 96.791 7.01286C97.3066 6.72547 97.9459 6.15067 98.709 5.28849C98.3378 5.39113 97.9665 5.47324 97.5953 5.53482C97.2447 5.57588 96.8528 5.59641 96.4197 5.59641C95.4504 5.59641 94.4502 5.52456 93.419 5.38086C92.4084 5.21664 91.3566 5.13452 90.2635 5.13452C88.6961 5.13452 87.2627 5.3706 85.9634 5.84275C84.6847 6.29437 83.6638 6.93075 82.9007 7.75188C82.1376 8.55249 81.7561 9.48652 81.7561 10.554C81.7561 11.1904 81.9211 11.7241 82.2511 12.1552C82.5811 12.5658 83.0967 12.8327 83.7979 12.9558C83.6535 12.5453 83.5504 12.1552 83.4885 11.7857C83.4266 11.3957 83.3957 10.9748 83.3957 10.5232C83.3957 9.66101 83.5298 8.95279 83.7979 8.39852C84.066 7.84426 84.561 7.43369 85.2828 7.16682C86.0046 6.89996 87.0255 6.76652 88.3455 6.76652C88.5517 6.76652 88.7476 6.77679 88.9332 6.79731C89.1395 6.79731 89.3457 6.80758 89.552 6.82811C88.9539 8.08033 88.3455 9.46599 87.7267 10.9851C87.1286 12.4837 86.5409 14.0233 85.9634 15.604C85.2209 15.6246 84.5506 15.7067 83.9526 15.8504C83.3545 15.9941 82.8698 16.2199 82.4986 16.5278C82.148 16.8152 81.952 17.2258 81.9108 17.7595C82.5707 17.6569 83.107 17.585 83.5195 17.544C83.9319 17.4824 84.2722 17.4413 84.5403 17.4208C84.8291 17.3797 85.0972 17.3489 85.3447 17.3284L83.9216 21.1467C83.4679 22.4194 83.0863 23.5998 82.777 24.6878C82.4676 25.7553 82.3129 26.6585 82.3129 27.3975C82.3129 28.075 82.4264 28.6292 82.6532 29.0603Z" fill="#B41529"/>
<path fill-rule="evenodd" clip-rule="evenodd" d="M90.895 25.9197C90.895 26.7203 91.1322 27.3772 91.6065 27.8904C92.0809 28.401 92.7512 28.6602 93.6174 28.6602C94.8961 28.6602 96.0923 28.1573 97.206 27.1514C97.4024 26.9738 97.5927 26.7839 97.777 26.5817L97.5153 27.3053C97.969 27.9007 98.6393 28.1983 99.5262 28.1983C100.805 26.1044 102.001 24.3749 103.115 23.0098C104.228 21.6447 105.332 20.9621 106.425 20.9621C106.734 20.9621 106.992 21.0596 107.198 21.2546C107.405 21.4496 107.508 21.7524 107.508 22.163C107.508 22.6146 107.363 23.3126 107.075 24.2569C106.971 24.6059 106.873 24.9549 106.781 25.3038C106.688 25.6528 106.641 25.9607 106.641 26.2276C106.641 26.864 106.858 27.3772 107.291 27.7672C107.724 28.1547 108.333 28.3523 109.116 28.3523C110.271 28.3523 111.297 27.8596 112.194 26.8742C112.418 26.6279 112.638 26.3595 112.852 26.0685C112.978 26.8445 113.321 27.5029 113.88 28.0444C114.602 28.7398 115.613 29.0913 116.912 29.0913C118.562 29.0913 120.155 28.5268 121.692 27.3977C123.228 26.2687 124.409 24.7804 125.234 22.9328L124.615 22.4401C123.811 23.9592 122.754 25.2269 121.444 26.243C120.135 27.2592 118.851 27.7672 117.593 27.7672C116.603 27.7672 115.958 27.5004 115.659 26.9666C115.36 26.4329 115.211 25.8992 115.211 25.3654C115.211 25.0985 115.231 24.8625 115.273 24.6572C116.531 24.5135 117.763 24.1645 118.969 23.6102C120.176 23.056 121.161 22.3426 121.924 21.4702C122.687 20.5977 123.068 19.6688 123.068 18.6835C123.068 17.9444 122.852 17.4158 122.419 17.0976C121.986 16.7795 121.449 16.6204 120.81 16.6204C119.593 16.6204 118.356 17.0874 117.098 18.0214C115.84 18.9555 114.809 20.1153 114.004 21.501C113.375 22.5846 112.992 23.609 112.855 24.5735C112.574 24.9803 112.282 25.3623 111.978 25.7195C111.184 26.6536 110.447 27.1206 109.766 27.1206C109.56 27.1206 109.384 27.0487 109.24 26.905C109.096 26.7613 109.023 26.5355 109.023 26.2276C109.023 25.7965 109.199 25.1499 109.549 24.2877C109.776 23.7745 109.946 23.3126 110.06 22.902C110.173 22.4915 110.23 22.0604 110.23 21.6087C110.23 20.8287 110.003 20.1564 109.549 19.5918C109.096 19.0273 108.456 18.745 107.631 18.745C106.662 18.745 105.677 19.1351 104.677 19.9152C103.677 20.6952 102.713 21.7011 101.784 22.9328C102.135 21.6601 102.31 20.7465 102.31 20.1923C102.31 19.9049 102.218 19.6791 102.032 19.5149C101.846 19.3506 101.578 19.2685 101.228 19.2685C100.939 19.2685 100.64 19.3455 100.33 19.4995C100.021 19.6534 99.784 19.8228 99.619 20.0075C99.619 20.8777 99.3893 22.0347 98.9299 23.4786C97.5073 25.9271 96.0768 27.1514 94.6383 27.1514C94.1639 27.1514 93.8133 27.0385 93.5864 26.8127C93.3596 26.5869 93.2462 26.1558 93.2462 25.5194C93.2462 24.7804 93.4369 23.9952 93.8185 23.1638C94.2 22.3324 94.7208 21.3727 95.3807 20.2847C95.752 19.6893 96.0201 19.2326 96.1851 18.9144C96.3501 18.5962 96.4326 18.3447 96.4326 18.16C96.4326 17.8726 96.3449 17.6519 96.1696 17.4979C95.9943 17.344 95.7726 17.267 95.5045 17.267C94.7826 17.267 94.066 17.8007 93.3544 18.8682C92.6429 19.9357 92.0551 21.1725 91.5911 22.5787C91.127 23.9849 90.895 25.0985 90.895 25.9197ZM120.439 20.7312C119.8 21.4804 119.021 22.1117 118.103 22.6249C117.185 23.1381 116.355 23.4358 115.613 23.5179C115.902 22.6557 116.345 21.7935 116.943 20.9313C117.541 20.0691 118.196 19.3558 118.908 18.7912C119.619 18.2267 120.274 17.9444 120.872 17.9444C121.058 17.9444 121.192 17.9855 121.274 18.0676C121.357 18.1497 121.398 18.3037 121.398 18.5295C121.398 19.248 121.078 19.9819 120.439 20.7312Z" fill="#B41529"/>
<path d="M95.7209 13.5715C95.7209 13.9616 95.8705 14.2593 96.1695 14.4646C96.4686 14.6699 96.8346 14.7725 97.2677 14.7725C97.8246 14.7725 98.3402 14.5724 98.8145 14.1721C99.2889 13.7718 99.5261 13.356 99.5261 12.9249C99.5261 12.1653 99.0826 11.7856 98.1958 11.7856C97.5977 11.7856 97.0357 11.9652 96.5098 12.3244C95.9839 12.6837 95.7209 13.0994 95.7209 13.5715Z" fill="#B41529"/>
<path d="M132.432 5.1731C130.475 5.1731 128.812 6.41506 128.183 8.14713C130.844 8.63212 132.958 16.2046 132.958 25.4782C132.958 34.1797 131.096 41.3825 128.67 42.6399C129.48 43.8511 130.862 44.6491 132.434 44.6491C134.93 44.6491 136.953 42.6348 136.953 40.1508V9.67136C136.951 7.18743 134.927 5.1731 132.432 5.1731Z" fill="#B41529"/>
<path d="M83.5427 44.6003L86.842 37.4087H86.3547L83.3199 44.0876L80.2851 37.4087H79.7839L83.0833 44.6003H83.5427Z" fill="#B41529"/>
<path d="M88.9103 37.4087H88.4509V44.6003H88.9103V37.4087Z" fill="#B41529"/>
<path d="M88.3536 35.3993C88.4464 35.4824 88.5531 35.524 88.6738 35.524C88.7944 35.524 88.9011 35.4778 88.9939 35.3854C89.0868 35.2931 89.1332 35.1868 89.1332 35.0667C89.1332 34.9467 89.0868 34.845 88.9939 34.7619C88.9011 34.6695 88.7944 34.6233 88.6738 34.6233C88.5438 34.6233 88.4325 34.6695 88.3397 34.7619C88.2561 34.845 88.2144 34.9513 88.2144 35.0806C88.2144 35.2007 88.2608 35.3069 88.3536 35.3993Z" fill="#B41529"/>
<path d="M97.5401 38.1431C97.0204 37.6166 96.3104 37.3533 95.4102 37.3533C94.6956 37.3533 94.0784 37.515 93.5587 37.8383C93.0482 38.1616 92.677 38.605 92.445 39.1685V37.4087H91.9995V44.6003H92.4589V40.7205C92.4589 39.8244 92.7188 39.1131 93.2385 38.5865C93.7582 38.0507 94.4682 37.7829 95.3684 37.7829C96.1666 37.7829 96.7791 38.0092 97.206 38.4618C97.6422 38.9052 97.8603 39.5519 97.8603 40.4017V44.6003H98.3197V40.374C98.3197 39.4041 98.0599 38.6604 97.5401 38.1431Z" fill="#B41529"/>
<path d="M107.507 44.6003V37.4087H107.047V41.2886C107.047 42.1846 106.797 42.9005 106.296 43.4363C105.794 43.9629 105.112 44.2262 104.249 44.2262C103.432 44.2262 102.801 44.0045 102.356 43.561C101.92 43.1084 101.702 42.4571 101.702 41.6073V37.4087H101.242V41.635C101.242 42.6049 101.507 43.3486 102.036 43.8659C102.565 44.3832 103.298 44.6419 104.235 44.6419C104.913 44.6419 105.497 44.4848 105.989 44.1707C106.481 43.8567 106.839 43.4179 107.061 42.8544V44.6003H107.507Z" fill="#B41529"/>
<path d="M121.665 38.1293C121.164 37.612 120.472 37.3533 119.59 37.3533C118.857 37.3533 118.231 37.5288 117.711 37.8798C117.191 38.2309 116.825 38.7066 116.611 39.3071C116.454 38.6697 116.138 38.1847 115.665 37.8521C115.191 37.5196 114.607 37.3533 113.911 37.3533C113.215 37.3533 112.616 37.515 112.115 37.8383C111.623 38.1524 111.266 38.5865 111.043 39.1408V37.4087H110.597V44.6003H111.057V40.7205C111.057 39.8244 111.307 39.1131 111.809 38.5865C112.319 38.0507 113.01 37.7829 113.883 37.7829C114.644 37.7829 115.233 38.0092 115.651 38.4618C116.068 38.9052 116.277 39.5519 116.277 40.4017V44.6003H116.737V40.7205C116.737 39.8336 116.992 39.1223 117.502 38.5865C118.013 38.0507 118.7 37.7829 119.563 37.7829C120.333 37.7829 120.927 38.0092 121.345 38.4618C121.762 38.9052 121.971 39.5519 121.971 40.4017V44.6003H122.43V40.374C122.43 39.3948 122.175 38.6466 121.665 38.1293Z" fill="#B41529"/>
</g>
<defs>
<clipPath id="clip0">
<rect width="137" height="45" fill="white"/>
</clipPath>
</defs>
</svg>
