<svg width="9" height="24" viewBox="0 0 9 24" fill="none" xmlns="http://www.w3.org/2000/svg">
<path d="M8.25 20.25C8.25 22.3177 6.56775 24 4.5 24C2.43225 24 0.75 22.3177 0.75 20.25C0.75 18.1823 2.43225 16.5 4.5 16.5C6.56775 16.5 8.25 18.1823 8.25 20.25ZM1.18406 1.1812L1.82156 13.9312C1.85152 14.5299 2.34567 15 2.94516 15H6.05484C6.65433 15 7.14848 14.5299 7.17844 13.9312L7.81594 1.1812C7.84805 0.538594 7.33575 0 6.69234 0H2.30766C1.66425 0 1.15195 0.538594 1.18406 1.1812Z" fill="white"/>
</svg>
