<svg width="20" height="16" viewBox="0 0 20 16" fill="none" xmlns="http://www.w3.org/2000/svg">
<path d="M9.99992 12.5C7.62961 12.5 5.71086 10.6653 5.5343 8.34033L2.25618 5.8069C1.82524 6.34752 1.42868 6.91908 1.10868 7.54408C1.03719 7.68549 0.999948 7.84173 0.999948 8.00018C0.999948 8.15863 1.03719 8.31486 1.10868 8.45627C2.80337 11.7628 6.15836 14 9.99992 14C10.8409 14 11.6521 13.875 12.434 13.6731L10.8124 12.4185C10.5446 12.4702 10.2727 12.4975 9.99992 12.5ZM19.8068 14.3156L16.3521 11.6456C17.4015 10.7612 18.2646 9.67699 18.8912 8.45596C18.9627 8.31455 18.9999 8.15832 18.9999 7.99986C18.9999 7.84141 18.9627 7.68518 18.8912 7.54377C17.1965 4.23721 13.8415 2.00002 9.99992 2.00002C8.39102 2.00197 6.80824 2.40701 5.39618 3.17815L1.42056 0.105333C1.36871 0.0649921 1.30943 0.0352617 1.24609 0.0178413C1.18275 0.000420928 1.1166 -0.00434808 1.05142 0.00380685C0.986242 0.0119618 0.923307 0.0328808 0.866213 0.0653685C0.80912 0.0978561 0.758988 0.141276 0.718682 0.193146L0.105245 0.982834C0.0238694 1.08752 -0.0125944 1.22023 0.00387316 1.3518C0.0203407 1.48336 0.0883909 1.603 0.193057 1.6844L18.5793 15.8947C18.6311 15.9351 18.6904 15.9648 18.7538 15.9822C18.8171 15.9996 18.8832 16.0044 18.9484 15.9962C19.0136 15.9881 19.0765 15.9672 19.1336 15.9347C19.1907 15.9022 19.2409 15.8588 19.2812 15.8069L19.8949 15.0172C19.9763 14.9125 20.0127 14.7797 19.9961 14.6482C19.9796 14.5166 19.9115 14.397 19.8068 14.3156ZM14.0655 9.87815L12.8374 8.92877C12.9408 8.62985 12.9957 8.3163 12.9999 8.00002C13.006 7.53698 12.9034 7.07896 12.7004 6.66275C12.4974 6.24655 12.1996 5.88376 11.8309 5.60353C11.4622 5.32329 11.033 5.13343 10.5776 5.04919C10.1223 4.96495 9.65351 4.98867 9.20899 5.11846C9.39743 5.3738 9.49936 5.68267 9.49992 6.00002C9.49526 6.10562 9.47912 6.21041 9.4518 6.31252L7.15149 4.53471C7.95054 3.86696 8.95859 3.50079 9.99992 3.50002C10.591 3.49969 11.1763 3.61586 11.7224 3.84189C12.2685 4.06792 12.7647 4.39938 13.1826 4.81731C13.6006 5.23524 13.932 5.73144 14.158 6.27756C14.3841 6.82367 14.5002 7.40898 14.4999 8.00002C14.4999 8.67596 14.3346 9.30596 14.0655 9.87846V9.87815Z" fill="#828282"/>
</svg>
