<svg width="14" height="14" viewBox="0 0 14 14" fill="none" xmlns="http://www.w3.org/2000/svg">
<path d="M13.6158 2.02803L11.9722 0.384399C11.4595 -0.128296 10.628 -0.128296 10.1153 0.384399L8.56901 1.93069L12.0696 5.43124L13.6158 3.88495C14.1285 3.37225 14.1285 2.541 13.6158 2.02803ZM6.86741 1.46667C6.4403 1.03956 5.74795 1.03956 5.32084 1.46667L2.07295 4.71483C1.90205 4.88573 1.90205 5.16272 2.07295 5.33334L2.69174 5.95213C2.86264 6.12303 3.13963 6.12303 3.31053 5.95213L6.09467 3.16799L6.71346 3.78651L2.56924 7.93045C1.13379 9.36592 0.229466 11.2471 0.0049454 13.2647L0.00412509 13.271C-0.0423593 13.6888 0.310649 14.0421 0.728461 13.9958C2.74865 13.7728 4.63258 12.8681 6.06979 11.431L11.4508 6.05002L9.18752 3.78678L6.86741 1.46667Z" fill="#BDBDBD"/>
</svg>
