<svg width="44" height="44" viewBox="0 0 44 44" fill="none" xmlns="http://www.w3.org/2000/svg">
<path d="M37.8125 1.375V35.75H31.625V8.25H30.25L13.0625 1.375H37.8125Z" fill="#F3D2CB"/>
<path d="M22.6875 20.625V22.6875H15.8125V20.625L17.875 19.25V13.0625H20.625V19.25L22.6875 20.625Z" fill="#B41529"/>
<path d="M15.8125 28.1875H22.6875V33.6875C22.6875 33.8698 22.6151 34.0447 22.4861 34.1736C22.3572 34.3026 22.1823 34.375 22 34.375H16.5C16.3177 34.375 16.1428 34.3026 16.0139 34.1736C15.8849 34.0447 15.8125 33.8698 15.8125 33.6875V28.1875Z" fill="#B41529"/>
<path d="M22.6875 20.625V22.6875H15.8125V20.625L17.875 19.25V13.0625H20.625V19.25L22.6875 20.625Z" fill="white"/>
<path d="M15.8125 28.1875H22.6875V33.6875C22.6875 33.8698 22.6151 34.0447 22.4861 34.1736C22.3572 34.3026 22.1823 34.375 22 34.375H16.5C16.3177 34.375 16.1428 34.3026 16.0139 34.1736C15.8849 34.0447 15.8125 33.8698 15.8125 33.6875V28.1875Z" fill="white"/>
<path d="M37.8125 0.6875H13.0625C12.8802 0.6875 12.7053 0.759933 12.5764 0.888864C12.4474 1.0178 12.375 1.19266 12.375 1.375V7.5625H6.875C6.69266 7.5625 6.5178 7.63493 6.38886 7.76386C6.25993 7.8928 6.1875 8.06766 6.1875 8.25V42.625C6.1875 42.8073 6.25993 42.9822 6.38886 43.1111C6.5178 43.2401 6.69266 43.3125 6.875 43.3125H31.625C31.8073 43.3125 31.9822 43.2401 32.1111 43.1111C32.2401 42.9822 32.3125 42.8073 32.3125 42.625V36.4375H37.8125C37.9948 36.4375 38.1697 36.3651 38.2986 36.2361C38.4276 36.1072 38.5 35.9323 38.5 35.75V1.375C38.5 1.19266 38.4276 1.0178 38.2986 0.888864C38.1697 0.759933 37.9948 0.6875 37.8125 0.6875ZM13.75 2.36242L27.7896 7.5625H13.75V2.36242ZM30.9375 41.9375H7.5625V8.9375H30.9375V41.9375ZM37.125 35.0625H32.3125V8.25C32.3124 8.10965 32.2693 7.97269 32.1891 7.85749C32.1089 7.74229 31.9955 7.65436 31.8639 7.60547L16.8979 2.0625H37.125V35.0625Z" fill="#B41529"/>
<path d="M23.0691 20.0527L21.3125 18.8822V11.6875C21.312 11.323 21.167 10.9735 20.9092 10.7158C20.6515 10.458 20.302 10.313 19.9375 10.3125H18.5625C18.198 10.313 17.8485 10.458 17.5908 10.7158C17.333 10.9735 17.188 11.323 17.1875 11.6875V18.8822L15.4309 20.0527C15.3369 20.1157 15.2599 20.2008 15.2065 20.3006C15.1532 20.4004 15.1252 20.5118 15.125 20.625V33.6875C15.1255 34.052 15.2705 34.4015 15.5283 34.6592C15.786 34.917 16.1355 35.062 16.5 35.0625H22C22.3645 35.062 22.714 34.917 22.9717 34.6592C23.2295 34.4015 23.3745 34.052 23.375 33.6875V20.625C23.3748 20.5118 23.3468 20.4004 23.2935 20.3006C23.2401 20.2008 23.1631 20.1157 23.0691 20.0527ZM18.5625 11.6875H19.9375V12.375H18.5625V11.6875ZM22 33.6875H16.5V28.875H22V33.6875ZM22 27.5H16.5V23.375H22V27.5ZM22 22H16.5V20.9928L18.2566 19.8223C18.3506 19.7593 18.4276 19.6742 18.481 19.5744C18.5343 19.4746 18.5623 19.3632 18.5625 19.25V13.75H19.9375V19.25C19.9377 19.3632 19.9657 19.4746 20.019 19.5744C20.0724 19.6742 20.1494 19.7593 20.2434 19.8223L22 20.9928V22Z" fill="#B41529"/>
<path d="M20.625 29.5625H17.875C17.6927 29.5625 17.5178 29.6349 17.3889 29.7639C17.2599 29.8928 17.1875 30.0677 17.1875 30.25C17.1875 30.4323 17.2599 30.6072 17.3889 30.7361C17.5178 30.8651 17.6927 30.9375 17.875 30.9375H20.625C20.8073 30.9375 20.9822 30.8651 21.1111 30.7361C21.2401 30.6072 21.3125 30.4323 21.3125 30.25C21.3125 30.0677 21.2401 29.8928 21.1111 29.7639C20.9822 29.6349 20.8073 29.5625 20.625 29.5625Z" fill="#B41529"/>
<path d="M19.9375 31.625H18.5625C18.3802 31.625 18.2053 31.6974 18.0764 31.8264C17.9474 31.9553 17.875 32.1302 17.875 32.3125C17.875 32.4948 17.9474 32.6697 18.0764 32.7986C18.2053 32.9276 18.3802 33 18.5625 33H19.9375C20.1198 33 20.2947 32.9276 20.4236 32.7986C20.5526 32.6697 20.625 32.4948 20.625 32.3125C20.625 32.1302 20.5526 31.9553 20.4236 31.8264C20.2947 31.6974 20.1198 31.625 19.9375 31.625Z" fill="#B41529"/>
<path d="M11 37.8125H27.5C27.6823 37.8125 27.8572 37.7401 27.9861 37.6111C28.1151 37.4822 28.1875 37.3073 28.1875 37.125C28.1875 36.9427 28.1151 36.7678 27.9861 36.6389C27.8572 36.5099 27.6823 36.4375 27.5 36.4375H11C10.8177 36.4375 10.6428 36.5099 10.5139 36.6389C10.3849 36.7678 10.3125 36.9427 10.3125 37.125C10.3125 37.3073 10.3849 37.4822 10.5139 37.6111C10.6428 37.7401 10.8177 37.8125 11 37.8125Z" fill="#B41529"/>
<path d="M22.6875 38.5H13.0625C12.8802 38.5 12.7053 38.5724 12.5764 38.7014C12.4474 38.8303 12.375 39.0052 12.375 39.1875C12.375 39.3698 12.4474 39.5447 12.5764 39.6736C12.7053 39.8026 12.8802 39.875 13.0625 39.875H22.6875C22.8698 39.875 23.0447 39.8026 23.1736 39.6736C23.3026 39.5447 23.375 39.3698 23.375 39.1875C23.375 39.0052 23.3026 38.8303 23.1736 38.7014C23.0447 38.5724 22.8698 38.5 22.6875 38.5Z" fill="#B41529"/>
<path d="M25.4375 38.5H24.75C24.5677 38.5 24.3928 38.5724 24.2639 38.7014C24.1349 38.8303 24.0625 39.0052 24.0625 39.1875C24.0625 39.3698 24.1349 39.5447 24.2639 39.6736C24.3928 39.8026 24.5677 39.875 24.75 39.875H25.4375C25.6198 39.875 25.7947 39.8026 25.9236 39.6736C26.0526 39.5447 26.125 39.3698 26.125 39.1875C26.125 39.0052 26.0526 38.8303 25.9236 38.7014C25.7947 38.5724 25.6198 38.5 25.4375 38.5Z" fill="#B41529"/>
</svg>
