<svg width="44" height="44" viewBox="0 0 44 44" fill="none" xmlns="http://www.w3.org/2000/svg">
<path d="M18 18C14.8 18.8 12 16.3333 11 15C9.39997 24.2 18 27.8333 22.5 28.5C31.7 26.9 33.3333 20.1667 33 17C31.8333 16.1667 28.9 14.5 26.5 14.5C23.5 14.5 22 17 18 18Z" fill="#B41591"/>
<path d="M9.96881 17.1875C9.96881 22.906 13.975 27.749 19.4219 28.9407V39.172L13.0219 42.3718C12.6654 42.5501 12.4784 42.9502 12.5698 43.3379C12.6614 43.726 13.0078 43.9999 13.4063 43.9999H30.5938C30.9922 43.9999 31.3387 43.726 31.43 43.3379C31.5216 42.9502 31.3346 42.5504 30.9778 42.3718L24.5782 39.172V28.9407C30.1768 27.7155 34.1326 22.6841 34.0303 16.9991C33.9943 14.7933 33.6506 14.5096 30.572 0.668028C30.483 0.277282 30.1352 0 29.7344 0H25.5235C25.0488 0 24.6641 0.384704 24.6641 0.859373C24.6641 1.33404 25.0488 1.71875 25.5235 1.71875H29.0492C29.0492 1.71875 32.143 15.3073 32.1779 15.5224C30.3709 14.6342 28.2023 13.8057 26.3224 13.7503C24.3375 13.6906 22.5224 14.6882 20.7684 15.652C19.106 16.5654 17.5363 17.4282 16.1221 17.1985C14.9538 17.0092 13.5288 16.1555 11.9823 14.7235L14.9512 1.71875H18.6485C19.1232 1.71875 19.5079 1.33404 19.5079 0.859373C19.5079 0.384704 19.1232 0 18.6485 0H14.2657C13.8649 0 13.5171 0.277282 13.4278 0.668028C9.99869 15.6997 9.96881 15.2374 9.96881 17.1875H9.96881ZM26.9535 42.2812H17.0466L20.6657 40.4718C20.9567 40.3261 21.1407 40.0283 21.1407 39.703V29.1871C21.4263 29.2073 21.7134 29.2187 22 29.2187C22.2867 29.2187 22.5737 29.2073 22.8594 29.1871V39.703C22.8594 40.0287 23.0434 40.3261 23.3344 40.4718L26.9535 42.2812ZM21.5962 17.1583C23.1484 16.3056 24.7531 15.4234 26.2717 15.4684C27.783 15.5127 29.913 16.2391 32.3065 17.5208C32.1289 22.9208 27.645 27.5456 21.9141 27.4989C16.0489 27.4516 11.4593 22.4807 11.6973 16.7554C13.1824 17.9706 14.5735 18.6887 15.8468 18.8951C17.8603 19.2221 19.7912 18.1502 21.5962 17.1583Z" fill="#333333"/>
<path d="M22.9453 0.859375C22.9453 1.33405 22.5606 1.71875 22.0859 1.71875C21.6113 1.71875 21.2266 1.33405 21.2266 0.859375C21.2266 0.384705 21.6113 0 22.0859 0C22.5606 0 22.9453 0.384705 22.9453 0.859375Z" fill="#333333"/>
</svg>
