<svg width="24" height="24" viewBox="0 0 24 24" fill="none" xmlns="http://www.w3.org/2000/svg">
<path d="M20.576 9.17536C20.4916 8.91548 20.2642 8.72808 19.993 8.69475L14.7517 8.05106L12.52 3.26531C12.4045 3.01767 12.156 2.85938 11.8828 2.85938C11.6095 2.85938 11.361 3.01767 11.2455 3.26531L9.01375 8.05106L3.77251 8.6948C3.5013 8.72813 3.2739 8.91553 3.18948 9.17541C3.10501 9.43528 3.1788 9.72056 3.37862 9.90689L7.24051 13.5083L6.23308 18.6919C6.18095 18.9601 6.2889 19.2343 6.51001 19.3949C6.73108 19.5555 7.02517 19.5735 7.26414 19.441L11.8827 16.8811L16.5013 19.441C16.6078 19.5 16.7251 19.5292 16.8422 19.5292C16.9878 19.5292 17.1329 19.4839 17.2555 19.3949C17.4766 19.2342 17.5846 18.9601 17.5324 18.6919L16.525 13.5083L20.3868 9.90684C20.5867 9.72047 20.6604 9.43523 20.576 9.17536ZM15.2809 12.7457C15.1036 12.911 15.024 13.1561 15.0702 13.3941L15.8643 17.4802L12.2236 15.4622C12.1176 15.4035 12.0002 15.3741 11.8828 15.3741C11.7654 15.3741 11.6479 15.4035 11.542 15.4622L7.90122 17.4802L8.69533 13.3941C8.74155 13.1561 8.66195 12.9111 8.48467 12.7457L5.44047 9.90675L9.57198 9.39933C9.81264 9.3698 10.021 9.21834 10.1236 8.99864L11.8828 5.22614L13.6421 8.99864C13.7446 9.21834 13.953 9.3698 14.1937 9.39933L18.3252 9.90675L15.2809 12.7457Z" fill="#B41529"/>
<path d="M20.4853 3.51473C18.2188 1.24823 15.2054 0 12 0C8.79464 0 5.78119 1.24823 3.51473 3.51473C1.24823 5.78119 0 8.79469 0 12C0 15.2053 1.24823 18.2188 3.51473 20.4853C5.78119 22.7518 8.79464 24 12 24C15.2054 24 18.2188 22.7518 20.4853 20.4853C22.7518 18.2188 24 15.2053 24 12C24 8.79469 22.7518 5.78119 20.4853 3.51473ZM19.4909 19.4909C17.49 21.4918 14.8297 22.5938 12 22.5938C9.1703 22.5938 6.50995 21.4918 4.50909 19.4909C2.50819 17.49 1.40625 14.8297 1.40625 12C1.40625 9.1703 2.50819 6.51 4.50909 4.50909C6.50995 2.50819 9.1703 1.40625 12 1.40625C14.8297 1.40625 17.49 2.50819 19.4909 4.50909C21.4918 6.51 22.5938 9.1703 22.5938 12C22.5938 14.8297 21.4918 17.49 19.4909 19.4909Z" fill="#B41529"/>
</svg>
