<svg width="45" height="50" viewBox="0 0 45 50" fill="none" xmlns="http://www.w3.org/2000/svg">
<path d="M4.98024 37.5874L4.09091 36.7133L3.91304 37.0629L4.09091 36.014V34.965L3.91304 34.4406L3.55731 33.9161V32.8671L4.09091 32.5175V31.6434V30.0699L3.91304 29.1958L3.55731 28.6713L3.20158 27.4476L2.84585 26.5734L2.49012 25.5245L1.42292 24.6504L0.88933 23.7762V23.0769L1.24506 21.8531L1.42292 20.979V20.1049L0.35573 18.8811H1.42292L1.95652 18.3566V17.1329V16.2587L1.42292 15.2098H0.35573L0 14.5105V13.6364H1.42292L2.49012 13.1119L2.84585 12.4126L3.20158 11.5385V10.1399L3.91304 9.4406L4.98024 8.04196V7.16783L3.91304 6.29371L3.20158 5.41958H1.95652V4.02098C1.95652 3.74126 2.54941 3.55478 2.84585 3.4965V2.7972V1.3986L3.20158 0H5.8696H7.8261H9.7826L10.6719 0.52448L11.7391 1.74825L12.2727 2.27273V2.7972V4.02098L12.8063 4.37063L13.5178 4.8951L14.7628 5.41958H15.1186L15.4743 6.29371L16.1858 7.16783L16.7194 7.69231L17.253 8.39161L17.6087 9.0909V9.7902L18.1423 10.1399H19.2095H20.9881L21.3439 9.7902L22.0553 9.4406L23.1225 9.7902V10.1399L24.9012 9.7902L25.9684 9.4406H26.6798L27.747 9.0909L28.2806 8.39161L29.7036 8.04196H30.2372H32.0158L33.083 8.39161L33.9723 9.4406V10.1399L34.8617 11.1888L35.3953 12.4126V13.6364V15.2098L36.1067 15.7343H38.419H39.664L40.3755 16.6084L41.087 17.1329H42.1541H43.7549L44.4664 17.6573V18.3566L43.7549 19.5804L43.3992 20.1049V21.3287L43.7549 21.6783L44.4664 22.3776L45 23.7762V24.6504V25.5245L44.4664 26.5734L43.7549 27.4476L43.3992 28.6713L41.6206 30.0699L40.7312 30.5944V31.6434L41.6206 32.5175L42.1541 33.2168L43.3992 33.9161L44.4664 34.4406V34.965L43.3992 35.6643L42.8656 36.014H42.1541V37.0629L42.8656 37.5874L43.3992 38.6364V38.986V39.8601L42.8656 40.3846V41.4336V42.1329L42.1541 43.3566H41.6206H40.7312L40.0198 42.8322L38.7747 42.1329H37.8854L36.996 42.4825H35.751L34.8617 43.3566L34.3281 43.8811V44.9301V45.6294L33.9723 47.028L33.4387 48.2517V49.1259L32.1937 50H31.8379L31.3043 49.6503L30.5929 48.6014V47.7273L30.0593 47.028L29.3478 47.7273H28.4585H27.9249H27.2134L25.7905 48.2517V48.6014L25.2569 49.6503H24.5455H23.3004H22.7668H20.4545C19.8617 49.7086 18.5692 49.7902 18.1423 49.6503C17.7154 49.5105 17.6087 49.2424 17.6087 49.1259V48.2517C17.6087 47.972 17.9644 47.7855 18.1423 47.7273L18.6759 47.028L19.5652 46.3287V45.6294V44.4056L19.0316 43.3566C18.8538 43.2984 18.4269 43.1119 18.1423 42.8322C17.8577 42.5524 17.3123 42.7156 17.0751 42.8322C16.9565 42.5991 16.7194 42.0629 16.7194 41.7832C16.7194 41.5035 16.1265 41.4336 15.83 41.4336H15.1186L14.585 40.3846V39.3357C14.585 39.0559 14.2292 38.7529 14.0514 38.6364L13.5178 38.1119V37.0629L12.8063 36.7133H11.7391V37.5874L11.2055 38.6364H10.4941L9.9605 37.5874H9.249L7.2925 38.1119L6.0474 38.6364L5.6917 37.5874H4.98024Z" fill="url(#paint0_radial)"/>
<defs>
<radialGradient id="paint0_radial" cx="0" cy="0" r="1" gradientUnits="userSpaceOnUse" gradientTransform="translate(24 25) rotate(128.454) scale(21.7083 19.5375)">
<stop stop-color="#DD0924"/>
<stop offset="1" stop-color="#B41529"/>
</radialGradient>
</defs>
</svg>
