<svg width="47" height="75" viewBox="0 0 47 75" fill="none" xmlns="http://www.w3.org/2000/svg">
<path d="M11.1746 26.4785L11.6474 26.9468L12.4983 27.1342L13.2546 27.4152H13.9165C14.219 27.4152 14.4837 27.103 14.5783 26.9468L15.051 26.1975C14.988 26.0726 14.8619 25.7853 14.8619 25.6354C14.8619 25.573 14.8934 25.5106 14.9249 25.4481C14.988 25.3232 15.051 25.1983 14.8619 25.0734C14.635 24.9235 14.5783 24.6363 14.5783 24.5114V24.043H15.051L15.3346 23.5747L14.8619 23.1063L15.051 22.5443L16.3746 21.9823L17.131 21.7013L17.5092 21.3266V20.3899C17.5722 20.265 17.6605 19.9965 17.5092 19.9215C17.3579 19.8466 17.068 19.5781 16.9419 19.4532L16.3746 18.9848L15.9965 18.5165H15.3346L14.5783 18.1418L14.8619 17.4861L14.5783 16.9241C14.5468 16.8616 14.4648 16.718 14.3892 16.643C14.3136 16.5681 14.2316 16.362 14.2001 16.2684H13.2546L12.971 15.519V14.7696L12.6874 13.7392V13.1772L12.971 12.3342V11.5848L12.4983 10.2734L12.2146 9.52405C12.0886 9.43038 11.8365 9.20557 11.8365 9.0557C11.8365 8.94595 11.7716 8.80407 11.7178 8.68653C11.6798 8.60341 11.6474 8.53247 11.6474 8.49367V7.46329L11.3637 6.99494V6.1519L11.1746 5.58987V4.84051L11.6474 4.27848L11.8365 3.81013L12.2146 3.62278V3.2481L13.3492 2.68608L13.7274 2.31139L13.9165 1.74937V1L13.3492 1.37468L12.971 1.56203L12.6874 1.74937L12.2146 1.93671L11.8365 1.74937H11.3637L11.1746 2.12405L10.9856 2.68608L10.7019 2.87342L10.2292 3.2481L9.9455 3.62278V4.09114L10.0401 4.37215L9.66187 4.84051L9.28369 5.21519V6.33924L9.66187 6.8076V7.46329L9.9455 7.93165L10.0401 8.49367L9.9455 8.77468L9.66187 9.24304L9.9455 9.52405L9.66187 9.80506L9.0946 10.2734V10.5544C9.0946 10.7043 9.47278 10.9916 9.66187 11.1165H11.3637L11.6474 11.5848V11.8658L11.1746 12.0532V12.9899L11.6474 13.4582L11.1746 14.1139L10.7019 14.3949L10.4183 14.7696L10.0401 15.0506L9.9455 15.7063L10.4183 15.8937H10.9856L11.3637 16.2684L11.6474 16.643V17.7671L11.3637 18.1418V18.9848H11.6474L11.931 19.6405V20.6709L12.3092 21.3266L12.4037 21.6076L12.971 21.9823L13.0656 22.5443L13.4437 22.8253L13.6328 23.1063L13.4437 23.3873L12.971 23.8557L12.4983 24.2304L12.4037 24.7924V25.0734L11.931 25.6354H11.6474L10.9856 26.0101L11.1746 26.4785Z" fill="#C4C4C4"/>
<path d="M11.1746 26.4785L11.6474 26.9468L12.4983 27.1342L13.2546 27.4152H13.9165C14.219 27.4152 14.4837 27.103 14.5783 26.9468L15.051 26.1975C14.988 26.0726 14.8619 25.7853 14.8619 25.6354C14.8619 25.573 14.8934 25.5106 14.9249 25.4481C14.988 25.3232 15.051 25.1983 14.8619 25.0734C14.635 24.9235 14.5783 24.6363 14.5783 24.5114V24.043H15.051L15.3346 23.5747L14.8619 23.1063L15.051 22.5443L16.3746 21.9823L17.131 21.7013L17.5092 21.3266V20.3899C17.5722 20.265 17.6605 19.9965 17.5092 19.9215C17.3579 19.8466 17.068 19.5781 16.9419 19.4532L16.3746 18.9848L15.9965 18.5165H15.3346L14.5783 18.1418L14.8619 17.4861L14.5783 16.9241C14.5468 16.8616 14.4648 16.718 14.3892 16.643C14.3136 16.5681 14.2316 16.362 14.2001 16.2684H13.2546L12.971 15.519V14.7696L12.6874 13.7392V13.1772L12.971 12.3342V11.5848L12.4983 10.2734L12.2146 9.52405C12.0886 9.43038 11.8365 9.20557 11.8365 9.0557C11.8365 8.94595 11.7716 8.80407 11.7178 8.68653C11.6798 8.60341 11.6474 8.53247 11.6474 8.49367V7.46329L11.3637 6.99494V6.1519L11.1746 5.58987V4.84051L11.6474 4.27848L11.8365 3.81013L12.2146 3.62278V3.2481L13.3492 2.68608L13.7274 2.31139L13.9165 1.74937V1L13.3492 1.37468L12.971 1.56203L12.6874 1.74937L12.2146 1.93671L11.8365 1.74937H11.3637L11.1746 2.12405L10.9856 2.68608L10.7019 2.87342L10.2292 3.2481L9.9455 3.62278V4.09114L10.0401 4.37215L9.66187 4.84051L9.28369 5.21519V6.33924L9.66187 6.8076V7.46329L9.9455 7.93165L10.0401 8.49367L9.9455 8.77468L9.66187 9.24304L9.9455 9.52405L9.66187 9.80506L9.0946 10.2734V10.5544C9.0946 10.7043 9.47278 10.9916 9.66187 11.1165H11.3637L11.6474 11.5848V11.8658L11.1746 12.0532V12.9899L11.6474 13.4582L11.1746 14.1139L10.7019 14.3949L10.4183 14.7696L10.0401 15.0506L9.9455 15.7063L10.4183 15.8937H10.9856L11.3637 16.2684L11.6474 16.643V17.7671L11.3637 18.1418V18.9848H11.6474L11.931 19.6405V20.6709L12.3092 21.3266L12.4037 21.6076L12.971 21.9823L13.0656 22.5443L13.4437 22.8253L13.6328 23.1063L13.4437 23.3873L12.971 23.8557L12.4983 24.2304L12.4037 24.7924V25.0734L11.931 25.6354H11.6474L10.9856 26.0101L11.1746 26.4785Z" fill="url(#paint0_radial)"/>
<path d="M21.1018 35.0962L20.9127 34.7215L20.7236 33.9722V33.1291L21.1018 32.8481L21.6691 32.3797V31.8177L21.8582 31.443V31.2557L22.0473 30.6937H22.8982L23.1818 30.4127L23.4655 30.038H24.1273L24.7891 30.2253L24.9782 30.4127C25.1358 30.5063 25.4698 30.6937 25.5455 30.6937H27.0582V30.4127L27.5309 30.2253V29.5696L28.0036 29.3823L28.4764 29.5696L28.8545 29.757L29.1382 29.9443H29.8L29.9891 30.2253L30.5564 30.4127H30.84L31.0291 30.6937L31.4073 30.9747H32.4473L32.6364 30.6937L33.0145 30.4127L33.1091 30.6L33.4873 31.2557L34.3382 32.3797L34.4327 32.7544L34.6218 33.3165L34.8109 33.7848L35 33.9722V34.3468L34.8109 35.2835L34.4327 35.6582L34.1491 36.1266L33.96 36.6886L33.7709 37.0633V37.5316C33.7709 37.6066 33.3927 37.7502 33.2036 37.8127L32.4473 38H31.9745L31.7855 37.8127H31.2182V36.8759L30.84 36.6886L30.2727 36.2203L29.9891 36.1266L29.3273 35.6582V35.4709L29.1382 35.0962V34.8152L28.6655 34.6278L28.4764 34.8152H28.0036C28.0036 35.008 28.0481 35.0685 28.1066 35.148C28.1334 35.1844 28.1631 35.2247 28.1927 35.2835C28.2684 35.4334 28.0982 35.7207 28.0036 35.8456H27.5309L27.2473 36.2203L26.8691 36.1266C26.7745 36.0329 26.5855 35.8081 26.5855 35.6582V35.0962L26.1127 34.8152H25.5455L25.1673 35.0962H24.7891L24.6 35.4709L24.1273 35.6582L23.1818 35.4709L22.6145 35.2835H21.3855L21.1018 35.0962Z" fill="#C4C4C4"/>
<path d="M21.1018 35.0962L20.9127 34.7215L20.7236 33.9722V33.1291L21.1018 32.8481L21.6691 32.3797V31.8177L21.8582 31.443V31.2557L22.0473 30.6937H22.8982L23.1818 30.4127L23.4655 30.038H24.1273L24.7891 30.2253L24.9782 30.4127C25.1358 30.5063 25.4698 30.6937 25.5455 30.6937H27.0582V30.4127L27.5309 30.2253V29.5696L28.0036 29.3823L28.4764 29.5696L28.8545 29.757L29.1382 29.9443H29.8L29.9891 30.2253L30.5564 30.4127H30.84L31.0291 30.6937L31.4073 30.9747H32.4473L32.6364 30.6937L33.0145 30.4127L33.1091 30.6L33.4873 31.2557L34.3382 32.3797L34.4327 32.7544L34.6218 33.3165L34.8109 33.7848L35 33.9722V34.3468L34.8109 35.2835L34.4327 35.6582L34.1491 36.1266L33.96 36.6886L33.7709 37.0633V37.5316C33.7709 37.6066 33.3927 37.7502 33.2036 37.8127L32.4473 38H31.9745L31.7855 37.8127H31.2182V36.8759L30.84 36.6886L30.2727 36.2203L29.9891 36.1266L29.3273 35.6582V35.4709L29.1382 35.0962V34.8152L28.6655 34.6278L28.4764 34.8152H28.0036C28.0036 35.008 28.0481 35.0685 28.1066 35.148C28.1334 35.1844 28.1631 35.2247 28.1927 35.2835C28.2684 35.4334 28.0982 35.7207 28.0036 35.8456H27.5309L27.2473 36.2203L26.8691 36.1266C26.7745 36.0329 26.5855 35.8081 26.5855 35.6582V35.0962L26.1127 34.8152H25.5455L25.1673 35.0962H24.7891L24.6 35.4709L24.1273 35.6582L23.1818 35.4709L22.6145 35.2835H21.3855L21.1018 35.0962Z" fill="url(#paint1_radial)"/>
<path d="M9.37818 31.3494L9 31.443C9 31.5367 9.01891 31.7428 9.09455 31.8177L9.37818 32.0987L10.04 32.1924L10.1345 32.6608L10.5127 32.8481H11.1745V32.3797L10.8909 31.8177L10.6073 31.443L10.04 31.3494H9.37818Z" fill="#C4C4C4"/>
<path d="M9.37818 31.3494L9 31.443C9 31.5367 9.01891 31.7428 9.09455 31.8177L9.37818 32.0987L10.04 32.1924L10.1345 32.6608L10.5127 32.8481H11.1745V32.3797L10.8909 31.8177L10.6073 31.443L10.04 31.3494H9.37818Z" fill="url(#paint2_radial)"/>
<path d="M13.2544 30.2253L13.6326 29.6633H14.8617C14.9374 29.6633 15.2084 29.7882 15.3344 29.8506L15.7126 30.038L15.9017 30.5063L15.9963 31.0684V31.443L15.9017 31.7241L15.429 31.8177L14.8617 31.6304H14.389L13.7272 31.2557H13.0654L12.8763 31.0684L13.0654 30.6937L13.2544 30.2253Z" fill="#C4C4C4"/>
<path d="M13.2544 30.2253L13.6326 29.6633H14.8617C14.9374 29.6633 15.2084 29.7882 15.3344 29.8506L15.7126 30.038L15.9017 30.5063L15.9963 31.0684V31.443L15.9017 31.7241L15.429 31.8177L14.8617 31.6304H14.389L13.7272 31.2557H13.0654L12.8763 31.0684L13.0654 30.6937L13.2544 30.2253Z" fill="url(#paint3_radial)"/>
<path d="M1.46973 74L1.84551 73.813H2.59708L3.06681 73.6261H3.34864L3.81837 73.4391L4.2881 73.6261H5.22756L5.69729 73.1586V72.0368L6.16701 71.6629V70.4476L6.44885 70.0737L6.82463 69.6997L7.20042 69.5127H7.5762L8.04593 69.6997V69.8867L8.6096 69.6997L8.89144 69.3258L9.17328 68.8584H9.45511L9.73695 68.3909L10.1127 68.1105H10.3006L10.5825 67.3626V65.7734L10.3006 65.3994L10.5825 64.932L10.6764 64.8385L11.0522 64.932H11.6159L11.8977 64.8385V64.5581L12.0856 64.2776H12.4614L12.9311 64.1841L13.119 64.0907L13.3069 63.9037V63.6232L13.4008 63.2493H13.6827L14.0585 63.0623L14.3403 62.9688H14.7161L15.1858 63.0623L15.2797 63.2493V63.5297L15.0919 63.8102L14.9979 64.0907L14.81 64.2776L15.0919 64.4646H15.3737L15.8434 64.5581L16.2192 64.745L16.501 64.8385H17.2526L18.1921 65.3994L18.6618 65.7734L19.0376 65.8669L19.4134 66.0538H21.0104L21.3862 66.1473L21.5741 65.9603V65.5864L21.762 65.2125L21.5741 64.8385L21.1983 64.4646L20.8225 64.1841V62.5014H20.1649L19.6013 62.4079L19.3194 62.034L19.1315 61.6601L19.0376 61.3796V60.9122L19.1315 60.7252L19.6952 60.1643L19.8831 59.8839L19.977 59.6034V59.136L20.2589 58.949L20.6347 58.762L20.9165 58.6686H21.1983L21.3862 58.949L21.4802 59.136L21.762 59.0425L22.0438 59.136L22.4196 59.6034L22.7015 60.1643V60.5382L21.8559 61.0992L21.1983 61.3796L20.8225 61.6601V61.9405L21.2923 62.034L21.5741 62.3145L22.0438 62.4079L22.4196 62.5014L23.1712 62.3145L23.3591 62.034L23.7349 62.1275C23.7975 62.1275 23.9415 62.1462 24.0167 62.221L24.2046 62.4079L24.4864 62.7819V63.5297L24.2985 63.9037L24.2046 64.2776V64.3711H24.8622V64.745L24.6743 64.932V65.3994C24.6117 65.3994 24.4864 65.4368 24.4864 65.5864C24.4864 65.736 24.4238 65.8357 24.3925 65.8669L24.2985 66.1473L24.3925 66.4278L24.5804 66.6147L24.3925 66.8952L24.2985 67.3626L24.3925 67.9235V68.5779L24.2046 68.7649L24.2985 69.0453L24.4864 69.3258L24.8622 69.7932L25.4259 70.3541H25.8956L26.2714 70.5411L26.6472 70.915L27.6806 71.102H28.714L29.4656 70.915H30.8747L31.8142 71.102H32.7537L33.2234 71.6629L33.881 72.2238L34.6326 72.6912L35.572 73.1586L36.7933 73.7196H39.8935L40.4572 73.4391H41.2088L41.7724 73.2873L42.3361 72.8782H43.3695L44.0271 72.6912L44.5908 72.4108L44.7787 72.2238L45.6242 71.102L46 70.7281L45.6242 70.3541L44.7787 69.7932L44.4029 69.3258L44.1211 68.7649L43.9332 68.4844H43.3695L42.9937 68.1105L42.8058 67.6431L42.3361 67.3626L41.9064 66.9887L41.2088 66.7082L40.9269 66.9887L40.1754 66.8952L39.8935 66.9887L39.5177 67.0822L39.2359 67.3626L38.8601 66.9887V66.7082L38.9541 66.3343L38.7662 65.9603L38.6722 65.6799L38.8601 65.3994L39.2359 64.745L39.5177 64.3711L39.6117 63.9037L39.8935 63.5297L39.2359 62.9688L38.9541 62.4079L38.2965 62.221H37.1691L36.5115 62.1275L35.7599 61.5666L35.4781 61.0057L35.1023 60.3513L34.8205 60.0708L34.3507 59.7904H34.0689L33.6931 60.0708H32.7537L32.3779 60.2076L32.0021 60.0708L31.4384 59.7904H31.1566L30.9687 59.6034L30.7808 58.762V58.1077L30.5929 57.7337L30.1232 57.3598L30.405 57.0793L30.5929 56.7989L30.7808 56.051L30.9687 55.7705L31.1566 55.3966V55.0227L30.9687 54.4618L30.7808 54.0878L30.405 53.6204H29.9353L29.7474 53.34H29.1837L28.62 53.2221L28.3382 52.5921C28.2756 52.4363 28.1503 52.1059 28.1503 52.0312V51.5637L27.7745 51.1898L27.3048 50.9093L27.023 50.5354L26.5532 50.3484L26.3653 50.068V49.3201L26.0835 48.8527L25.4259 48.1983V47.9178L25.6138 47.6374L25.8017 47.2635L25.6138 46.8895L25.4259 46.4221L25.1441 46.0482L24.8622 45.7677L24.6743 45.4873L24.3925 45.1133L24.4864 44.8329V44.085L24.2985 43.9915H24.0167C23.9541 43.8669 23.81 43.5989 23.7349 43.5241C23.6597 43.4493 23.5157 43.1813 23.453 43.0567L23.2651 42.9632L23.453 42.4958L23.2651 42.3088C23.2025 42.2153 23.0585 42.0096 22.9833 41.9348C22.9081 41.8601 22.7641 41.5297 22.7015 41.3739L22.5136 41.187H21.762L21.1983 41.3739H20.3528L20.2589 41.7479L20.071 41.9348L19.6013 42.0283L19.0376 42.2153L18.286 42.3088L17.9102 42.6827L17.3466 43.0567L16.7829 43.1501L16.501 43.0567L16.1253 43.1501L15.8434 42.7762C15.8747 42.745 15.9186 42.6453 15.8434 42.4958L15.5616 41.9348L15.2797 41.5609L14.4342 41H13.7766L13.4008 41.187H11.8977L11.7098 41.3739V42.6827L11.8977 43.0567L11.7098 43.5241V44.085L11.334 44.3654L11.1461 44.8329V45.5807L11.334 45.7677L11.8977 46.0482L12.0726 46.4221L12.1795 46.983V47.7309L12.3674 48.3853V50.068L12.1795 50.7224L11.8977 51.0028L11.334 51.1898L10.8643 51.0028V50.5354L11.1461 50.068L10.3946 48.5722V47.4504L10.5825 46.796V45.5807H9.73695L9.45511 45.1133L8.13987 46.0482L7.38831 46.4221L6.91858 46.796L6.5428 47.4504L6.26096 48.0113L5.50939 48.7592C5.44676 48.7904 5.37787 48.8714 5.60334 48.9462C5.82881 49.021 6.1357 49.0397 6.26096 49.0397L6.5428 49.3201C6.5428 49.4448 6.58038 49.7314 6.73069 49.881C6.881 50.0306 6.91858 50.255 6.91858 50.3484L7.38831 50.7224H7.67015L7.95198 50.3484L8.32777 50.068L8.6096 49.881L9.07933 50.068L9.45511 50.3484H9.73695V51.0028L9.45511 51.5637V52.779L9.07933 53.0595H8.6096L8.32777 52.5921L8.13987 52.2181L7.95198 52.779V53.0595L7.67015 53.4334L7.38831 53.6204H6.91858L6.73069 53.0595V52.5921L6.5428 52.2181L5.88518 52.4051L5.50939 52.779C5.54071 52.8102 5.60334 52.9099 5.60334 53.0595C5.60334 53.2465 5.69729 53.6204 5.88518 53.6204C6.03549 53.6204 6.19833 53.8697 6.26096 53.9943L6.5428 54.3683L6.26096 54.7422L6.73069 55.0227L6.91858 55.3031L6.26096 55.5836L5.88518 55.7705L5.50939 56.051L5.60334 56.5184V56.9858L6.07307 57.3598L6.26096 57.6402V58.1076L6.5428 58.4816L6.73069 58.949L7.38831 59.0425L7.67015 59.136L7.95198 59.6034L7.67015 60.1643V60.5382L8.13987 60.7252L8.32777 61.0992L7.80925 61.3796L7.67015 61.6601V62.5014L7.80925 63.1558L7.95198 63.5297H8.89144L9.26722 63.6232V64.1841L9.45511 64.932L9.07933 65.7734L8.89144 66.1473V65.3994H8.32777L7.67015 65.5864L7.20042 66.1473L6.91858 66.6147V67.1756L6.82463 67.6431C6.79332 67.7677 6.69311 67.9983 6.5428 67.9235C6.39248 67.8487 6.04175 67.8923 5.88518 67.9235L5.41545 67.6431H4.2881L4.00626 67.9235L3.81837 67.6431H3.06681L2.78497 67.9235L2.31524 68.1105L1.93946 68.204V68.7649L2.59708 68.8584L3.06681 69.0453L2.78497 69.5127L2.31524 69.7932L2.12735 70.2606L1.84551 70.728L1.93946 70.8215V71.1955L1.28184 71.3824V71.6629L1 72.2238L1.18789 72.7847L1 73.4391V73.813L1.46973 74Z" fill="#C4C4C4"/>
<path d="M1.46973 74L1.84551 73.813H2.59708L3.06681 73.6261H3.34864L3.81837 73.4391L4.2881 73.6261H5.22756L5.69729 73.1586V72.0368L6.16701 71.6629V70.4476L6.44885 70.0737L6.82463 69.6997L7.20042 69.5127H7.5762L8.04593 69.6997V69.8867L8.6096 69.6997L8.89144 69.3258L9.17328 68.8584H9.45511L9.73695 68.3909L10.1127 68.1105H10.3006L10.5825 67.3626V65.7734L10.3006 65.3994L10.5825 64.932L10.6764 64.8385L11.0522 64.932H11.6159L11.8977 64.8385V64.5581L12.0856 64.2776H12.4614L12.9311 64.1841L13.119 64.0907L13.3069 63.9037V63.6232L13.4008 63.2493H13.6827L14.0585 63.0623L14.3403 62.9688H14.7161L15.1858 63.0623L15.2797 63.2493V63.5297L15.0919 63.8102L14.9979 64.0907L14.81 64.2776L15.0919 64.4646H15.3737L15.8434 64.5581L16.2192 64.745L16.501 64.8385H17.2526L18.1921 65.3994L18.6618 65.7734L19.0376 65.8669L19.4134 66.0538H21.0104L21.3862 66.1473L21.5741 65.9603V65.5864L21.762 65.2125L21.5741 64.8385L21.1983 64.4646L20.8225 64.1841V62.5014H20.1649L19.6013 62.4079L19.3194 62.034L19.1315 61.6601L19.0376 61.3796V60.9122L19.1315 60.7252L19.6952 60.1643L19.8831 59.8839L19.977 59.6034V59.136L20.2589 58.949L20.6347 58.762L20.9165 58.6686H21.1983L21.3862 58.949L21.4802 59.136L21.762 59.0425L22.0438 59.136L22.4196 59.6034L22.7015 60.1643V60.5382L21.8559 61.0992L21.1983 61.3796L20.8225 61.6601V61.9405L21.2923 62.034L21.5741 62.3145L22.0438 62.4079L22.4196 62.5014L23.1712 62.3145L23.3591 62.034L23.7349 62.1275C23.7975 62.1275 23.9415 62.1462 24.0167 62.221L24.2046 62.4079L24.4864 62.7819V63.5297L24.2985 63.9037L24.2046 64.2776V64.3711H24.8622V64.745L24.6743 64.932V65.3994C24.6117 65.3994 24.4864 65.4368 24.4864 65.5864C24.4864 65.736 24.4238 65.8357 24.3925 65.8669L24.2985 66.1473L24.3925 66.4278L24.5804 66.6147L24.3925 66.8952L24.2985 67.3626L24.3925 67.9235V68.5779L24.2046 68.7649L24.2985 69.0453L24.4864 69.3258L24.8622 69.7932L25.4259 70.3541H25.8956L26.2714 70.5411L26.6472 70.915L27.6806 71.102H28.714L29.4656 70.915H30.8747L31.8142 71.102H32.7537L33.2234 71.6629L33.881 72.2238L34.6326 72.6912L35.572 73.1586L36.7933 73.7196H39.8935L40.4572 73.4391H41.2088L41.7724 73.2873L42.3361 72.8782H43.3695L44.0271 72.6912L44.5908 72.4108L44.7787 72.2238L45.6242 71.102L46 70.7281L45.6242 70.3541L44.7787 69.7932L44.4029 69.3258L44.1211 68.7649L43.9332 68.4844H43.3695L42.9937 68.1105L42.8058 67.6431L42.3361 67.3626L41.9064 66.9887L41.2088 66.7082L40.9269 66.9887L40.1754 66.8952L39.8935 66.9887L39.5177 67.0822L39.2359 67.3626L38.8601 66.9887V66.7082L38.9541 66.3343L38.7662 65.9603L38.6722 65.6799L38.8601 65.3994L39.2359 64.745L39.5177 64.3711L39.6117 63.9037L39.8935 63.5297L39.2359 62.9688L38.9541 62.4079L38.2965 62.221H37.1691L36.5115 62.1275L35.7599 61.5666L35.4781 61.0057L35.1023 60.3513L34.8205 60.0708L34.3507 59.7904H34.0689L33.6931 60.0708H32.7537L32.3779 60.2076L32.0021 60.0708L31.4384 59.7904H31.1566L30.9687 59.6034L30.7808 58.762V58.1077L30.5929 57.7337L30.1232 57.3598L30.405 57.0793L30.5929 56.7989L30.7808 56.051L30.9687 55.7705L31.1566 55.3966V55.0227L30.9687 54.4618L30.7808 54.0878L30.405 53.6204H29.9353L29.7474 53.34H29.1837L28.62 53.2221L28.3382 52.5921C28.2756 52.4363 28.1503 52.1059 28.1503 52.0312V51.5637L27.7745 51.1898L27.3048 50.9093L27.023 50.5354L26.5532 50.3484L26.3653 50.068V49.3201L26.0835 48.8527L25.4259 48.1983V47.9178L25.6138 47.6374L25.8017 47.2635L25.6138 46.8895L25.4259 46.4221L25.1441 46.0482L24.8622 45.7677L24.6743 45.4873L24.3925 45.1133L24.4864 44.8329V44.085L24.2985 43.9915H24.0167C23.9541 43.8669 23.81 43.5989 23.7349 43.5241C23.6597 43.4493 23.5157 43.1813 23.453 43.0567L23.2651 42.9632L23.453 42.4958L23.2651 42.3088C23.2025 42.2153 23.0585 42.0096 22.9833 41.9348C22.9081 41.8601 22.7641 41.5297 22.7015 41.3739L22.5136 41.187H21.762L21.1983 41.3739H20.3528L20.2589 41.7479L20.071 41.9348L19.6013 42.0283L19.0376 42.2153L18.286 42.3088L17.9102 42.6827L17.3466 43.0567L16.7829 43.1501L16.501 43.0567L16.1253 43.1501L15.8434 42.7762C15.8747 42.745 15.9186 42.6453 15.8434 42.4958L15.5616 41.9348L15.2797 41.5609L14.4342 41H13.7766L13.4008 41.187H11.8977L11.7098 41.3739V42.6827L11.8977 43.0567L11.7098 43.5241V44.085L11.334 44.3654L11.1461 44.8329V45.5807L11.334 45.7677L11.8977 46.0482L12.0726 46.4221L12.1795 46.983V47.7309L12.3674 48.3853V50.068L12.1795 50.7224L11.8977 51.0028L11.334 51.1898L10.8643 51.0028V50.5354L11.1461 50.068L10.3946 48.5722V47.4504L10.5825 46.796V45.5807H9.73695L9.45511 45.1133L8.13987 46.0482L7.38831 46.4221L6.91858 46.796L6.5428 47.4504L6.26096 48.0113L5.50939 48.7592C5.44676 48.7904 5.37787 48.8714 5.60334 48.9462C5.82881 49.021 6.1357 49.0397 6.26096 49.0397L6.5428 49.3201C6.5428 49.4448 6.58038 49.7314 6.73069 49.881C6.881 50.0306 6.91858 50.255 6.91858 50.3484L7.38831 50.7224H7.67015L7.95198 50.3484L8.32777 50.068L8.6096 49.881L9.07933 50.068L9.45511 50.3484H9.73695V51.0028L9.45511 51.5637V52.779L9.07933 53.0595H8.6096L8.32777 52.5921L8.13987 52.2181L7.95198 52.779V53.0595L7.67015 53.4334L7.38831 53.6204H6.91858L6.73069 53.0595V52.5921L6.5428 52.2181L5.88518 52.4051L5.50939 52.779C5.54071 52.8102 5.60334 52.9099 5.60334 53.0595C5.60334 53.2465 5.69729 53.6204 5.88518 53.6204C6.03549 53.6204 6.19833 53.8697 6.26096 53.9943L6.5428 54.3683L6.26096 54.7422L6.73069 55.0227L6.91858 55.3031L6.26096 55.5836L5.88518 55.7705L5.50939 56.051L5.60334 56.5184V56.9858L6.07307 57.3598L6.26096 57.6402V58.1076L6.5428 58.4816L6.73069 58.949L7.38831 59.0425L7.67015 59.136L7.95198 59.6034L7.67015 60.1643V60.5382L8.13987 60.7252L8.32777 61.0992L7.80925 61.3796L7.67015 61.6601V62.5014L7.80925 63.1558L7.95198 63.5297H8.89144L9.26722 63.6232V64.1841L9.45511 64.932L9.07933 65.7734L8.89144 66.1473V65.3994H8.32777L7.67015 65.5864L7.20042 66.1473L6.91858 66.6147V67.1756L6.82463 67.6431C6.79332 67.7677 6.69311 67.9983 6.5428 67.9235C6.39248 67.8487 6.04175 67.8923 5.88518 67.9235L5.41545 67.6431H4.2881L4.00626 67.9235L3.81837 67.6431H3.06681L2.78497 67.9235L2.31524 68.1105L1.93946 68.204V68.7649L2.59708 68.8584L3.06681 69.0453L2.78497 69.5127L2.31524 69.7932L2.12735 70.2606L1.84551 70.728L1.93946 70.8215V71.1955L1.28184 71.3824V71.6629L1 72.2238L1.18789 72.7847L1 73.4391V73.813L1.46973 74Z" fill="url(#paint4_radial)"/>
<path d="M11.1746 26.4785L11.6474 26.9468L12.4983 27.1342L13.2546 27.4152H13.9165C14.219 27.4152 14.4837 27.103 14.5783 26.9468L15.051 26.1975C14.988 26.0726 14.8619 25.7853 14.8619 25.6354C14.8619 25.573 14.8934 25.5106 14.9249 25.4481C14.988 25.3232 15.051 25.1983 14.8619 25.0734C14.635 24.9235 14.5783 24.6363 14.5783 24.5114V24.043H15.051L15.3346 23.5747L14.8619 23.1063L15.051 22.5443L16.3746 21.9823L17.131 21.7013L17.5092 21.3266V20.3899C17.5722 20.265 17.6605 19.9965 17.5092 19.9215C17.3579 19.8466 17.068 19.5781 16.9419 19.4532L16.3746 18.9848L15.9965 18.5165H15.3346L14.5783 18.1418L14.8619 17.4861L14.5783 16.9241C14.5468 16.8616 14.4648 16.718 14.3892 16.643C14.3136 16.5681 14.2316 16.362 14.2001 16.2684H13.2546L12.971 15.519V14.7696L12.6874 13.7392V13.1772L12.971 12.3342V11.5848L12.4983 10.2734L12.2146 9.52405C12.0886 9.43038 11.8365 9.20557 11.8365 9.0557C11.8365 8.94595 11.7716 8.80407 11.7178 8.68653C11.6798 8.60341 11.6474 8.53247 11.6474 8.49367V7.46329L11.3637 6.99494V6.1519L11.1746 5.58987V4.84051L11.6474 4.27848L11.8365 3.81013L12.2146 3.62278V3.2481L13.3492 2.68608L13.7274 2.31139L13.9165 1.74937V1L13.3492 1.37468L12.971 1.56203L12.6874 1.74937L12.2146 1.93671L11.8365 1.74937H11.3637L11.1746 2.12405L10.9856 2.68608L10.7019 2.87342L10.2292 3.2481L9.9455 3.62278V4.09114L10.0401 4.37215L9.66187 4.84051L9.28369 5.21519V6.33924L9.66187 6.8076V7.46329L9.9455 7.93165L10.0401 8.49367L9.9455 8.77468L9.66187 9.24304L9.9455 9.52405L9.66187 9.80506L9.0946 10.2734V10.5544C9.0946 10.7043 9.47278 10.9916 9.66187 11.1165H11.3637L11.6474 11.5848V11.8658L11.1746 12.0532V12.9899L11.6474 13.4582L11.1746 14.1139L10.7019 14.3949L10.4183 14.7696L10.0401 15.0506L9.9455 15.7063L10.4183 15.8937H10.9856L11.3637 16.2684L11.6474 16.643V17.7671L11.3637 18.1418V18.9848H11.6474L11.931 19.6405V20.6709L12.3092 21.3266L12.4037 21.6076L12.971 21.9823L13.0656 22.5443L13.4437 22.8253L13.6328 23.1063L13.4437 23.3873L12.971 23.8557L12.4983 24.2304L12.4037 24.7924V25.0734L11.931 25.6354H11.6474L10.9856 26.0101L11.1746 26.4785Z" stroke="#B41529"/>
<path d="M21.1018 35.0962L20.9127 34.7215L20.7236 33.9722V33.1291L21.1018 32.8481L21.6691 32.3797V31.8177L21.8582 31.443V31.2557L22.0473 30.6937H22.8982L23.1818 30.4127L23.4655 30.038H24.1273L24.7891 30.2253L24.9782 30.4127C25.1358 30.5063 25.4698 30.6937 25.5455 30.6937H27.0582V30.4127L27.5309 30.2253V29.5696L28.0036 29.3823L28.4764 29.5696L28.8545 29.757L29.1382 29.9443H29.8L29.9891 30.2253L30.5564 30.4127H30.84L31.0291 30.6937L31.4073 30.9747H32.4473L32.6364 30.6937L33.0145 30.4127L33.1091 30.6L33.4873 31.2557L34.3382 32.3797L34.4327 32.7544L34.6218 33.3165L34.8109 33.7848L35 33.9722V34.3468L34.8109 35.2835L34.4327 35.6582L34.1491 36.1266L33.96 36.6886L33.7709 37.0633V37.5316C33.7709 37.6066 33.3927 37.7502 33.2036 37.8127L32.4473 38H31.9745L31.7855 37.8127H31.2182V36.8759L30.84 36.6886L30.2727 36.2203L29.9891 36.1266L29.3273 35.6582V35.4709L29.1382 35.0962V34.8152L28.6655 34.6278L28.4764 34.8152H28.0036C28.0036 35.008 28.0481 35.0685 28.1066 35.148C28.1334 35.1844 28.1631 35.2247 28.1927 35.2835C28.2684 35.4334 28.0982 35.7207 28.0036 35.8456H27.5309L27.2473 36.2203L26.8691 36.1266C26.7745 36.0329 26.5855 35.8081 26.5855 35.6582V35.0962L26.1127 34.8152H25.5455L25.1673 35.0962H24.7891L24.6 35.4709L24.1273 35.6582L23.1818 35.4709L22.6145 35.2835H21.3855L21.1018 35.0962Z" stroke="#B41529"/>
<path d="M9.37818 31.3494L9 31.443C9 31.5367 9.01891 31.7428 9.09455 31.8177L9.37818 32.0987L10.04 32.1924L10.1345 32.6608L10.5127 32.8481H11.1745V32.3797L10.8909 31.8177L10.6073 31.443L10.04 31.3494H9.37818Z" stroke="#B41529"/>
<path d="M13.2544 30.2253L13.6326 29.6633H14.8617C14.9374 29.6633 15.2084 29.7882 15.3344 29.8506L15.7126 30.038L15.9017 30.5063L15.9963 31.0684V31.443L15.9017 31.7241L15.429 31.8177L14.8617 31.6304H14.389L13.7272 31.2557H13.0654L12.8763 31.0684L13.0654 30.6937L13.2544 30.2253Z" stroke="#B41529"/>
<path d="M1.46973 74L1.84551 73.813H2.59708L3.06681 73.6261H3.34864L3.81837 73.4391L4.2881 73.6261H5.22756L5.69729 73.1586V72.0368L6.16701 71.6629V70.4476L6.44885 70.0737L6.82463 69.6997L7.20042 69.5127H7.5762L8.04593 69.6997V69.8867L8.6096 69.6997L8.89144 69.3258L9.17328 68.8584H9.45511L9.73695 68.3909L10.1127 68.1105H10.3006L10.5825 67.3626V65.7734L10.3006 65.3994L10.5825 64.932L10.6764 64.8385L11.0522 64.932H11.6159L11.8977 64.8385V64.5581L12.0856 64.2776H12.4614L12.9311 64.1841L13.119 64.0907L13.3069 63.9037V63.6232L13.4008 63.2493H13.6827L14.0585 63.0623L14.3403 62.9688H14.7161L15.1858 63.0623L15.2797 63.2493V63.5297L15.0919 63.8102L14.9979 64.0907L14.81 64.2776L15.0919 64.4646H15.3737L15.8434 64.5581L16.2192 64.745L16.501 64.8385H17.2526L18.1921 65.3994L18.6618 65.7734L19.0376 65.8669L19.4134 66.0538H21.0104L21.3862 66.1473L21.5741 65.9603V65.5864L21.762 65.2125L21.5741 64.8385L21.1983 64.4646L20.8225 64.1841V62.5014H20.1649L19.6013 62.4079L19.3194 62.034L19.1315 61.6601L19.0376 61.3796V60.9122L19.1315 60.7252L19.6952 60.1643L19.8831 59.8839L19.977 59.6034V59.136L20.2589 58.949L20.6347 58.762L20.9165 58.6686H21.1983L21.3862 58.949L21.4802 59.136L21.762 59.0425L22.0438 59.136L22.4196 59.6034L22.7015 60.1643V60.5382L21.8559 61.0992L21.1983 61.3796L20.8225 61.6601V61.9405L21.2923 62.034L21.5741 62.3145L22.0438 62.4079L22.4196 62.5014L23.1712 62.3145L23.3591 62.034L23.7349 62.1275C23.7975 62.1275 23.9415 62.1462 24.0167 62.221L24.2046 62.4079L24.4864 62.7819V63.5297L24.2985 63.9037L24.2046 64.2776V64.3711H24.8622V64.745L24.6743 64.932V65.3994C24.6117 65.3994 24.4864 65.4368 24.4864 65.5864C24.4864 65.736 24.4238 65.8357 24.3925 65.8669L24.2985 66.1473L24.3925 66.4278L24.5804 66.6147L24.3925 66.8952L24.2985 67.3626L24.3925 67.9235V68.5779L24.2046 68.7649L24.2985 69.0453L24.4864 69.3258L24.8622 69.7932L25.4259 70.3541H25.8956L26.2714 70.5411L26.6472 70.915L27.6806 71.102H28.714L29.4656 70.915H30.8747L31.8142 71.102H32.7537L33.2234 71.6629L33.881 72.2238L34.6326 72.6912L35.572 73.1586L36.7933 73.7196H39.8935L40.4572 73.4391H41.2088L41.7724 73.2873L42.3361 72.8782H43.3695L44.0271 72.6912L44.5908 72.4108L44.7787 72.2238L45.6242 71.102L46 70.7281L45.6242 70.3541L44.7787 69.7932L44.4029 69.3258L44.1211 68.7649L43.9332 68.4844H43.3695L42.9937 68.1105L42.8058 67.6431L42.3361 67.3626L41.9064 66.9887L41.2088 66.7082L40.9269 66.9887L40.1754 66.8952L39.8935 66.9887L39.5177 67.0822L39.2359 67.3626L38.8601 66.9887V66.7082L38.9541 66.3343L38.7662 65.9603L38.6722 65.6799L38.8601 65.3994L39.2359 64.745L39.5177 64.3711L39.6117 63.9037L39.8935 63.5297L39.2359 62.9688L38.9541 62.4079L38.2965 62.221H37.1691L36.5115 62.1275L35.7599 61.5666L35.4781 61.0057L35.1023 60.3513L34.8205 60.0708L34.3507 59.7904H34.0689L33.6931 60.0708H32.7537L32.3779 60.2076L32.0021 60.0708L31.4384 59.7904H31.1566L30.9687 59.6034L30.7808 58.762V58.1077L30.5929 57.7337L30.1232 57.3598L30.405 57.0793L30.5929 56.7989L30.7808 56.051L30.9687 55.7705L31.1566 55.3966V55.0227L30.9687 54.4618L30.7808 54.0878L30.405 53.6204H29.9353L29.7474 53.34H29.1837L28.62 53.2221L28.3382 52.5921C28.2756 52.4363 28.1503 52.1059 28.1503 52.0312V51.5637L27.7745 51.1898L27.3048 50.9093L27.023 50.5354L26.5532 50.3484L26.3653 50.068V49.3201L26.0835 48.8527L25.4259 48.1983V47.9178L25.6138 47.6374L25.8017 47.2635L25.6138 46.8895L25.4259 46.4221L25.1441 46.0482L24.8622 45.7677L24.6743 45.4873L24.3925 45.1133L24.4864 44.8329V44.085L24.2985 43.9915H24.0167C23.9541 43.8669 23.81 43.5989 23.7349 43.5241C23.6597 43.4493 23.5157 43.1813 23.453 43.0567L23.2651 42.9632L23.453 42.4958L23.2651 42.3088C23.2025 42.2153 23.0585 42.0096 22.9833 41.9348C22.9081 41.8601 22.7641 41.5297 22.7015 41.3739L22.5136 41.187H21.762L21.1983 41.3739H20.3528L20.2589 41.7479L20.071 41.9348L19.6013 42.0283L19.0376 42.2153L18.286 42.3088L17.9102 42.6827L17.3466 43.0567L16.7829 43.1501L16.501 43.0567L16.1253 43.1501L15.8434 42.7762C15.8747 42.745 15.9186 42.6453 15.8434 42.4958L15.5616 41.9348L15.2797 41.5609L14.4342 41H13.7766L13.4008 41.187H11.8977L11.7098 41.3739V42.6827L11.8977 43.0567L11.7098 43.5241V44.085L11.334 44.3654L11.1461 44.8329V45.5807L11.334 45.7677L11.8977 46.0482L12.0726 46.4221L12.1795 46.983V47.7309L12.3674 48.3853V50.068L12.1795 50.7224L11.8977 51.0028L11.334 51.1898L10.8643 51.0028V50.5354L11.1461 50.068L10.3946 48.5722V47.4504L10.5825 46.796V45.5807H9.73695L9.45511 45.1133L8.13987 46.0482L7.38831 46.4221L6.91858 46.796L6.5428 47.4504L6.26096 48.0113L5.50939 48.7592C5.44676 48.7904 5.37787 48.8714 5.60334 48.9462C5.82881 49.021 6.1357 49.0397 6.26096 49.0397L6.5428 49.3201C6.5428 49.4448 6.58038 49.7314 6.73069 49.881C6.881 50.0306 6.91858 50.255 6.91858 50.3484L7.38831 50.7224H7.67015L7.95198 50.3484L8.32777 50.068L8.6096 49.881L9.07933 50.068L9.45511 50.3484H9.73695V51.0028L9.45511 51.5637V52.779L9.07933 53.0595H8.6096L8.32777 52.5921L8.13987 52.2181L7.95198 52.779V53.0595L7.67015 53.4334L7.38831 53.6204H6.91858L6.73069 53.0595V52.5921L6.5428 52.2181L5.88518 52.4051L5.50939 52.779C5.54071 52.8102 5.60334 52.9099 5.60334 53.0595C5.60334 53.2465 5.69729 53.6204 5.88518 53.6204C6.03549 53.6204 6.19833 53.8697 6.26096 53.9943L6.5428 54.3683L6.26096 54.7422L6.73069 55.0227L6.91858 55.3031L6.26096 55.5836L5.88518 55.7705L5.50939 56.051L5.60334 56.5184V56.9858L6.07307 57.3598L6.26096 57.6402V58.1076L6.5428 58.4816L6.73069 58.949L7.38831 59.0425L7.67015 59.136L7.95198 59.6034L7.67015 60.1643V60.5382L8.13987 60.7252L8.32777 61.0992L7.80925 61.3796L7.67015 61.6601V62.5014L7.80925 63.1558L7.95198 63.5297H8.89144L9.26722 63.6232V64.1841L9.45511 64.932L9.07933 65.7734L8.89144 66.1473V65.3994H8.32777L7.67015 65.5864L7.20042 66.1473L6.91858 66.6147V67.1756L6.82463 67.6431C6.79332 67.7677 6.69311 67.9983 6.5428 67.9235C6.39248 67.8487 6.04175 67.8923 5.88518 67.9235L5.41545 67.6431H4.2881L4.00626 67.9235L3.81837 67.6431H3.06681L2.78497 67.9235L2.31524 68.1105L1.93946 68.204V68.7649L2.59708 68.8584L3.06681 69.0453L2.78497 69.5127L2.31524 69.7932L2.12735 70.2606L1.84551 70.728L1.93946 70.8215V71.1955L1.28184 71.3824V71.6629L1 72.2238L1.18789 72.7847L1 73.4391V73.813L1.46973 74Z" stroke="#B41529"/>
<defs>
<radialGradient id="paint0_radial" cx="0" cy="0" r="1" gradientUnits="userSpaceOnUse" gradientTransform="translate(23.5001 57.5) rotate(90) scale(16.5 22.5)">
<stop stop-color="#E21A34"/>
<stop offset="1" stop-color="#B41529"/>
</radialGradient>
<radialGradient id="paint1_radial" cx="0" cy="0" r="1" gradientUnits="userSpaceOnUse" gradientTransform="translate(23.5 57.5) rotate(90) scale(16.5 22.5)">
<stop stop-color="#E21A34"/>
<stop offset="1" stop-color="#B41529"/>
</radialGradient>
<radialGradient id="paint2_radial" cx="0" cy="0" r="1" gradientUnits="userSpaceOnUse" gradientTransform="translate(23.5 57.5) rotate(90) scale(16.5 22.5)">
<stop stop-color="#E21A34"/>
<stop offset="1" stop-color="#B41529"/>
</radialGradient>
<radialGradient id="paint3_radial" cx="0" cy="0" r="1" gradientUnits="userSpaceOnUse" gradientTransform="translate(23.4999 57.5) rotate(90) scale(16.5 22.5)">
<stop stop-color="#E21A34"/>
<stop offset="1" stop-color="#B41529"/>
</radialGradient>
<radialGradient id="paint4_radial" cx="0" cy="0" r="1" gradientUnits="userSpaceOnUse" gradientTransform="translate(23.5 57.5) rotate(90) scale(16.5 22.5)">
<stop stop-color="#E21A34"/>
<stop offset="1" stop-color="#B41529"/>
</radialGradient>
</defs>
</svg>
