<svg width="40" height="50" viewBox="0 0 40 50" fill="none" xmlns="http://www.w3.org/2000/svg">
<path d="M1.19107 38.6204L0 39.2176V41.0093H1.58809H2.87841L4.4665 41.3079L3.77171 42.5023L3.47395 43.2986L3.77171 43.6968C4.33416 43.7963 5.5385 43.9954 5.8561 43.9954C6.1737 43.9954 6.4516 44.5263 6.5509 44.7917L7.7419 46.0857H8.6352L9.6278 46.6829H11.8114L12.1092 47.3797L12.7047 48.375L13.6973 48.9723C14.2597 49.1713 15.4442 49.6292 15.6824 49.8681C15.9206 50.107 16.8404 49.9676 17.2705 49.8681L18.1638 48.375L18.66 46.6829L19.3548 45.6875L19.8511 44.7917L20.8437 43.2986L21.6377 42.5023L21.2407 41.9051L20.8437 41.3079H22.3325V40.1135V38.6204L21.6377 37.625L20.5459 36.5301L19.8511 35.9099H19.3548V34.4398V33.7431L19.8511 32.5486V31.7523L20.5459 30.8565H21.6377L22.3325 31.4537L23.4243 30.8565L23.9206 29.8611L25.0124 29.2639L25.8065 29.8611H26.6998L27.4938 29.2639L28.2878 28.6667H28.8834L29.7767 29.2639H30.5707L31.067 28.2685L32.5558 27.3727L33.9454 26.0787V24.9838V24.3866H35.2357L35.6328 22.4954L35.2357 21.5996V20.6042L35.8313 20.206L36.8238 19.1111L37.8164 18.5139V17.1204L39.4045 15.5278V14.7315L40 13.338V11.4468L39.4045 10.8495L37.8164 10.0532V8.95834V7.56482L38.9082 6.86806L38.5112 5.87269L37.8164 4.77778L37.2208 3.80818L36.8238 2.58797L35.6328 1.89121L34.3424 1.59259H33.2506L32.5558 1.09491L31.6625 0H30.3722L29.3797 0.69676L28.6849 1.59259L28.1886 2.58797L27.196 3.4838L26.1042 4.77778L25.3102 5.375V6.27084L25.0124 7.56482L24.1191 8.16204H23.5236L22.928 8.65973L22.4318 9.456L20.8437 10.0532H19.9504L18.4615 8.95834L17.9653 8.16204L17.469 6.86806L16.7742 6.27084L15.6824 5.87269H14.5906L13.995 5.375L12.7047 4.77778L11.9107 3.4838L10.6203 2.58797H9.1315L8.3375 3.4838L8.0397 4.77778L8.3375 5.87269V7.56482L9.1315 8.16204V8.95834V10.0532L8.3375 10.8495L7.7419 11.4468L8.0397 15.1296L7.7419 15.5278L7.4442 16.1826L8.0397 16.5232H9.1315L9.6278 16.9213V17.7176H8.3375L7.7419 18.5139L7.2457 19.1111L7.7419 19.9074L8.0397 20.6042L7.7419 21.1019L7.2457 21.5996V22.4954H8.0397L7.7419 23.4908H6.5509V24.3866V26.0787L5.8561 27.0741V28.6667L5.062 29.8611V31.7523V32.9468L4.4665 34.4398L3.47395 35.6343L2.38213 37.625L1.19107 38.6204Z" fill="url(#paint0_radial)"/>
<defs>
<radialGradient id="paint0_radial" cx="0" cy="0" r="1" gradientUnits="userSpaceOnUse" gradientTransform="translate(20 25) rotate(90) scale(25 20)">
<stop stop-color="#DD0018"/>
<stop offset="1" stop-color="#B41529"/>
</radialGradient>
</defs>
</svg>
