<svg width="10" height="12" viewBox="0 0 10 12" fill="none" xmlns="http://www.w3.org/2000/svg">
<path d="M9.0921 8.08066C9.26129 7.91718 9.26129 7.64509 9.0921 7.4759C8.92862 7.31242 8.65653 7.31242 8.49343 7.4759L5.42693 10.5424L5.42693 0.423372C5.42655 0.187488 5.23906 -1.73968e-07 5.00318 -1.84279e-07C4.7673 -1.9459e-07 4.57371 0.187488 4.57371 0.423372L4.57371 10.5424L1.51293 7.4759C1.34373 7.31242 1.07127 7.31242 0.908167 7.4759C0.738969 7.64509 0.738969 7.91756 0.908167 8.08066L4.70061 11.8731C4.86409 12.0423 5.13617 12.0423 5.29927 11.8731L9.0921 8.08066Z" fill="#333333"/>
</svg>
