<svg width="24" height="24" viewBox="0 0 24 24" fill="none" xmlns="http://www.w3.org/2000/svg">
<g clip-path="url(#clip0)">
<path d="M23.3702 18.5146L18.5125 15.2751C17.8961 14.8673 17.0697 15.0015 16.614 15.5834L15.199 17.4027C15.0172 17.6425 14.6866 17.7121 14.4235 17.5659L14.1544 17.4176C13.2621 16.9312 12.1519 16.3257 9.91501 14.0881C7.67814 11.8504 7.07144 10.7393 6.58509 9.8487L6.4375 9.57953C6.28935 9.31651 6.35759 8.98454 6.59746 8.80124L8.41556 7.38667C8.99729 6.93088 9.13166 6.10478 8.72433 5.48814L5.48481 0.630454C5.06736 0.00251618 4.22983 -0.185987 3.58356 0.202502L1.55225 1.42271C0.914006 1.79794 0.445747 2.40563 0.245667 3.11844C-0.485802 5.78364 0.064475 10.3834 6.84028 17.16C12.2303 22.5496 16.2429 23.999 19.0009 23.999C19.6356 24.0017 20.2679 23.9191 20.8806 23.7534C21.5936 23.5536 22.2014 23.0853 22.5764 22.4468L23.7978 20.4167C24.1868 19.7703 23.9984 18.9323 23.3702 18.5146ZM23.1087 20.0064L21.89 22.0377C21.6208 22.4985 21.1836 22.8373 20.6702 22.9831C18.2098 23.6586 13.9112 23.0991 7.40617 16.5941C0.901117 10.089 0.341653 5.79086 1.01716 3.33005C1.1632 2.816 1.50243 2.3783 1.9638 2.10863L3.99511 0.890009C4.27552 0.721284 4.63903 0.803069 4.82018 1.07556L6.57993 3.71756L8.05693 5.93282C8.23381 6.2003 8.17569 6.55879 7.92336 6.75672L6.10483 8.17129C5.55141 8.59446 5.39337 9.36014 5.7341 9.96783L5.8785 10.2302C6.38965 11.1677 7.02513 12.3339 9.34519 14.6536C11.6653 16.9732 12.8311 17.6087 13.7681 18.1198L14.0309 18.2646C14.6385 18.6053 15.4042 18.4473 15.8274 17.8939L17.242 16.0753C17.44 15.8232 17.7983 15.7651 18.0659 15.9418L22.9231 19.1813C23.1958 19.3623 23.2776 19.726 23.1087 20.0064Z" fill="#333333"/>
<path d="M13.5991 4.002C17.3524 4.00617 20.3939 7.04777 20.3982 10.801C20.3982 11.0219 20.5772 11.2009 20.7981 11.2009C21.019 11.2009 21.198 11.0219 21.198 10.801C21.1934 6.60617 17.794 3.20674 13.5991 3.20215C13.3783 3.20215 13.1992 3.38118 13.1992 3.60207C13.1992 3.82296 13.3783 4.002 13.5991 4.002Z" fill="#333333"/>
<path d="M13.5991 6.40166C16.0277 6.40452 17.9956 8.3725 17.9985 10.801C17.9985 11.0219 18.1776 11.2009 18.3984 11.2009C18.6193 11.2009 18.7984 11.0219 18.7984 10.801C18.795 7.93091 16.4692 5.60509 13.5991 5.60181C13.3783 5.60181 13.1992 5.78084 13.1992 6.00173C13.1992 6.22262 13.3783 6.40166 13.5991 6.40166Z" fill="#333333"/>
<path d="M13.5991 8.80131C14.703 8.80263 15.5975 9.69715 15.5989 10.801C15.5989 11.0219 15.7779 11.201 15.9988 11.201C16.2196 11.201 16.3987 11.0219 16.3987 10.801C16.3969 9.25561 15.1446 8.0032 13.5991 8.00146C13.3783 8.00146 13.1992 8.1805 13.1992 8.40139C13.1992 8.62228 13.3783 8.80131 13.5991 8.80131Z" fill="#333333"/>
</g>
<defs>
<clipPath id="clip0">
<rect width="24" height="24" fill="white"/>
</clipPath>
</defs>
</svg>
