<svg width="70" height="70" viewBox="0 0 70 70" fill="none" xmlns="http://www.w3.org/2000/svg">
<g clip-path="url(#clip0)">
<path d="M12.0313 30.625C11.729 30.625 11.4844 30.8696 11.4844 31.1719V68.3593C11.4844 68.6616 11.729 68.9062 12.0313 68.9062C12.3335 68.9062 12.5781 68.6616 12.5781 68.3593V31.1719C12.5781 30.8696 12.3335 30.625 12.0313 30.625Z" fill="#333333"/>
<path d="M13.125 68.9062C12.8233 68.9062 12.5781 68.6606 12.5781 68.3594C12.5781 68.0571 12.3335 67.8125 12.0313 67.8125C11.729 67.8125 11.4844 68.0571 11.4844 68.3594C11.4844 69.264 12.2203 70 13.125 70C13.4273 70 13.6719 69.7554 13.6719 69.4531C13.6719 69.1508 13.4273 68.9062 13.125 68.9062Z" fill="#333333"/>
<path d="M30.625 30.625C30.3227 30.625 30.0781 30.8696 30.0781 31.1719V68.3593C30.0781 68.6616 30.3227 68.9062 30.625 68.9062C30.9271 68.9062 31.1719 68.6616 31.1719 68.3593V31.1719C31.1719 30.8696 30.9273 30.625 30.625 30.625Z" fill="#333333"/>
<path d="M30.625 67.8125C30.3227 67.8125 30.0781 68.0571 30.0781 68.3594C30.0781 68.6606 29.833 68.9062 29.5312 68.9062C29.229 68.9062 28.9844 69.1508 28.9844 69.4531C28.9844 69.7554 29.229 70 29.5312 70C30.4359 70 31.1719 69.264 31.1719 68.3594C31.1719 68.0571 30.9273 67.8125 30.625 67.8125Z" fill="#333333"/>
<path d="M29.5313 68.9062H13.125C12.8227 68.9062 12.5781 69.1508 12.5781 69.4531C12.5781 69.7554 12.8227 70 13.125 70H29.5313C29.8334 70 30.0782 69.7554 30.0782 69.4531C30.0782 69.1508 29.8336 68.9062 29.5313 68.9062Z" fill="#333333"/>
<path d="M18.5938 0C18.2915 0 18.0469 0.24459 18.0469 0.546876V21.3282C18.0469 21.6305 18.2915 21.875 18.5938 21.875C18.896 21.875 19.1406 21.6305 19.1406 21.3282V0.546876C19.1406 0.24459 18.896 0 18.5938 0Z" fill="#333333"/>
<path d="M24.0625 0C23.7602 0 23.5156 0.24459 23.5156 0.546876V21.3282C23.5156 21.6305 23.7602 21.875 24.0625 21.875C24.3648 21.875 24.6094 21.6305 24.6094 21.3282V0.546876C24.6094 0.24459 24.3648 0 24.0625 0Z" fill="#333333"/>
<path d="M19.0488 21.0247C18.8805 20.7733 18.5414 20.7053 18.2904 20.8731C18.0127 21.0584 11.4844 25.4761 11.4844 31.1718C11.4844 31.4741 11.729 31.7187 12.0313 31.7187C12.3335 31.7187 12.5781 31.4741 12.5781 31.1718C12.5781 26.0636 18.8341 21.8253 18.8971 21.7831C19.1486 21.6153 19.216 21.2757 19.0488 21.0247Z" fill="#333333"/>
<path d="M24.3658 20.8733C24.1137 20.7056 23.7747 20.7734 23.6075 21.025C23.4403 21.276 23.5075 21.6156 23.7591 21.7833C23.8221 21.8254 30.078 26.0637 30.078 31.172C30.078 31.4743 30.3226 31.7188 30.6248 31.7188C30.927 31.7188 31.1717 31.4743 31.1717 31.172C31.1717 25.4763 24.6434 21.0586 24.3658 20.8733Z" fill="#333333"/>
<path d="M24.0625 0.000244141H18.5938C18.2915 0.000244141 18.0469 0.244834 18.0469 0.54712C18.0469 0.849406 18.2915 1.094 18.5938 1.094H24.0625C24.3648 1.094 24.6094 0.849406 24.6094 0.54712C24.6094 0.244834 24.3648 0.000244141 24.0625 0.000244141Z" fill="#333333"/>
<path d="M24.0625 14.219H18.5938C18.2915 14.219 18.0469 14.4636 18.0469 14.7659C18.0469 15.0682 18.2915 15.3127 18.5938 15.3127H24.0625C24.3648 15.3127 24.6094 15.0682 24.6094 14.7659C24.6094 14.4636 24.3648 14.219 24.0625 14.219Z" fill="#333333"/>
<path d="M22.9688 2.18774H19.6875C19.3852 2.18774 19.1406 2.43233 19.1406 2.73462C19.1406 3.03691 19.3852 3.2815 19.6875 3.2815H22.9688C23.271 3.2815 23.5156 3.03691 23.5156 2.73462C23.5156 2.43233 23.271 2.18774 22.9688 2.18774Z" fill="#333333"/>
<path d="M22.9688 4.37524H19.6875C19.3852 4.37524 19.1406 4.61983 19.1406 4.92212C19.1406 5.22441 19.3852 5.469 19.6875 5.469H22.9688C23.271 5.469 23.5156 5.22441 23.5156 4.92212C23.5156 4.61983 23.271 4.37524 22.9688 4.37524Z" fill="#333333"/>
<path d="M28.4375 38.2812H14.2188C13.9165 38.2812 13.6719 38.5258 13.6719 38.8281C13.6719 39.1304 13.9165 39.375 14.2188 39.375H28.4375C28.7397 39.375 28.9844 39.1304 28.9844 38.8281C28.9844 38.5258 28.7398 38.2812 28.4375 38.2812Z" fill="#333333"/>
<path d="M28.4375 57.9688H14.2188C13.9165 57.9688 13.6719 58.2133 13.6719 58.5156C13.6719 58.8179 13.9165 59.0625 14.2188 59.0625H28.4375C28.7397 59.0625 28.9844 58.8179 28.9844 58.5156C28.9844 58.2133 28.7398 57.9688 28.4375 57.9688Z" fill="#333333"/>
<path d="M21.3281 47.0312C20.4235 47.0312 19.6875 47.7672 19.6875 48.6719C19.6875 49.5765 20.4235 50.3125 21.3281 50.3125C22.2328 50.3125 22.9688 49.5765 22.9688 48.6719C22.9688 47.7672 22.2328 47.0312 21.3281 47.0312ZM21.3281 49.2188C21.0264 49.2188 20.7813 48.9731 20.7813 48.6719C20.7813 48.3707 21.0264 48.125 21.3281 48.125C21.6299 48.125 21.875 48.3707 21.875 48.6719C21.875 48.9731 21.6299 49.2188 21.3281 49.2188Z" fill="#333333"/>
<path d="M19.6875 44.2969C18.7828 44.2969 18.0469 45.0328 18.0469 45.9375C18.0469 46.842 18.7828 47.578 19.6875 47.578C20.5922 47.578 21.3281 46.842 21.3281 45.9375C21.3281 45.0328 20.5922 44.2969 19.6875 44.2969ZM19.6875 46.4842C19.3858 46.4842 19.1406 46.2386 19.1406 45.9375C19.1406 45.6363 19.3858 45.3906 19.6875 45.3906C19.9892 45.3906 20.2344 45.6363 20.2344 45.9375C20.2344 46.2386 19.9892 46.4842 19.6875 46.4842Z" fill="#333333"/>
<path d="M22.9688 44.2969C22.0641 44.2969 21.3281 45.0328 21.3281 45.9375C21.3281 46.842 22.0641 47.578 22.9688 47.578C23.8734 47.578 24.6094 46.842 24.6094 45.9375C24.6094 45.0328 23.8734 44.2969 22.9688 44.2969ZM22.9688 46.4842C22.667 46.4842 22.4219 46.2386 22.4219 45.9375C22.4219 45.6363 22.667 45.3906 22.9688 45.3906C23.2705 45.3906 23.5156 45.6363 23.5156 45.9375C23.5156 46.2386 23.2705 46.4842 22.9688 46.4842Z" fill="#333333"/>
<path d="M22.9688 41.5625C22.212 41.5625 20.7812 42.134 20.7812 44.2969C20.7812 44.5992 21.0258 44.8438 21.3281 44.8438C21.6304 44.8438 21.875 44.5992 21.875 44.2969C21.875 42.7652 22.7925 42.6616 22.9688 42.6563C23.271 42.6563 23.5156 42.4117 23.5156 42.1094C23.5156 41.8071 23.271 41.5625 22.9688 41.5625Z" fill="#333333"/>
<path d="M26.25 52.5H16.4063C16.104 52.5 15.8594 52.7446 15.8594 53.0469C15.8594 53.3492 16.104 53.5938 16.4063 53.5938H26.25C26.5522 53.5938 26.7969 53.3492 26.7969 53.0469C26.7969 52.7446 26.5523 52.5 26.25 52.5Z" fill="#333333"/>
<path d="M24.0625 54.6875H18.5938C18.2915 54.6875 18.0469 54.9321 18.0469 55.2344C18.0469 55.5367 18.2915 55.7812 18.5938 55.7812H24.0625C24.3648 55.7812 24.6094 55.5367 24.6094 55.2344C24.6094 54.9321 24.3648 54.6875 24.0625 54.6875Z" fill="#333333"/>
<path d="M24.3902 23.3963C24.151 23.212 23.8071 23.2601 23.6239 23.4993C23.4407 23.739 23.4866 24.0825 23.727 24.2657C25.6255 25.715 27.8888 28.0894 27.8888 31.1731C27.8888 31.4754 28.1334 31.72 28.4357 31.72C28.7379 31.72 28.9826 31.4754 28.9826 31.1731C28.9826 27.6425 26.4853 24.9951 24.3902 23.3963Z" fill="#333333"/>
<path d="M28.4375 30.626C28.1352 30.626 27.8906 30.8706 27.8906 31.1729V36.6405C27.8906 36.9428 28.1352 37.1874 28.4375 37.1874C28.7397 37.1874 28.9844 36.9428 28.9844 36.6405V31.1729C28.9844 30.8706 28.7398 30.626 28.4375 30.626Z" fill="#333333"/>
<path d="M28.4375 60.1562C28.1352 60.1562 27.8906 60.4008 27.8906 60.7031V66.1719C27.8906 66.4742 28.1352 66.7188 28.4375 66.7188C28.7397 66.7188 28.9844 66.4742 28.9844 66.1719V60.7031C28.9844 60.4008 28.7398 60.1562 28.4375 60.1562Z" fill="#333333"/>
<path d="M14.2188 38.2812C13.9165 38.2812 13.6719 38.5258 13.6719 38.8281V58.5155C13.6719 58.8178 13.9165 59.0624 14.2188 59.0624C14.521 59.0624 14.7656 58.8178 14.7656 58.5155V38.8281C14.7656 38.5258 14.521 38.2812 14.2188 38.2812Z" fill="#333333"/>
<path d="M28.4375 38.2812C28.1352 38.2812 27.8906 38.5258 27.8906 38.8281V58.5155C27.8906 58.8178 28.1352 59.0624 28.4375 59.0624C28.7397 59.0624 28.9844 58.8178 28.9844 58.5155V38.8281C28.9844 38.5258 28.7398 38.2812 28.4375 38.2812Z" fill="#333333"/>
<path d="M14.7656 68.3594C14.4633 68.3594 14.2188 68.604 14.2188 68.9062V69.4531C14.2188 69.7554 14.4633 70 14.7656 70C15.0679 70 15.3125 69.7554 15.3125 69.4531V68.9062C15.3125 68.604 15.0679 68.3594 14.7656 68.3594Z" fill="#333333"/>
<path d="M16.9531 68.3594C16.6508 68.3594 16.4062 68.604 16.4062 68.9062V69.4531C16.4062 69.7554 16.6508 70 16.9531 70C17.2554 70 17.5 69.7554 17.5 69.4531V68.9062C17.5 68.604 17.2554 68.3594 16.9531 68.3594Z" fill="#333333"/>
<path d="M19.1406 68.3594C18.8383 68.3594 18.5938 68.604 18.5938 68.9062V69.4531C18.5938 69.7554 18.8383 70 19.1406 70C19.4429 70 19.6875 69.7554 19.6875 69.4531V68.9062C19.6875 68.604 19.4429 68.3594 19.1406 68.3594Z" fill="#333333"/>
<path d="M21.3281 68.3594C21.0258 68.3594 20.7812 68.604 20.7812 68.9062V69.4531C20.7812 69.7554 21.0258 70 21.3281 70C21.6304 70 21.875 69.7554 21.875 69.4531V68.9062C21.875 68.604 21.6304 68.3594 21.3281 68.3594Z" fill="#333333"/>
<path d="M23.5156 68.3594C23.2133 68.3594 22.9688 68.604 22.9688 68.9062V69.4531C22.9688 69.7554 23.2133 70 23.5156 70C23.8179 70 24.0625 69.7554 24.0625 69.4531V68.9062C24.0625 68.604 23.8179 68.3594 23.5156 68.3594Z" fill="#333333"/>
<path d="M25.7031 68.3594C25.4008 68.3594 25.1562 68.604 25.1562 68.9062V69.4531C25.1562 69.7554 25.4008 70 25.7031 70C26.0053 70 26.25 69.7554 26.25 69.4531V68.9062C26.25 68.604 26.0054 68.3594 25.7031 68.3594Z" fill="#333333"/>
<path d="M27.8906 68.3594C27.5883 68.3594 27.3438 68.604 27.3438 68.9062V69.4531C27.3438 69.7554 27.5883 70 27.8906 70C28.1928 70 28.4375 69.7554 28.4375 69.4531V68.9062C28.4375 68.604 28.1929 68.3594 27.8906 68.3594Z" fill="#333333"/>
<path d="M48.3315 53.6343C48.2416 53.598 39.3549 49.9151 38.8732 44.2254C38.382 38.401 42.114 32.623 42.1513 32.5653C42.3169 32.3128 42.2465 31.9736 41.9933 31.8086C41.7423 31.6425 41.4016 31.7145 41.2371 31.9655C41.0736 32.214 37.2594 38.1105 37.7839 44.3173C38.3212 50.6757 47.5273 54.4889 47.9192 54.6469C47.9865 54.6747 48.056 54.6875 48.1254 54.6875C48.3412 54.6875 48.5451 54.5594 48.6315 54.3467C48.7448 54.0668 48.6113 53.7475 48.3315 53.6343Z" fill="#333333"/>
<path d="M55.0133 31.9658C54.8489 31.7138 54.5093 31.6422 54.256 31.8088C54.0039 31.9738 53.9335 32.3129 54.098 32.5656C54.1364 32.6233 57.8685 38.4011 57.3771 44.2256C56.8953 49.9153 48.0086 53.5981 47.919 53.6345C47.6391 53.7477 47.5046 54.0671 47.6189 54.3469C47.7043 54.5594 47.9094 54.6877 48.1251 54.6877C48.1935 54.6877 48.2629 54.6748 48.3313 54.6472C48.7223 54.489 57.9282 50.6759 58.4666 44.3175C58.99 38.1106 55.1758 32.2141 55.0133 31.9658Z" fill="#333333"/>
<path d="M54.5535 31.7188H41.6914C41.3891 31.7188 41.1445 31.9633 41.1445 32.2656C41.1445 32.5679 41.3891 32.8125 41.6914 32.8125H54.5535C54.8558 32.8125 55.1004 32.5679 55.1004 32.2656C55.1004 31.9633 54.8558 31.7188 54.5535 31.7188Z" fill="#333333"/>
<path d="M48.125 53.5938C47.8227 53.5938 47.5781 53.8383 47.5781 54.1406V67.2657C47.5781 67.5679 47.8227 67.8125 48.125 67.8125C48.4273 67.8125 48.6719 67.5679 48.6719 67.2657V54.1406C48.6719 53.8383 48.4273 53.5938 48.125 53.5938Z" fill="#333333"/>
<path d="M55.7811 68.9062H40.4688C40.1665 68.9062 39.9219 69.1508 39.9219 69.4531C39.9219 69.7554 40.1665 70 40.4688 70H55.7811C56.0834 70 56.328 69.7554 56.328 69.4531C56.328 69.1508 56.0834 68.9062 55.7811 68.9062Z" fill="#333333"/>
<path d="M51.71 68.998L48.4287 66.8105C48.1755 66.6416 47.837 66.71 47.6704 66.9621C47.5026 67.2142 47.5699 67.5527 47.822 67.7205L51.1032 69.908C51.1962 69.97 51.3019 69.9999 51.4055 69.9999C51.5828 69.9999 51.7559 69.9144 51.8616 69.7564C52.0294 69.5043 51.961 69.1658 51.71 68.998Z" fill="#333333"/>
<path d="M48.5803 66.962C48.4126 66.71 48.073 66.6417 47.822 66.8104L44.5407 68.9979C44.2887 69.1656 44.2213 69.5042 44.3891 69.7563C44.4938 69.9143 44.6678 69.9998 44.8441 69.9998C44.9488 69.9998 45.0534 69.9698 45.1474 69.9079L48.4287 67.7204C48.6797 67.5526 48.7481 67.214 48.5803 66.962Z" fill="#333333"/>
<path d="M57.9676 42.6562H38.2813C37.979 42.6562 37.7344 42.9008 37.7344 43.2031C37.7344 43.5054 37.979 43.75 38.2813 43.75H57.9676C58.2698 43.75 58.5144 43.5054 58.5144 43.2031C58.5144 42.9008 58.2698 42.6562 57.9676 42.6562Z" fill="#333333"/>
<path d="M55.584 44.9014C55.3127 44.7658 54.9847 44.8757 54.8491 45.1449C54.1398 46.559 52.2911 49.2592 47.8808 51.4638C47.6105 51.5983 47.5006 51.9273 47.6362 52.1976C47.7324 52.3888 47.9246 52.4999 48.1254 52.4999C48.2077 52.4999 48.291 52.4806 48.37 52.4422C53.0622 50.0955 55.0562 47.17 55.8264 45.6363C55.9621 45.366 55.8532 45.0381 55.584 44.9014Z" fill="#333333"/>
</g>
<defs>
<clipPath id="clip0">
<rect width="70" height="70" fill="white"/>
</clipPath>
</defs>
</svg>
