<svg width="24" height="24" viewBox="0 0 24 24" fill="none" xmlns="http://www.w3.org/2000/svg">
<path d="M22.2248 1.7752C21.08 0.630469 19.558 0 17.9391 0C16.3201 0 14.7981 0.630469 13.6533 1.7752L10.0899 5.33864C9.23447 6.19406 8.66672 7.2585 8.43342 8.43333C7.25864 8.66663 6.19411 9.23438 5.33869 10.0898L1.7753 13.6533C0.630469 14.7981 0 16.3201 0 17.9391C0 19.558 0.630469 21.0801 1.7752 22.2248C2.91998 23.3695 4.44202 24 6.06094 24C7.67986 24 9.20189 23.3695 10.3467 22.2248L13.9101 18.6614C14.7655 17.8059 15.3333 16.7415 15.5666 15.5667C16.7414 15.3334 17.8059 14.7656 18.6613 13.9102L22.2247 10.3467C23.3695 9.20194 24 7.67986 24 6.06094C24 4.44202 23.3695 2.91998 22.2248 1.7752ZM13.2574 18.0086L9.69394 21.5721C7.69073 23.5753 4.43114 23.5753 2.42789 21.5721C1.45748 20.6016 0.923109 19.3114 0.923109 17.9391C0.923109 16.5667 1.45758 15.2765 2.42794 14.3061L5.99133 10.7426C6.78478 9.94922 7.78964 9.44667 8.89725 9.28927C8.95195 9.28153 9.00661 9.27492 9.06122 9.26888C9.07575 9.26728 9.09023 9.26583 9.10481 9.26437C9.14991 9.25978 9.19495 9.25575 9.24 9.25237C9.25059 9.25153 9.26128 9.25059 9.27188 9.24984C9.32653 9.24605 9.38119 9.24314 9.4358 9.24113C9.44691 9.2407 9.45802 9.24052 9.46912 9.24014C9.51412 9.23873 9.55912 9.23794 9.60413 9.23775C9.61823 9.2377 9.63239 9.23756 9.6465 9.23761C9.69122 9.23775 9.73594 9.2385 9.78061 9.23981C9.78708 9.24 9.79355 9.24005 9.80002 9.24023C9.85139 9.24197 9.90277 9.24459 9.95405 9.24783C9.96656 9.24867 9.97903 9.24966 9.9915 9.25059C10.0305 9.25336 10.0695 9.25655 10.1084 9.26025C10.1239 9.2617 10.1395 9.26325 10.155 9.26484C10.1943 9.26892 10.2335 9.27352 10.2727 9.27844C10.2847 9.27994 10.2967 9.28134 10.3088 9.28294C10.3595 9.28973 10.4102 9.29728 10.4608 9.30562C10.4695 9.30708 10.4782 9.30877 10.4869 9.31022C10.5287 9.31734 10.5705 9.32498 10.6123 9.33314C10.6277 9.33614 10.6431 9.33933 10.6585 9.34252C10.6956 9.35011 10.7326 9.35822 10.7697 9.36666C10.7838 9.36989 10.7979 9.37298 10.812 9.37636C10.8623 9.38827 10.9124 9.40073 10.9624 9.41414C11.0704 9.44316 11.1774 9.47569 11.283 9.51178C12.0228 9.76392 12.7001 10.1853 13.2574 10.7426C13.2586 10.7438 13.2597 10.7449 13.2608 10.7461C13.2958 10.7812 13.3303 10.8169 13.3642 10.8529C13.3756 10.865 13.3867 10.8773 13.398 10.8895C13.422 10.9155 13.4458 10.9417 13.4692 10.9681C13.4813 10.9817 13.4933 10.9954 13.5052 11.0091C13.5287 11.0361 13.5518 11.0634 13.5747 11.091C13.5849 11.1032 13.5952 11.1153 13.6052 11.1277C13.6374 11.1671 13.6693 11.207 13.7003 11.2473C13.7025 11.2502 13.7047 11.2532 13.7069 11.2561C13.7357 11.2938 13.764 11.332 13.7917 11.3705C13.8013 11.3837 13.8105 11.397 13.8199 11.4103C13.8405 11.4393 13.8608 11.4685 13.8807 11.4979C13.8906 11.5125 13.9005 11.5273 13.9102 11.542C13.9303 11.5724 13.95 11.603 13.9695 11.6338C13.9775 11.6465 13.9858 11.6592 13.9937 11.672C14.0205 11.7153 14.0468 11.7589 14.0723 11.8029C14.0751 11.8076 14.0776 11.8125 14.0804 11.8171C14.103 11.8567 14.1253 11.8965 14.1469 11.9365C14.1547 11.9509 14.1622 11.9653 14.1698 11.9797C14.1863 12.0111 14.2026 12.0427 14.2185 12.0744C14.2264 12.09 14.2342 12.1057 14.2418 12.1213C14.2581 12.1545 14.2739 12.188 14.2894 12.2215C14.2955 12.2347 14.3017 12.2476 14.3077 12.2608C14.3287 12.3073 14.349 12.354 14.3687 12.401C14.3714 12.4076 14.3739 12.4142 14.3766 12.4207C14.3902 12.4538 14.4032 12.487 14.4162 12.5204C14.4148 12.5204 14.4134 12.5205 14.412 12.5205C14.3655 12.521 14.3191 12.5204 14.2728 12.5187C14.2718 12.5187 14.2708 12.5186 14.2697 12.5186C13.7401 12.4987 13.2272 12.3363 12.7853 12.0467C12.781 12.0439 12.7768 12.0411 12.7725 12.0382C12.7349 12.0133 12.6976 11.9875 12.661 11.9607C12.6596 11.9597 12.6583 11.9587 12.6569 11.9576C12.6224 11.9322 12.5884 11.9057 12.5549 11.8787C12.5496 11.8744 12.5442 11.8702 12.539 11.8659C12.5059 11.8388 12.4734 11.8109 12.4414 11.7823C12.435 11.7765 12.4287 11.7707 12.4223 11.7649C12.3898 11.7352 12.3576 11.705 12.3263 11.6736C11.424 10.7713 10.135 10.3808 8.87883 10.6291C8.13516 10.7761 7.45861 11.1373 6.92227 11.6736L3.35887 15.237C3.22373 15.3721 3.09998 15.5157 2.98814 15.6664C2.50331 16.3197 2.24128 17.1088 2.24128 17.939C2.24128 18.5093 2.36522 19.0601 2.59983 19.5609C2.78555 19.9574 3.04045 20.3225 3.35887 20.6409C4.07958 21.3616 5.03916 21.7585 6.06084 21.7585C7.08253 21.7585 8.04216 21.3616 8.76281 20.6409L12.3263 17.0775C12.3568 17.047 12.3865 17.016 12.4159 16.9845C12.4251 16.9747 12.4341 16.9646 12.4432 16.9547C12.4635 16.9325 12.4837 16.9101 12.5034 16.8874C12.5132 16.8762 12.5229 16.865 12.5325 16.8537C12.5526 16.8302 12.5723 16.8064 12.5917 16.7824C12.5995 16.7729 12.6074 16.7634 12.615 16.7538C12.6415 16.7205 12.6675 16.6869 12.6929 16.6528C12.6972 16.6471 12.7012 16.6413 12.7053 16.6356C12.7265 16.6068 12.7472 16.5778 12.7675 16.5485C12.7754 16.5369 12.7832 16.5254 12.7911 16.5138C12.8077 16.4893 12.8239 16.4646 12.8399 16.4397C12.8476 16.4277 12.8554 16.4156 12.863 16.4034C12.8802 16.3758 12.8971 16.348 12.9136 16.32C12.9188 16.3112 12.9242 16.3025 12.9294 16.2936C12.9507 16.2569 12.9713 16.2199 12.9913 16.1825C12.996 16.1738 13.0004 16.1649 13.005 16.1562C13.0203 16.1272 13.0352 16.0979 13.0498 16.0684C13.056 16.0556 13.0622 16.0428 13.0684 16.03C13.0812 16.0032 13.0937 15.9763 13.1059 15.9492C13.1115 15.9366 13.1173 15.924 13.1228 15.9114C13.1371 15.8788 13.1509 15.846 13.1642 15.813C13.1669 15.8063 13.1697 15.7998 13.1723 15.7932C13.188 15.7538 13.203 15.714 13.2173 15.6741C13.2215 15.6626 13.2253 15.651 13.2293 15.6395C13.2362 15.6199 13.2432 15.6004 13.2497 15.5808C13.2783 15.5862 13.307 15.5908 13.3357 15.5958C13.3567 15.5995 13.3776 15.6034 13.3986 15.6068C13.4512 15.6154 13.5038 15.6232 13.5565 15.6304C13.5651 15.6315 13.5736 15.633 13.5822 15.6341C13.6428 15.6421 13.7034 15.6491 13.7641 15.6552C13.785 15.6573 13.806 15.659 13.8268 15.6608C13.8672 15.6645 13.9077 15.668 13.9482 15.6709C13.973 15.6726 13.9979 15.674 14.0228 15.6754C14.0597 15.6775 14.0966 15.6795 14.1336 15.6809C14.1593 15.6819 14.1852 15.6828 14.2109 15.6834C14.2479 15.6844 14.285 15.6849 14.322 15.6853C14.3383 15.6854 14.3545 15.6861 14.3707 15.6861C14.3789 15.6861 14.387 15.6857 14.3951 15.6857C14.4505 15.6855 14.5058 15.6844 14.5613 15.6827C14.5709 15.6824 14.5804 15.6824 14.5899 15.682C14.5914 15.682 14.5929 15.682 14.5944 15.6819C14.3659 16.5602 13.9101 17.3559 13.2574 18.0086ZM11.6435 8.65969C11.6441 8.65809 11.6447 8.65631 11.6453 8.65458C11.661 8.60991 11.6781 8.5658 11.696 8.52202C11.7002 8.51175 11.7045 8.50163 11.7089 8.49141C11.7255 8.45198 11.743 8.41284 11.7614 8.37422C11.7638 8.36897 11.7662 8.36363 11.7688 8.35833C11.7893 8.31581 11.8112 8.27391 11.8339 8.23252C11.8393 8.22253 11.8448 8.21273 11.8505 8.2028C11.8719 8.16459 11.8941 8.12677 11.9174 8.08959C11.9197 8.0858 11.9219 8.08195 11.9243 8.07816C11.9496 8.03813 11.9761 7.99884 12.0033 7.96003C12.01 7.95052 12.0168 7.94105 12.0236 7.93162C12.0502 7.89464 12.0774 7.85813 12.1059 7.82241C12.1075 7.82039 12.109 7.81828 12.1106 7.81627C12.1404 7.77895 12.1715 7.74258 12.2032 7.70662C12.211 7.69781 12.2189 7.68905 12.2268 7.68028C12.2591 7.64456 12.2921 7.60922 12.3264 7.57495L15.8899 4.01152C16.4362 3.46514 17.164 3.16425 17.9391 3.16425C18.7142 3.16425 19.442 3.46519 19.9883 4.01152C20.0225 4.04569 20.0557 4.08052 20.0879 4.11605C20.5712 4.64902 20.8356 5.33409 20.8356 6.06075C20.8356 6.78745 20.5711 7.47248 20.0879 8.0055C20.0557 8.04103 20.0225 8.07591 19.9883 8.11003L16.4249 11.6735C16.3906 11.7078 16.3553 11.7407 16.3196 11.7731C16.3108 11.781 16.302 11.7889 16.2932 11.7967C16.2573 11.8284 16.2209 11.8595 16.1837 11.8893C16.1816 11.8909 16.1794 11.8925 16.1774 11.8941C16.1417 11.9225 16.1052 11.9497 16.0683 11.9763C16.0589 11.9831 16.0494 11.9899 16.0399 11.9966C16.0011 12.0238 15.9619 12.0503 15.9219 12.0755C15.918 12.078 15.914 12.0803 15.9101 12.0827C15.873 12.1058 15.8354 12.1279 15.7973 12.1493C15.7874 12.1549 15.7774 12.1605 15.7674 12.166C15.726 12.1886 15.6842 12.2104 15.6418 12.231C15.6364 12.2336 15.631 12.2359 15.6256 12.2385C15.5871 12.2568 15.5481 12.2742 15.5088 12.2909C15.4985 12.2952 15.4883 12.2996 15.4779 12.3038C15.4343 12.3217 15.3902 12.3387 15.3456 12.3545C15.3438 12.3551 15.342 12.3556 15.3402 12.3563C15.3309 12.3301 15.321 12.3042 15.3114 12.2781C15.3039 12.258 15.2967 12.2377 15.289 12.2176C15.2713 12.1711 15.2528 12.1249 15.234 12.0788C15.2295 12.068 15.2253 12.0569 15.2208 12.0461C15.1972 11.9895 15.1726 11.9332 15.1473 11.8773C15.1401 11.8613 15.1324 11.8456 15.125 11.8297C15.1065 11.7897 15.0878 11.7499 15.0684 11.7104C15.0584 11.69 15.048 11.6697 15.0378 11.6494C15.0202 11.6145 15.0024 11.5797 14.9841 11.5452C14.9729 11.5239 14.9614 11.5027 14.9498 11.4815C14.9315 11.4477 14.9128 11.4142 14.8938 11.3808C14.8821 11.3603 14.8704 11.3397 14.8584 11.3192C14.838 11.2842 14.8169 11.2494 14.7957 11.2147C14.7847 11.1967 14.7739 11.1787 14.7627 11.1608C14.7342 11.1152 14.7049 11.07 14.6752 11.0252C14.6709 11.0188 14.6669 11.0122 14.6626 11.0059C14.6284 10.9549 14.5934 10.9045 14.5577 10.8545C14.5465 10.8388 14.535 10.8234 14.5235 10.8078C14.4985 10.7736 14.4734 10.7394 14.4477 10.7056C14.4335 10.687 14.419 10.6685 14.4045 10.65C14.3807 10.6195 14.3567 10.5892 14.3323 10.5591C14.317 10.5402 14.3015 10.5215 14.286 10.5027C14.2612 10.473 14.2362 10.4436 14.2109 10.4142C14.1954 10.3964 14.1801 10.3785 14.1644 10.3607C14.1367 10.3294 14.1086 10.2985 14.0802 10.2678C14.0665 10.2529 14.053 10.2379 14.0392 10.2232C13.9968 10.1781 13.9538 10.1335 13.91 10.0897C13.8661 10.0458 13.8214 10.0028 13.7763 9.96028C13.7619 9.94678 13.7473 9.93366 13.7328 9.9203C13.7016 9.89156 13.6703 9.86297 13.6386 9.83484C13.6213 9.81952 13.6037 9.80442 13.5862 9.78933C13.5565 9.76364 13.5265 9.73819 13.4963 9.71306C13.4781 9.69788 13.4597 9.68278 13.4412 9.66783C13.4105 9.64294 13.3796 9.61842 13.3485 9.59419C13.3305 9.58027 13.3127 9.5662 13.2947 9.55247C13.26 9.52608 13.2249 9.5002 13.1897 9.47456C13.175 9.46392 13.1605 9.45291 13.1457 9.44241C13.0955 9.4065 13.0447 9.37125 12.9934 9.33689C12.9885 9.33361 12.9835 9.33051 12.9786 9.32728C12.9322 9.29644 12.8855 9.2662 12.8383 9.23667C12.8213 9.22603 12.804 9.21572 12.7869 9.20522C12.7514 9.18342 12.7158 9.16191 12.6798 9.14086C12.66 9.12923 12.6399 9.11784 12.6199 9.10645C12.5859 9.08714 12.5519 9.06811 12.5175 9.04945C12.4967 9.03816 12.4759 9.02691 12.455 9.0158C12.4201 8.99738 12.385 8.97937 12.3498 8.96161C12.3297 8.95148 12.3097 8.94127 12.2895 8.93137C12.2498 8.91183 12.2097 8.89298 12.1695 8.87438C12.1537 8.86711 12.1382 8.85956 12.1225 8.85239C12.0666 8.82703 12.0103 8.80252 11.9535 8.77884C11.9428 8.77439 11.9319 8.77027 11.9211 8.76581C11.875 8.74687 11.8288 8.72841 11.7822 8.71069C11.7619 8.703 11.7415 8.69564 11.721 8.68809C11.6952 8.67881 11.6695 8.66888 11.6435 8.65969ZM6.04655 15.8371C6.13669 15.9272 6.25481 15.9723 6.37289 15.9723C6.49097 15.9723 6.60914 15.9272 6.69923 15.8371L8.98364 13.5527C9.13688 13.3995 9.33534 13.3072 9.54652 13.2868C9.54844 13.2894 9.55045 13.2918 9.55237 13.2944C9.56653 13.313 9.58097 13.3314 9.59536 13.3498C9.61917 13.3804 9.64322 13.4108 9.66764 13.4409C9.68297 13.4598 9.69839 13.4785 9.71395 13.4973C9.7387 13.5271 9.76378 13.5565 9.78914 13.5858C9.80456 13.6036 9.81989 13.6215 9.83555 13.6392C9.86325 13.6705 9.89142 13.7014 9.91983 13.7322C9.93352 13.7471 9.94702 13.7621 9.96084 13.7768C10.0032 13.8219 10.0462 13.8664 10.09 13.9103C10.1339 13.9541 10.1786 13.9972 10.2237 14.0396C10.238 14.0529 10.2526 14.0661 10.2672 14.0795C10.2983 14.1082 10.3296 14.1367 10.3613 14.1648C10.3786 14.1802 10.3962 14.1952 10.4138 14.2104C10.4435 14.2361 10.4734 14.2615 10.5036 14.2866C10.5219 14.3018 10.5403 14.3169 10.5587 14.3318C10.5894 14.3568 10.6204 14.3813 10.6516 14.4056C10.6695 14.4195 10.6872 14.4335 10.7052 14.4472C10.7399 14.4736 10.7751 14.4995 10.8103 14.5252C10.825 14.5358 10.8395 14.5468 10.8542 14.5573C10.9045 14.5932 10.9552 14.6285 11.0065 14.6628C11.0114 14.6661 11.0165 14.6692 11.0213 14.6724C11.0677 14.7033 11.1145 14.7335 11.1616 14.763C11.1787 14.7737 11.1959 14.784 11.213 14.7945C11.2485 14.8163 11.2842 14.8378 11.3201 14.8589C11.34 14.8705 11.3601 14.8819 11.3802 14.8934C11.4141 14.9127 11.448 14.9317 11.4823 14.9503C11.5031 14.9616 11.524 14.9728 11.545 14.9839C11.5798 15.0024 11.6149 15.0204 11.6501 15.0381C11.6702 15.0482 11.6902 15.0585 11.7104 15.0683C11.7502 15.0879 11.7902 15.1067 11.8305 15.1253C11.8462 15.1326 11.8617 15.1402 11.8774 15.1473C11.9333 15.1727 11.9897 15.1972 12.0464 15.2208C12.057 15.2253 12.0679 15.2294 12.0786 15.2338C12.1248 15.2527 12.1711 15.2712 12.2177 15.289C12.238 15.2967 12.2585 15.304 12.2789 15.3116C12.3048 15.3211 12.3305 15.331 12.3565 15.3402C12.3559 15.342 12.3554 15.3437 12.3548 15.3455C12.339 15.3901 12.322 15.4343 12.3041 15.4781C12.2999 15.4883 12.2955 15.4984 12.2912 15.5086C12.2745 15.5481 12.2571 15.5872 12.2387 15.6259C12.2362 15.6311 12.2339 15.6365 12.2313 15.6418C12.2107 15.6843 12.1889 15.7262 12.1662 15.7676C12.1608 15.7776 12.1552 15.7874 12.1497 15.7973C12.1282 15.8355 12.106 15.8733 12.0828 15.9105C12.0804 15.9143 12.0782 15.9181 12.0758 15.9219C12.0506 15.962 12.024 16.0012 11.9968 16.0401C11.9901 16.0496 11.9834 16.059 11.9766 16.0684C11.95 16.1054 11.9227 16.1419 11.8942 16.1777C11.8927 16.1797 11.8912 16.1818 11.8896 16.1838C11.8597 16.2211 11.8287 16.2575 11.7969 16.2935C11.7892 16.3023 11.7812 16.311 11.7734 16.3198C11.741 16.3555 11.708 16.3909 11.6737 16.4251L8.11027 19.9886C7.56394 20.535 6.83616 20.8358 6.06103 20.8358C5.28591 20.8358 4.55813 20.5349 4.0118 19.9886C3.97762 19.9544 3.94444 19.9196 3.91223 19.884C3.42895 19.3511 3.16453 18.666 3.16453 17.9393C3.16453 17.2126 3.429 16.5276 3.91223 15.9946C3.94444 15.9591 3.97762 15.9242 4.0118 15.8901L7.57523 12.3266C7.60955 12.2923 7.6448 12.2594 7.68056 12.227C7.68933 12.2191 7.69809 12.2112 7.70695 12.2034C7.74281 12.1717 7.77919 12.1406 7.81645 12.1109C7.81856 12.1092 7.82081 12.1075 7.82297 12.1058C7.85859 12.0775 7.89502 12.0503 7.93186 12.0238C7.94133 12.017 7.9508 12.0102 7.96031 12.0035C7.99908 11.9763 8.03831 11.9498 8.0783 11.9246C8.08219 11.9221 8.08617 11.9198 8.09006 11.9174C8.12714 11.8943 8.16478 11.8722 8.20284 11.8508C8.21283 11.8452 8.22276 11.8395 8.2328 11.8341C8.27414 11.8115 8.31595 11.7897 8.35837 11.7691C8.36377 11.7665 8.3693 11.7642 8.37473 11.7615C8.41317 11.7432 8.45212 11.7259 8.49141 11.7092C8.50167 11.7049 8.51189 11.7005 8.52225 11.6962C8.56589 11.6783 8.61 11.6614 8.65462 11.6456C8.65636 11.645 8.65819 11.6445 8.65997 11.6438C8.66925 11.67 8.67923 11.6959 8.6888 11.722C8.69625 11.7421 8.70347 11.7624 8.71116 11.7825C8.72897 11.8291 8.74748 11.8755 8.76647 11.9218C8.77087 11.9325 8.77495 11.9433 8.77941 11.954C8.80303 12.0106 8.82755 12.0669 8.85291 12.1228C8.86017 12.1388 8.86781 12.1545 8.87522 12.1704C8.89373 12.2104 8.91248 12.2502 8.93184 12.2898C8.94188 12.3102 8.95219 12.3304 8.96245 12.3508C8.98003 12.3856 8.99784 12.4204 9.01612 12.4549C9.01772 12.458 9.01927 12.4611 9.02086 12.4642C8.76488 12.5547 8.52914 12.7021 8.33109 12.9002L6.04669 15.1845C5.86631 15.3646 5.86631 15.6568 6.04655 15.8371ZM21.5721 9.69394L18.0087 13.2574C17.2152 14.0508 16.2104 14.5533 15.1027 14.7107C14.5261 14.7926 13.9494 14.7773 13.3834 14.6659C13.2677 14.6431 13.1524 14.6167 13.0377 14.5859C12.9297 14.5568 12.8227 14.5243 12.717 14.4883C11.9773 14.2361 11.3 13.8147 10.7427 13.2574C10.7415 13.2563 10.7405 13.2551 10.7393 13.254C10.7042 13.2188 10.6698 13.1831 10.6358 13.1471C10.6245 13.135 10.6133 13.1228 10.6021 13.1107C10.5781 13.0846 10.5543 13.0584 10.5308 13.0319C10.5188 13.0183 10.5067 13.0046 10.4948 12.9909C10.4714 12.9639 10.4483 12.9366 10.4254 12.9091C10.4152 12.8969 10.4048 12.8847 10.3948 12.8723C10.3626 12.8328 10.3308 12.793 10.2998 12.7527C10.2975 12.7498 10.2954 12.7468 10.2932 12.7439C10.2644 12.7062 10.2361 12.668 10.2083 12.6295C10.1988 12.6163 10.1895 12.603 10.1801 12.5897C10.1596 12.5607 10.1393 12.5315 10.1194 12.5021C10.1094 12.4875 10.0996 12.4727 10.0898 12.458C10.0697 12.4276 10.05 12.397 10.0306 12.3662C10.0225 12.3535 10.0143 12.3408 10.0064 12.328C9.97955 12.2847 9.95325 12.2411 9.9277 12.1971C9.92498 12.1924 9.92241 12.1875 9.91969 12.1829C9.897 12.1433 9.87478 12.1035 9.85312 12.0635C9.84539 12.0491 9.83784 12.0346 9.83025 12.0202C9.8137 11.9888 9.79744 11.9573 9.7815 11.9256C9.77367 11.91 9.76584 11.8942 9.75816 11.8786C9.74189 11.8454 9.72609 11.8119 9.71058 11.7784C9.70453 11.7653 9.6983 11.7523 9.69234 11.7391C9.67134 11.6926 9.65095 11.646 9.63131 11.5989C9.62859 11.5923 9.62606 11.5857 9.62339 11.5792C9.6098 11.5462 9.59677 11.5129 9.58383 11.4795C9.60422 11.4793 9.62456 11.4794 9.64495 11.4795C9.68227 11.4797 9.71944 11.4806 9.75656 11.4823C9.76167 11.4825 9.76688 11.4825 9.77194 11.4828C9.81234 11.4848 9.85261 11.488 9.89278 11.4917C9.90366 11.4927 9.91463 11.4937 9.92545 11.4948C9.96511 11.499 10.0047 11.5037 10.044 11.5094C10.052 11.5106 10.06 11.5119 10.068 11.5132C10.1029 11.5185 10.1377 11.5246 10.1723 11.5312C10.1813 11.533 10.1903 11.5346 10.1993 11.5364C10.2383 11.5442 10.2772 11.5529 10.3158 11.5624C10.3256 11.5648 10.3354 11.5673 10.3451 11.5698C10.3824 11.5793 10.4196 11.5894 10.4566 11.6005C10.4598 11.6015 10.463 11.6022 10.4662 11.6032C10.5053 11.6151 10.5442 11.628 10.5828 11.6415C10.5922 11.6448 10.6015 11.6481 10.6109 11.6514C10.6488 11.6651 10.6867 11.6795 10.724 11.6948C10.7306 11.6975 10.7371 11.7004 10.7437 11.7031C10.7777 11.7173 10.8114 11.7322 10.8449 11.7477C10.8519 11.7509 10.8589 11.754 10.8659 11.7573C10.9027 11.7747 10.9391 11.793 10.9752 11.812C10.9833 11.8163 10.9914 11.8207 10.9994 11.825C11.0355 11.8445 11.0714 11.8644 11.1067 11.8855C11.1077 11.8861 11.1088 11.8867 11.1098 11.8872C11.1459 11.9087 11.1814 11.9314 11.2166 11.9545C11.2242 11.9595 11.2319 11.9646 11.2395 11.9697C11.2738 11.9927 11.3077 12.0164 11.3412 12.041C11.3466 12.045 11.3519 12.0491 11.3573 12.0531C11.388 12.076 11.4182 12.0995 11.448 12.1237C11.4535 12.1281 11.459 12.1324 11.4645 12.1369C11.4967 12.1634 11.5284 12.1908 11.5596 12.2188C11.5663 12.2248 11.573 12.231 11.5797 12.2371C11.6115 12.2662 11.643 12.2958 11.6736 12.3264C12.5759 13.2286 13.8647 13.619 15.121 13.3709C15.8647 13.2239 16.5413 12.8627 17.0776 12.3264L20.641 8.763C20.7761 8.62786 20.8999 8.48433 21.0117 8.33358C21.4965 7.68028 21.7586 6.89119 21.7586 6.06103C21.7586 5.49075 21.6346 4.93992 21.4 4.43906C21.2143 4.04264 20.9594 3.67748 20.641 3.35906C19.9203 2.63836 18.9607 2.24147 17.939 2.24147C16.9173 2.24147 15.9577 2.63841 15.237 3.35906L11.6736 6.9225C11.6431 6.95302 11.6133 6.98405 11.584 7.0155C11.5747 7.02534 11.5658 7.03538 11.5567 7.04531C11.5363 7.06753 11.5162 7.08994 11.4964 7.11262C11.4867 7.12378 11.4769 7.13503 11.4674 7.14628C11.4473 7.16977 11.4276 7.19353 11.4082 7.21748C11.4004 7.22709 11.3925 7.23661 11.3848 7.24622C11.3583 7.2795 11.3323 7.31316 11.307 7.34719C11.3027 7.35286 11.2987 7.35872 11.2945 7.36439C11.2734 7.39317 11.2527 7.42223 11.2324 7.45153C11.2244 7.46306 11.2166 7.47464 11.2088 7.48622C11.1923 7.51073 11.176 7.53539 11.16 7.56023C11.1523 7.57233 11.1444 7.58442 11.1368 7.59661C11.1196 7.62417 11.1027 7.65202 11.0862 7.67995C11.081 7.68877 11.0756 7.69748 11.0704 7.70639C11.0491 7.74309 11.0285 7.78008 11.0085 7.81748C11.0039 7.8262 10.9994 7.83506 10.9948 7.84383C10.9795 7.87284 10.9646 7.90209 10.95 7.93153C10.9437 7.94433 10.9376 7.95722 10.9314 7.97011C10.9186 7.99683 10.9061 8.02364 10.8939 8.05069C10.8882 8.06334 10.8825 8.07595 10.8769 8.08866C10.8627 8.12123 10.8489 8.15405 10.8356 8.18705C10.8329 8.1937 10.83 8.20022 10.8274 8.20683C10.8117 8.24625 10.7968 8.286 10.7824 8.32598C10.7783 8.33747 10.7745 8.34905 10.7704 8.36058C10.7636 8.38013 10.7566 8.39962 10.7501 8.41927C10.7487 8.41903 10.7474 8.4188 10.746 8.41852C10.6944 8.40881 10.6428 8.39981 10.5912 8.39147C10.5734 8.38856 10.5556 8.38617 10.5378 8.38345C10.5025 8.37806 10.4671 8.37272 10.4316 8.36794C10.4101 8.36503 10.3886 8.36255 10.367 8.35992C10.3353 8.35598 10.3035 8.35214 10.2717 8.34872C10.2486 8.34623 10.2255 8.34413 10.2024 8.34188C10.172 8.33897 10.1415 8.33616 10.1109 8.33372C10.0873 8.33184 10.0636 8.33011 10.0399 8.32852C10.0098 8.3265 9.97969 8.32463 9.94959 8.32298C9.92578 8.32172 9.90192 8.32055 9.87806 8.31956C9.84778 8.3183 9.8175 8.31736 9.78717 8.31656C9.76364 8.31591 9.74011 8.3153 9.71653 8.31497C9.68522 8.3145 9.65391 8.31445 9.62255 8.3145C9.60014 8.3145 9.57778 8.31445 9.55538 8.31469C9.5212 8.31511 9.48712 8.31609 9.45295 8.31703C9.43702 8.3175 9.42117 8.31755 9.40528 8.31816C9.63408 7.43967 10.0899 6.64397 10.7426 5.99128L14.3061 2.42784C16.3093 0.424594 19.5689 0.424594 21.5721 2.42784C22.5425 3.39844 23.0768 4.68862 23.0768 6.06098C23.0768 7.43334 22.5425 8.72353 21.5721 9.69394Z" fill="#333333"/>
<path d="M5.84398 16.3994C5.83798 16.3703 5.82922 16.3413 5.81769 16.3131C5.80616 16.2854 5.79186 16.2586 5.77522 16.2337C5.75816 16.2083 5.73875 16.1847 5.71752 16.1635C5.61045 16.056 5.45122 16.007 5.30122 16.037C5.27169 16.043 5.24262 16.0518 5.21492 16.0633C5.18675 16.0749 5.15998 16.0892 5.13509 16.1058C5.10969 16.1229 5.08616 16.1423 5.06492 16.1635C5.04369 16.1847 5.02428 16.2083 5.00769 16.2337C4.99109 16.2586 4.97675 16.2854 4.96522 16.3131C4.95369 16.3413 4.94492 16.3703 4.93892 16.3994C4.93292 16.4294 4.92969 16.4599 4.92969 16.4899C4.92969 16.5199 4.93292 16.5504 4.93892 16.5799C4.94492 16.6094 4.95369 16.6385 4.96522 16.6662C4.97675 16.6943 4.99105 16.7211 5.00769 16.746C5.02428 16.7714 5.04369 16.7949 5.06492 16.8162C5.08616 16.8374 5.10969 16.8567 5.13509 16.8734C5.16003 16.89 5.1868 16.9043 5.21492 16.9159C5.24262 16.9274 5.27169 16.9362 5.30122 16.9422C5.33075 16.9482 5.36122 16.9509 5.39122 16.9509C5.42122 16.9509 5.45169 16.9481 5.48169 16.9422C5.51075 16.9362 5.53986 16.9274 5.56798 16.9159C5.59569 16.9043 5.62245 16.89 5.64739 16.8734C5.6728 16.8568 5.69633 16.8374 5.71756 16.8162C5.7388 16.7949 5.75816 16.7714 5.77527 16.746C5.79186 16.721 5.8062 16.6943 5.81773 16.6662C5.82927 16.6384 5.83803 16.6094 5.84403 16.5799C5.85003 16.5503 5.8528 16.5199 5.8528 16.4899C5.85275 16.4599 5.84998 16.4294 5.84398 16.3994Z" fill="#333333"/>
</svg>
