<svg width="24" height="24" viewBox="0 0 24 24" fill="none" xmlns="http://www.w3.org/2000/svg">
<path d="M22.8 2.80005H1.2C0.537281 2.80005 0 3.33728 0 4.00005V20C0 20.6628 0.537234 21.2 1.2 21.2H22.8C23.4627 21.2 24 20.6628 24 20V4.00005C24 3.33733 23.4628 2.80005 22.8 2.80005ZM23.2 20.0001C23.2 20.221 23.0209 20.4001 22.8 20.4001H1.2C0.979078 20.4001 0.800016 20.221 0.800016 20.0001V4.00005C0.800016 3.77913 0.979078 3.60006 1.2 3.60006H22.8C23.0209 3.60006 23.2 3.77913 23.2 4.00005V20.0001Z" fill="#333333"/>
<path d="M22.0364 4.40145C21.9307 4.39221 21.8256 4.42535 21.7444 4.4936L12.5164 12.2456C12.2188 12.4957 11.7844 12.4957 11.4868 12.2456L2.2588 4.49356C2.14935 4.40168 1.99916 4.37515 1.86487 4.42399C1.73057 4.47284 1.63251 4.58965 1.60766 4.73042C1.58282 4.87118 1.63494 5.01448 1.7444 5.10635L10.9724 12.8579C11.5671 13.3587 12.436 13.3587 13.0308 12.8579L22.2588 5.1064C22.3401 5.0382 22.3909 4.94051 22.4001 4.83481C22.4093 4.7291 22.3762 4.62406 22.3079 4.54282C22.2398 4.46149 22.1421 4.41068 22.0364 4.40145Z" fill="#333333"/>
<path d="M7.69331 12.8031C7.5517 12.7715 7.40414 12.819 7.30758 12.9273L1.70756 18.9273C1.60622 19.0311 1.569 19.1816 1.61034 19.3207C1.65168 19.4597 1.76508 19.5655 1.90664 19.5971C2.04825 19.6287 2.19581 19.5811 2.29237 19.4729L7.89239 13.4729C7.99373 13.3691 8.03095 13.2185 7.98961 13.0795C7.94826 12.9405 7.83492 12.8347 7.69331 12.8031Z" fill="#333333"/>
<path d="M16.6908 12.9273C16.5943 12.819 16.4467 12.7715 16.3051 12.8031C16.1635 12.8347 16.0501 12.9405 16.0088 13.0795C15.9674 13.2186 16.0047 13.3691 16.106 13.4729L21.706 19.4729C21.8579 19.6284 22.1061 19.6342 22.2651 19.4859C22.424 19.3376 22.4355 19.0895 22.2908 18.9272L16.6908 12.9273Z" fill="#333333"/>
</svg>
